0
SECTION
2
HEADER
0
ENDSEC
0
SECTION
2
TABLES
0
ENDSEC
0
SECTION
2
ENTITIES
0
TEXT
8
TEXT
62
2
10
0.000
20
-1.600
30
0.0
40
0.380
1
Projeto beta - mansao
0
TEXT
8
TEXT
62
8
10
0.000
20
-1.100
30
0.0
40
0.200
1
Tipo: mansao | Pavimentos: 2
0
TEXT
8
TEXT
62
3
10
0.000
20
-0.900
30
0.0
40
0.320
1
Projeto beta - mansao - TERREO
0
LINE
8
GUIDES
62
9
10
-0.400
20
-0.550
30
0.0
11
16.000
21
-0.550
31
0.0
0
LINE
8
OUTLINE
62
3
10
-0.800
20
-0.800
30
0.0
11
-0.800
21
2.700
31
0.0
0
LINE
8
OUTLINE
62
3
10
-0.800
20
2.700
30
0.0
11
-0.800
21
5.500
31
0.0
0
LINE
8
OUTLINE
62
3
10
-0.800
20
5.500
30
0.0
11
-0.800
21
9.000
31
0.0
0
LINE
8
OUTLINE
62
3
10
-0.800
20
9.000
30
0.0
11
-0.800
21
9.500
31
0.0
0
LINE
8
OUTLINE
62
3
10
-0.800
20
9.500
30
0.0
11
-0.800
21
10.800
31
0.0
0
LINE
8
OUTLINE
62
3
10
-0.800
20
10.800
30
0.0
11
-0.800
21
14.800
31
0.0
0
LINE
8
OUTLINE
62
3
10
-0.800
20
14.800
30
0.0
11
9.600
21
16.100
31
0.0
0
LINE
8
OUTLINE
62
3
10
9.600
20
16.100
30
0.0
11
9.600
21
17.900
31
0.0
0
LINE
8
OUTLINE
62
3
10
9.600
20
17.900
30
0.0
11
9.600
21
19.100
31
0.0
0
LINE
8
OUTLINE
62
3
10
9.600
20
19.100
30
0.0
11
9.600
21
20.600
31
0.0
0
LINE
8
OUTLINE
62
3
10
9.600
20
20.600
30
0.0
11
-0.800
21
24.900
31
0.0
0
LINE
8
OUTLINE
62
3
10
-0.800
20
24.900
30
0.0
11
-0.800
21
29.200
31
0.0
0
LINE
8
OUTLINE
62
3
10
-0.800
20
29.200
30
0.0
11
-0.800
21
31.700
31
0.0
0
LINE
8
OUTLINE
62
3
10
-0.800
20
31.700
30
0.0
11
-0.800
21
34.800
31
0.0
0
LINE
8
OUTLINE
62
3
10
-0.800
20
34.800
30
0.0
11
8.800
21
34.800
31
0.0
0
LINE
8
OUTLINE
62
3
10
8.800
20
34.800
30
0.0
11
8.800
21
31.700
31
0.0
0
LINE
8
OUTLINE
62
3
10
8.800
20
31.700
30
0.0
11
15.100
21
29.200
31
0.0
0
LINE
8
OUTLINE
62
3
10
15.100
20
29.200
30
0.0
11
5.300
21
24.900
31
0.0
0
LINE
8
OUTLINE
62
3
10
5.300
20
24.900
30
0.0
11
14.300
21
20.600
31
0.0
0
LINE
8
OUTLINE
62
3
10
14.300
20
20.600
30
0.0
11
13.400
21
19.100
31
0.0
0
LINE
8
OUTLINE
62
3
10
13.400
20
19.100
30
0.0
11
19.500
21
17.900
31
0.0
0
LINE
8
OUTLINE
62
3
10
19.500
20
17.900
30
0.0
11
19.500
21
16.100
31
0.0
0
LINE
8
OUTLINE
62
3
10
19.500
20
16.100
30
0.0
11
6.800
21
14.800
31
0.0
0
LINE
8
OUTLINE
62
3
10
6.800
20
14.800
30
0.0
11
14.100
21
10.800
31
0.0
0
LINE
8
OUTLINE
62
3
10
14.100
20
10.800
30
0.0
11
6.800
21
9.500
31
0.0
0
LINE
8
OUTLINE
62
3
10
6.800
20
9.500
30
0.0
11
12.100
21
9.000
31
0.0
0
LINE
8
OUTLINE
62
3
10
12.100
20
9.000
30
0.0
11
16.400
21
5.500
31
0.0
0
LINE
8
OUTLINE
62
3
10
16.400
20
5.500
30
0.0
11
8.300
21
2.700
31
0.0
0
LINE
8
OUTLINE
62
3
10
8.300
20
2.700
30
0.0
11
12.600
21
-0.800
31
0.0
0
LINE
8
OUTLINE
62
3
10
12.600
20
-0.800
30
0.0
11
-0.800
21
-0.800
31
0.0
0
LINE
8
LANDSCAPE
62
2
10
0.350
20
0.000
30
0.0
11
-0.250
21
-2.000
31
0.0
0
LINE
8
LANDSCAPE
62
2
10
7.150
20
0.000
30
0.0
11
7.750
21
-2.000
31
0.0
0
LINE
8
LANDSCAPE
62
2
10
-0.250
20
-2.000
30
0.0
11
7.750
21
-2.000
31
0.0
0
LINE
8
LANDSCAPE
62
3
10
2.550
20
6.300
30
0.0
11
2.750
21
4.950
31
0.0
0
LINE
8
LANDSCAPE
62
3
10
3.450
20
6.300
30
0.0
11
3.250
21
4.950
31
0.0
0
LINE
8
LANDSCAPE
62
3
10
2.750
20
4.950
30
0.0
11
3.250
21
4.950
31
0.0
0
CIRCLE
8
LANDSCAPE
62
3
10
-0.150
20
-0.850
30
0.0
40
0.220
0
CIRCLE
8
LANDSCAPE
62
3
10
0.050
20
-0.770
30
0.0
40
0.160
0
CIRCLE
8
LANDSCAPE
62
3
10
2.000
20
-1.050
30
0.0
40
0.220
0
CIRCLE
8
LANDSCAPE
62
3
10
2.200
20
-0.970
30
0.0
40
0.160
0
CIRCLE
8
LANDSCAPE
62
3
10
4.400
20
-0.900
30
0.0
40
0.220
0
CIRCLE
8
LANDSCAPE
62
3
10
4.600
20
-0.820
30
0.0
40
0.160
0
LINE
8
PLOT
62
8
10
0.000
20
0.000
30
0.0
11
20.000
21
0.000
31
0.0
0
LINE
8
PLOT
62
8
10
20.000
20
0.000
30
0.0
11
20.000
21
30.000
31
0.0
0
LINE
8
PLOT
62
8
10
20.000
20
30.000
30
0.0
11
0.000
21
30.000
31
0.0
0
LINE
8
PLOT
62
8
10
0.000
20
30.000
30
0.0
11
0.000
21
0.000
31
0.0
0
LINE
8
WALLS
62
7
10
0.000
20
0.000
30
0.0
11
7.500
21
0.000
31
0.0
0
LINE
8
WALLS
62
7
10
7.500
20
0.000
30
0.0
11
7.500
21
6.000
31
0.0
0
LINE
8
WALLS
62
7
10
7.500
20
6.000
30
0.0
11
0.000
21
6.000
31
0.0
0
LINE
8
WALLS
62
7
10
0.000
20
6.000
30
0.0
11
0.000
21
0.000
31
0.0
0
LINE
8
WALLS_INNER
62
8
10
0.068
20
0.068
30
0.0
11
7.433
21
0.068
31
0.0
0
LINE
8
WALLS_INNER
62
8
10
7.433
20
0.068
30
0.0
11
7.433
21
5.933
31
0.0
0
LINE
8
WALLS_INNER
62
8
10
7.433
20
5.933
30
0.0
11
0.068
21
5.933
31
0.0
0
LINE
8
WALLS_INNER
62
8
10
0.068
20
5.933
30
0.0
11
0.068
21
0.068
31
0.0
0
LINE
8
DOORS
62
1
10
3.300
20
0.000
30
0.0
11
4.200
21
0.000
31
0.0
0
ARC
8
DOORS
62
6
10
4.200
20
0.000
30
0.0
40
0.900
50
180.000
51
270.000
0
LINE
8
WINDOWS
62
5
10
3.050
20
0.050
30
0.0
11
4.450
21
0.050
31
0.0
0
LINE
8
FURNITURE
62
5
10
0.500
20
0.550
30
0.0
11
2.600
21
0.550
31
0.0
0
LINE
8
FURNITURE
62
5
10
2.600
20
0.550
30
0.0
11
2.600
21
4.450
31
0.0
0
LINE
8
FURNITURE
62
5
10
2.600
20
4.450
30
0.0
11
0.500
21
4.450
31
0.0
0
LINE
8
FURNITURE
62
5
10
0.500
20
4.450
30
0.0
11
0.500
21
0.550
31
0.0
0
LINE
8
FURNITURE
62
5
10
4.900
20
0.550
30
0.0
11
7.000
21
0.550
31
0.0
0
LINE
8
FURNITURE
62
5
10
7.000
20
0.550
30
0.0
11
7.000
21
4.450
31
0.0
0
LINE
8
FURNITURE
62
5
10
7.000
20
4.450
30
0.0
11
4.900
21
4.450
31
0.0
0
LINE
8
FURNITURE
62
5
10
4.900
20
4.450
30
0.0
11
4.900
21
0.550
31
0.0
0
TEXT
8
TEXT
62
2
10
2.400
20
3.100
30
0.0
40
0.220
1
Garagem
0
TEXT
8
TEXT
62
8
10
2.250
20
2.800
30
0.0
40
0.140
1
7.50 x 6.00 m
0
LINE
8
WALLS
62
7
10
7.800
20
0.000
30
0.0
11
11.800
21
0.000
31
0.0
0
LINE
8
WALLS
62
7
10
11.800
20
0.000
30
0.0
11
11.800
21
3.500
31
0.0
0
LINE
8
WALLS
62
7
10
11.800
20
3.500
30
0.0
11
7.800
21
3.500
31
0.0
0
LINE
8
WALLS
62
7
10
7.800
20
3.500
30
0.0
11
7.800
21
0.000
31
0.0
0
LINE
8
WALLS_INNER
62
8
10
7.867
20
0.068
30
0.0
11
11.732
21
0.068
31
0.0
0
LINE
8
WALLS_INNER
62
8
10
11.732
20
0.068
30
0.0
11
11.732
21
3.433
31
0.0
0
LINE
8
WALLS_INNER
62
8
10
11.732
20
3.433
30
0.0
11
7.867
21
3.433
31
0.0
0
LINE
8
WALLS_INNER
62
8
10
7.867
20
3.433
30
0.0
11
7.867
21
0.068
31
0.0
0
LINE
8
DOORS
62
1
10
9.350
20
3.500
30
0.0
11
10.250
21
3.500
31
0.0
0
ARC
8
DOORS
62
6
10
9.350
20
3.500
30
0.0
40
0.900
50
0.000
51
90.000
0
LINE
8
WINDOWS
62
5
10
9.240
20
0.050
30
0.0
11
10.360
21
0.050
31
0.0
0
TEXT
8
TEXT
62
2
10
9.080
20
1.850
30
0.0
40
0.220
1
Escritorio
0
TEXT
8
TEXT
62
8
10
9.000
20
1.550
30
0.0
40
0.140
1
4.00 x 3.50 m
0
LINE
8
WALLS
62
7
10
0.000
20
6.300
30
0.0
11
6.000
21
6.300
31
0.0
0
LINE
8
WALLS
62
7
10
6.000
20
6.300
30
0.0
11
6.000
21
11.300
31
0.0
0
LINE
8
WALLS
62
7
10
6.000
20
11.300
30
0.0
11
0.000
21
11.300
31
0.0
0
LINE
8
WALLS
62
7
10
0.000
20
11.300
30
0.0
11
0.000
21
6.300
31
0.0
0
LINE
8
WALLS_INNER
62
8
10
0.068
20
6.367
30
0.0
11
5.933
21
6.367
31
0.0
0
LINE
8
WALLS_INNER
62
8
10
5.933
20
6.367
30
0.0
11
5.933
21
11.232
31
0.0
0
LINE
8
WALLS_INNER
62
8
10
5.933
20
11.232
30
0.0
11
0.068
21
11.232
31
0.0
0
LINE
8
WALLS_INNER
62
8
10
0.068
20
11.232
30
0.0
11
0.068
21
6.367
31
0.0
0
LINE
8
DOORS
62
1
10
2.550
20
11.300
30
0.0
11
3.450
21
11.300
31
0.0
0
ARC
8
DOORS
62
6
10
2.550
20
11.300
30
0.0
40
0.900
50
0.000
51
90.000
0
LINE
8
FURNITURE
62
6
10
0.350
20
6.700
30
0.0
11
1.950
21
6.700
31
0.0
0
LINE
8
FURNITURE
62
6
10
1.950
20
6.700
30
0.0
11
1.950
21
7.300
31
0.0
0
LINE
8
FURNITURE
62
6
10
1.950
20
7.300
30
0.0
11
0.350
21
7.300
31
0.0
0
LINE
8
FURNITURE
62
6
10
0.350
20
7.300
30
0.0
11
0.350
21
6.700
31
0.0
0
LINE
8
FURNITURE
62
6
10
0.450
20
10.300
30
0.0
11
1.200
21
10.300
31
0.0
0
LINE
8
FURNITURE
62
6
10
1.200
20
10.300
30
0.0
11
1.200
21
10.750
31
0.0
0
LINE
8
FURNITURE
62
6
10
1.200
20
10.750
30
0.0
11
0.450
21
10.750
31
0.0
0
LINE
8
FURNITURE
62
6
10
0.450
20
10.750
30
0.0
11
0.450
21
10.300
31
0.0
0
TEXT
8
TEXT
62
2
10
1.920
20
8.900
30
0.0
40
0.220
1
Sala de estar
0
TEXT
8
TEXT
62
8
10
1.800
20
8.600
30
0.0
40
0.140
1
6.00 x 5.00 m
0
LINE
8
WALLS
62
7
10
6.300
20
6.300
30
0.0
11
11.300
21
6.300
31
0.0
0
LINE
8
WALLS
62
7
10
11.300
20
6.300
30
0.0
11
11.300
21
10.300
31
0.0
0
LINE
8
WALLS
62
7
10
11.300
20
10.300
30
0.0
11
6.300
21
10.300
31
0.0
0
LINE
8
WALLS
62
7
10
6.300
20
10.300
30
0.0
11
6.300
21
6.300
31
0.0
0
LINE
8
WALLS_INNER
62
8
10
6.367
20
6.367
30
0.0
11
11.232
21
6.367
31
0.0
0
LINE
8
WALLS_INNER
62
8
10
11.232
20
6.367
30
0.0
11
11.232
21
10.232
31
0.0
0
LINE
8
WALLS_INNER
62
8
10
11.232
20
10.232
30
0.0
11
6.367
21
10.232
31
0.0
0
LINE
8
WALLS_INNER
62
8
10
6.367
20
10.232
30
0.0
11
6.367
21
6.367
31
0.0
0
LINE
8
DOORS
62
1
10
8.350
20
10.300
30
0.0
11
9.250
21
10.300
31
0.0
0
ARC
8
DOORS
62
6
10
8.350
20
10.300
30
0.0
40
0.900
50
0.000
51
90.000
0
CIRCLE
8
FURNITURE
62
2
10
7.900
20
7.800
30
0.0
40
0.500
0
CIRCLE
8
FURNITURE
62
2
10
6.900
20
6.950
30
0.0
40
0.140
0
CIRCLE
8
FURNITURE
62
2
10
10.700
20
6.950
30
0.0
40
0.140
0
CIRCLE
8
FURNITURE
62
2
10
6.900
20
9.650
30
0.0
40
0.140
0
CIRCLE
8
FURNITURE
62
2
10
10.700
20
9.650
30
0.0
40
0.140
0
TEXT
8
TEXT
62
2
10
7.900
20
8.400
30
0.0
40
0.220
1
Sala de jantar
0
TEXT
8
TEXT
62
8
10
7.800
20
8.100
30
0.0
40
0.140
1
5.00 x 4.00 m
0
LINE
8
WALLS
62
7
10
11.600
20
6.300
30
0.0
11
15.600
21
6.300
31
0.0
0
LINE
8
WALLS
62
7
10
15.600
20
6.300
30
0.0
11
15.600
21
9.800
31
0.0
0
LINE
8
WALLS
62
7
10
15.600
20
9.800
30
0.0
11
11.600
21
9.800
31
0.0
0
LINE
8
WALLS
62
7
10
11.600
20
9.800
30
0.0
11
11.600
21
6.300
31
0.0
0
LINE
8
WALLS_INNER
62
8
10
11.668
20
6.367
30
0.0
11
15.532
21
6.367
31
0.0
0
LINE
8
WALLS_INNER
62
8
10
15.532
20
6.367
30
0.0
11
15.532
21
9.732
31
0.0
0
LINE
8
WALLS_INNER
62
8
10
15.532
20
9.732
30
0.0
11
11.668
21
9.732
31
0.0
0
LINE
8
WALLS_INNER
62
8
10
11.668
20
9.732
30
0.0
11
11.668
21
6.367
31
0.0
0
LINE
8
DOORS
62
1
10
13.150
20
9.800
30
0.0
11
14.050
21
9.800
31
0.0
0
ARC
8
DOORS
62
6
10
13.150
20
9.800
30
0.0
40
0.900
50
0.000
51
90.000
0
LINE
8
FIXTURES
62
3
10
11.900
20
6.650
30
0.0
11
15.300
21
6.650
31
0.0
0
LINE
8
FIXTURES
62
3
10
11.900
20
7.150
30
0.0
11
15.300
21
7.150
31
0.0
0
CIRCLE
8
FIXTURES
62
1
10
13.600
20
6.880
30
0.0
40
0.120
0
TEXT
8
TEXT
62
2
10
12.880
20
8.150
30
0.0
40
0.220
1
Cozinha
0
TEXT
8
TEXT
62
8
10
12.800
20
7.850
30
0.0
40
0.140
1
4.00 x 3.50 m
0
LINE
8
WALLS
62
7
10
0.000
20
11.600
30
0.0
11
6.000
21
11.600
31
0.0
0
LINE
8
WALLS
62
7
10
6.000
20
11.600
30
0.0
11
6.000
21
16.600
31
0.0
0
LINE
8
WALLS
62
7
10
6.000
20
16.600
30
0.0
11
0.000
21
16.600
31
0.0
0
LINE
8
WALLS
62
7
10
0.000
20
16.600
30
0.0
11
0.000
21
11.600
31
0.0
0
LINE
8
WALLS_INNER
62
8
10
0.068
20
11.668
30
0.0
11
5.933
21
11.668
31
0.0
0
LINE
8
WALLS_INNER
62
8
10
5.933
20
11.668
30
0.0
11
5.933
21
16.533
31
0.0
0
LINE
8
WALLS_INNER
62
8
10
5.933
20
16.533
30
0.0
11
0.068
21
16.533
31
0.0
0
LINE
8
WALLS_INNER
62
8
10
0.068
20
16.533
30
0.0
11
0.068
21
11.668
31
0.0
0
LINE
8
DOORS
62
1
10
2.550
20
16.600
30
0.0
11
3.450
21
16.600
31
0.0
0
ARC
8
DOORS
62
6
10
2.550
20
16.600
30
0.0
40
0.900
50
0.000
51
90.000
0
LINE
8
FIXTURES
62
3
10
0.300
20
11.950
30
0.0
11
5.700
21
11.950
31
0.0
0
LINE
8
FIXTURES
62
3
10
0.300
20
12.450
30
0.0
11
5.700
21
12.450
31
0.0
0
CIRCLE
8
FIXTURES
62
1
10
3.000
20
12.180
30
0.0
40
0.120
0
TEXT
8
TEXT
62
2
10
1.920
20
14.200
30
0.0
40
0.220
1
Cozinha gourmet
0
TEXT
8
TEXT
62
8
10
1.800
20
13.900
30
0.0
40
0.140
1
6.00 x 5.00 m
0
LINE
8
WALLS
62
7
10
6.300
20
11.600
30
0.0
11
13.300
21
11.600
31
0.0
0
LINE
8
WALLS
62
7
10
13.300
20
11.600
30
0.0
11
13.300
21
15.600
31
0.0
0
LINE
8
WALLS
62
7
10
13.300
20
15.600
30
0.0
11
6.300
21
15.600
31
0.0
0
LINE
8
WALLS
62
7
10
6.300
20
15.600
30
0.0
11
6.300
21
11.600
31
0.0
0
LINE
8
WALLS_INNER
62
8
10
6.367
20
11.668
30
0.0
11
13.232
21
11.668
31
0.0
0
LINE
8
WALLS_INNER
62
8
10
13.232
20
11.668
30
0.0
11
13.232
21
15.532
31
0.0
0
LINE
8
WALLS_INNER
62
8
10
13.232
20
15.532
30
0.0
11
6.367
21
15.532
31
0.0
0
LINE
8
WALLS_INNER
62
8
10
6.367
20
15.532
30
0.0
11
6.367
21
11.668
31
0.0
0
LINE
8
DOORS
62
1
10
9.350
20
11.600
30
0.0
11
10.250
21
11.600
31
0.0
0
ARC
8
DOORS
62
6
10
10.250
20
11.600
30
0.0
40
0.900
50
180.000
51
270.000
0
LINE
8
WINDOWS
62
5
10
9.100
20
11.650
30
0.0
11
10.500
21
11.650
31
0.0
0
TEXT
8
TEXT
62
2
10
8.540
20
13.700
30
0.0
40
0.220
1
Espaco gourmet
0
TEXT
8
TEXT
62
8
10
8.400
20
13.400
30
0.0
40
0.140
1
7.00 x 4.00 m
0
LINE
8
WALLS
62
7
10
10.400
20
16.900
30
0.0
11
12.600
21
16.900
31
0.0
0
LINE
8
WALLS
62
7
10
12.600
20
16.900
30
0.0
11
12.600
21
21.100
31
0.0
0
LINE
8
WALLS
62
7
10
12.600
20
21.100
30
0.0
11
10.400
21
21.100
31
0.0
0
LINE
8
WALLS
62
7
10
10.400
20
21.100
30
0.0
11
10.400
21
16.900
31
0.0
0
LINE
8
WALLS_INNER
62
8
10
10.468
20
16.967
30
0.0
11
12.533
21
16.967
31
0.0
0
LINE
8
WALLS_INNER
62
8
10
12.533
20
16.967
30
0.0
11
12.533
21
21.032
31
0.0
0
LINE
8
WALLS_INNER
62
8
10
12.533
20
21.032
30
0.0
11
10.468
21
21.032
31
0.0
0
LINE
8
WALLS_INNER
62
8
10
10.468
20
21.032
30
0.0
11
10.468
21
16.967
31
0.0
0
LINE
8
DOORS
62
1
10
10.400
20
18.625
30
0.0
11
10.400
21
19.375
31
0.0
0
ARC
8
DOORS
62
6
10
10.400
20
18.625
30
0.0
40
0.750
50
270.000
51
360.000
0
TEXT
8
TEXT
62
5
10
11.050
20
19.000
30
0.0
40
0.160
1
CIRC
0
TEXT
8
TEXT
62
2
10
11.104
20
19.100
30
0.0
40
0.220
1
Hall
0
TEXT
8
TEXT
62
8
10
11.060
20
18.800
30
0.0
40
0.140
1
2.20 x 4.20 m
0
LINE
8
WALLS
62
7
10
12.900
20
16.900
30
0.0
11
14.900
21
16.900
31
0.0
0
LINE
8
WALLS
62
7
10
14.900
20
16.900
30
0.0
11
14.900
21
18.700
31
0.0
0
LINE
8
WALLS
62
7
10
14.900
20
18.700
30
0.0
11
12.900
21
18.700
31
0.0
0
LINE
8
WALLS
62
7
10
12.900
20
18.700
30
0.0
11
12.900
21
16.900
31
0.0
0
LINE
8
WALLS_INNER
62
8
10
12.968
20
16.967
30
0.0
11
14.832
21
16.967
31
0.0
0
LINE
8
WALLS_INNER
62
8
10
14.832
20
16.967
30
0.0
11
14.832
21
18.633
31
0.0
0
LINE
8
WALLS_INNER
62
8
10
14.832
20
18.633
30
0.0
11
12.968
21
18.633
31
0.0
0
LINE
8
WALLS_INNER
62
8
10
12.968
20
18.633
30
0.0
11
12.968
21
16.967
31
0.0
0
LINE
8
DOORS
62
1
10
13.525
20
18.700
30
0.0
11
14.275
21
18.700
31
0.0
0
ARC
8
DOORS
62
6
10
13.525
20
18.700
30
0.0
40
0.750
50
0.000
51
90.000
0
CIRCLE
8
FIXTURES
62
2
10
13.350
20
17.350
30
0.0
40
0.180
0
LINE
8
FIXTURES
62
4
10
14.150
20
17.250
30
0.0
11
14.650
21
17.250
31
0.0
0
LINE
8
FIXTURES
62
4
10
14.650
20
17.250
30
0.0
11
14.650
21
17.750
31
0.0
0
LINE
8
FIXTURES
62
4
10
14.650
20
17.750
30
0.0
11
14.150
21
17.750
31
0.0
0
LINE
8
FIXTURES
62
4
10
14.150
20
17.750
30
0.0
11
14.150
21
17.250
31
0.0
0
TEXT
8
TEXT
62
2
10
13.540
20
17.900
30
0.0
40
0.220
1
Lavabo
0
TEXT
8
TEXT
62
8
10
13.500
20
17.600
30
0.0
40
0.140
1
2.00 x 1.80 m
0
LINE
8
WALLS
62
7
10
15.200
20
16.900
30
0.0
11
18.700
21
16.900
31
0.0
0
LINE
8
WALLS
62
7
10
18.700
20
16.900
30
0.0
11
18.700
21
19.900
31
0.0
0
LINE
8
WALLS
62
7
10
18.700
20
19.900
30
0.0
11
15.200
21
19.900
31
0.0
0
LINE
8
WALLS
62
7
10
15.200
20
19.900
30
0.0
11
15.200
21
16.900
31
0.0
0
LINE
8
WALLS_INNER
62
8
10
15.268
20
16.967
30
0.0
11
18.633
21
16.967
31
0.0
0
LINE
8
WALLS_INNER
62
8
10
18.633
20
16.967
30
0.0
11
18.633
21
19.832
31
0.0
0
LINE
8
WALLS_INNER
62
8
10
18.633
20
19.832
30
0.0
11
15.268
21
19.832
31
0.0
0
LINE
8
WALLS_INNER
62
8
10
15.268
20
19.832
30
0.0
11
15.268
21
16.967
31
0.0
0
LINE
8
DOORS
62
1
10
16.530
20
19.900
30
0.0
11
17.370
21
19.900
31
0.0
0
ARC
8
DOORS
62
6
10
16.530
20
19.900
30
0.0
40
0.840
50
0.000
51
90.000
0
TEXT
8
TEXT
62
2
10
16.320
20
18.500
30
0.0
40
0.220
1
Area de servico
0
TEXT
8
TEXT
62
8
10
16.250
20
18.200
30
0.0
40
0.140
1
3.50 x 3.00 m
0
LINE
8
WALLS
62
7
10
10.400
20
21.400
30
0.0
11
13.500
21
21.400
31
0.0
0
LINE
8
WALLS
62
7
10
13.500
20
21.400
30
0.0
11
13.500
21
25.400
31
0.0
0
LINE
8
WALLS
62
7
10
13.500
20
25.400
30
0.0
11
10.400
21
25.400
31
0.0
0
LINE
8
WALLS
62
7
10
10.400
20
25.400
30
0.0
11
10.400
21
21.400
31
0.0
0
LINE
8
WALLS_INNER
62
8
10
10.468
20
21.467
30
0.0
11
13.432
21
21.467
31
0.0
0
LINE
8
WALLS_INNER
62
8
10
13.432
20
21.467
30
0.0
11
13.432
21
25.332
31
0.0
0
LINE
8
WALLS_INNER
62
8
10
13.432
20
25.332
30
0.0
11
10.468
21
25.332
31
0.0
0
LINE
8
WALLS_INNER
62
8
10
10.468
20
25.332
30
0.0
11
10.468
21
21.467
31
0.0
0
LINE
8
DOORS
62
1
10
11.575
20
25.400
30
0.0
11
12.325
21
25.400
31
0.0
0
ARC
8
DOORS
62
6
10
11.575
20
25.400
30
0.0
40
0.750
50
0.000
51
90.000
0
LINE
8
STAIRS
62
4
10
10.560
20
21.580
30
0.0
11
13.340
21
21.580
31
0.0
0
LINE
8
STAIRS
62
4
10
10.560
20
25.220
30
0.0
11
13.340
21
25.220
31
0.0
0
LINE
8
STAIRS
62
4
10
10.560
20
21.686
30
0.0
11
13.340
21
21.686
31
0.0
0
LINE
8
STAIRS
62
4
10
10.560
20
21.971
30
0.0
11
13.340
21
21.971
31
0.0
0
LINE
8
STAIRS
62
4
10
10.560
20
22.257
30
0.0
11
13.340
21
22.257
31
0.0
0
LINE
8
STAIRS
62
4
10
10.560
20
22.543
30
0.0
11
13.340
21
22.543
31
0.0
0
LINE
8
STAIRS
62
4
10
10.560
20
22.829
30
0.0
11
13.340
21
22.829
31
0.0
0
LINE
8
STAIRS
62
4
10
10.560
20
23.114
30
0.0
11
13.340
21
23.114
31
0.0
0
LINE
8
STAIRS
62
4
10
10.560
20
23.400
30
0.0
11
13.340
21
23.400
31
0.0
0
LINE
8
STAIRS
62
4
10
10.560
20
23.686
30
0.0
11
13.340
21
23.686
31
0.0
0
LINE
8
STAIRS
62
4
10
10.560
20
23.971
30
0.0
11
13.340
21
23.971
31
0.0
0
LINE
8
STAIRS
62
4
10
10.560
20
24.257
30
0.0
11
13.340
21
24.257
31
0.0
0
LINE
8
STAIRS
62
4
10
10.560
20
24.543
30
0.0
11
13.340
21
24.543
31
0.0
0
LINE
8
STAIRS
62
4
10
10.560
20
24.829
30
0.0
11
13.340
21
24.829
31
0.0
0
LINE
8
STAIRS
62
4
10
10.560
20
25.114
30
0.0
11
13.340
21
25.114
31
0.0
0
TEXT
8
STAIRS
62
1
10
11.454
20
23.400
30
0.0
40
0.180
1
UP
0
TEXT
8
TEXT
62
2
10
11.392
20
23.500
30
0.0
40
0.220
1
Escada
0
TEXT
8
TEXT
62
8
10
11.330
20
23.200
30
0.0
40
0.140
1
3.10 x 4.00 m
0
LINE
8
WALLS
62
7
10
0.000
20
25.700
30
0.0
11
4.500
21
25.700
31
0.0
0
LINE
8
WALLS
62
7
10
4.500
20
25.700
30
0.0
11
4.500
21
29.700
31
0.0
0
LINE
8
WALLS
62
7
10
4.500
20
29.700
30
0.0
11
0.000
21
29.700
31
0.0
0
LINE
8
WALLS
62
7
10
0.000
20
29.700
30
0.0
11
0.000
21
25.700
31
0.0
0
LINE
8
WALLS_INNER
62
8
10
0.068
20
25.767
30
0.0
11
4.433
21
25.767
31
0.0
0
LINE
8
WALLS_INNER
62
8
10
4.433
20
25.767
30
0.0
11
4.433
21
29.633
31
0.0
0
LINE
8
WALLS_INNER
62
8
10
4.433
20
29.633
30
0.0
11
0.068
21
29.633
31
0.0
0
LINE
8
WALLS_INNER
62
8
10
0.068
20
29.633
30
0.0
11
0.068
21
25.767
31
0.0
0
LINE
8
DOORS
62
1
10
1.800
20
29.700
30
0.0
11
2.700
21
29.700
31
0.0
0
ARC
8
DOORS
62
6
10
1.800
20
29.700
30
0.0
40
0.900
50
0.000
51
90.000
0
LINE
8
WINDOWS
62
5
10
1.620
20
29.650
30
0.0
11
2.880
21
29.650
31
0.0
0
LINE
8
FURNITURE
62
6
10
0.350
20
26.100
30
0.0
11
1.950
21
26.100
31
0.0
0
LINE
8
FURNITURE
62
6
10
1.950
20
26.100
30
0.0
11
1.950
21
26.700
31
0.0
0
LINE
8
FURNITURE
62
6
10
1.950
20
26.700
30
0.0
11
0.350
21
26.700
31
0.0
0
LINE
8
FURNITURE
62
6
10
0.350
20
26.700
30
0.0
11
0.350
21
26.100
31
0.0
0
LINE
8
FURNITURE
62
6
10
0.450
20
28.700
30
0.0
11
1.200
21
28.700
31
0.0
0
LINE
8
FURNITURE
62
6
10
1.200
20
28.700
30
0.0
11
1.200
21
29.150
31
0.0
0
LINE
8
FURNITURE
62
6
10
1.200
20
29.150
30
0.0
11
0.450
21
29.150
31
0.0
0
LINE
8
FURNITURE
62
6
10
0.450
20
29.150
30
0.0
11
0.450
21
28.700
31
0.0
0
TEXT
8
TEXT
62
2
10
1.440
20
27.800
30
0.0
40
0.220
1
Sala intima
0
TEXT
8
TEXT
62
8
10
1.350
20
27.500
30
0.0
40
0.140
1
4.50 x 4.00 m
0
LINE
8
WALLS
62
7
10
0.000
20
30.000
30
0.0
11
8.000
21
30.000
31
0.0
0
LINE
8
WALLS
62
7
10
8.000
20
30.000
30
0.0
11
8.000
21
34.000
31
0.0
0
LINE
8
WALLS
62
7
10
8.000
20
34.000
30
0.0
11
0.000
21
34.000
31
0.0
0
LINE
8
WALLS
62
7
10
0.000
20
34.000
30
0.0
11
0.000
21
30.000
31
0.0
0
LINE
8
WALLS_INNER
62
8
10
0.068
20
30.067
30
0.0
11
7.933
21
30.067
31
0.0
0
LINE
8
WALLS_INNER
62
8
10
7.933
20
30.067
30
0.0
11
7.933
21
33.932
31
0.0
0
LINE
8
WALLS_INNER
62
8
10
7.933
20
33.932
30
0.0
11
0.068
21
33.932
31
0.0
0
LINE
8
WALLS_INNER
62
8
10
0.068
20
33.932
30
0.0
11
0.068
21
30.067
31
0.0
0
LINE
8
DOORS
62
1
10
3.550
20
30.000
30
0.0
11
4.450
21
30.000
31
0.0
0
ARC
8
DOORS
62
6
10
4.450
20
30.000
30
0.0
40
0.900
50
180.000
51
270.000
0
LINE
8
WINDOWS
62
5
10
3.300
20
30.050
30
0.0
11
4.700
21
30.050
31
0.0
0
LINE
8
LANDSCAPE
62
4
10
0.350
20
30.350
30
0.0
11
7.650
21
30.350
31
0.0
0
LINE
8
LANDSCAPE
62
4
10
7.650
20
30.350
30
0.0
11
7.650
21
33.650
31
0.0
0
LINE
8
LANDSCAPE
62
4
10
7.650
20
33.650
30
0.0
11
0.350
21
33.650
31
0.0
0
LINE
8
LANDSCAPE
62
4
10
0.350
20
33.650
30
0.0
11
0.350
21
30.350
31
0.0
0
TEXT
8
TEXT
62
2
10
2.560
20
32.100
30
0.0
40
0.220
1
Piscina
0
TEXT
8
TEXT
62
8
10
2.400
20
31.800
30
0.0
40
0.140
1
8.00 x 4.00 m
0
LINE
8
WALLS
62
7
10
8.300
20
30.000
30
0.0
11
14.300
21
30.000
31
0.0
0
LINE
8
WALLS
62
7
10
14.300
20
30.000
30
0.0
11
14.300
21
32.500
31
0.0
0
LINE
8
WALLS
62
7
10
14.300
20
32.500
30
0.0
11
8.300
21
32.500
31
0.0
0
LINE
8
WALLS
62
7
10
8.300
20
32.500
30
0.0
11
8.300
21
30.000
31
0.0
0
LINE
8
WALLS_INNER
62
8
10
8.368
20
30.067
30
0.0
11
14.232
21
30.067
31
0.0
0
LINE
8
WALLS_INNER
62
8
10
14.232
20
30.067
30
0.0
11
14.232
21
32.432
31
0.0
0
LINE
8
WALLS_INNER
62
8
10
14.232
20
32.432
30
0.0
11
8.368
21
32.432
31
0.0
0
LINE
8
WALLS_INNER
62
8
10
8.368
20
32.432
30
0.0
11
8.368
21
30.067
31
0.0
0
LINE
8
DOORS
62
1
10
10.850
20
30.000
30
0.0
11
11.750
21
30.000
31
0.0
0
ARC
8
DOORS
62
6
10
11.750
20
30.000
30
0.0
40
0.900
50
180.000
51
270.000
0
LINE
8
WINDOWS
62
5
10
10.600
20
30.050
30
0.0
11
12.000
21
30.050
31
0.0
0
LINE
8
WINDOWS
62
5
10
10.600
20
32.450
30
0.0
11
12.000
21
32.450
31
0.0
0
TEXT
8
TEXT
62
2
10
10.220
20
31.350
30
0.0
40
0.220
1
Varanda
0
TEXT
8
TEXT
62
8
10
10.100
20
31.050
30
0.0
40
0.140
1
6.00 x 2.50 m
0
LINE
8
CIRCULATION
62
8
10
11.500
20
19.000
30
0.0
11
11.500
21
8.800
31
0.0
0
LINE
8
CIRCULATION
62
8
10
11.500
20
8.800
30
0.0
11
3.000
21
8.800
31
0.0
0
LINE
8
CIRCULATION
62
8
10
11.500
20
19.000
30
0.0
11
11.500
21
8.300
31
0.0
0
LINE
8
CIRCULATION
62
8
10
11.500
20
8.300
30
0.0
11
8.800
21
8.300
31
0.0
0
LINE
8
CIRCULATION
62
8
10
11.500
20
19.000
30
0.0
11
11.500
21
8.050
31
0.0
0
LINE
8
CIRCULATION
62
8
10
11.500
20
8.050
30
0.0
11
13.600
21
8.050
31
0.0
0
LINE
8
CIRCULATION
62
8
10
11.500
20
19.000
30
0.0
11
11.500
21
14.100
31
0.0
0
LINE
8
CIRCULATION
62
8
10
11.500
20
14.100
30
0.0
11
3.000
21
14.100
31
0.0
0
TEXT
8
TEXT
62
3
10
0.000
20
33.600
30
0.0
40
0.320
1
Projeto beta - mansao - PAVIMENTO 2
0
LINE
8
GUIDES
62
9
10
-0.400
20
33.950
30
0.0
11
16.000
21
33.950
31
0.0
0
LINE
8
PLOT
62
8
10
0.000
20
34.500
30
0.0
11
20.000
21
34.500
31
0.0
0
LINE
8
PLOT
62
8
10
20.000
20
34.500
30
0.0
11
20.000
21
64.500
31
0.0
0
LINE
8
PLOT
62
8
10
20.000
20
64.500
30
0.0
11
0.000
21
64.500
31
0.0
0
LINE
8
PLOT
62
8
10
0.000
20
64.500
30
0.0
11
0.000
21
34.500
31
0.0
0
LINE
8
WALLS
62
7
10
0.000
20
34.500
30
0.0
11
2.200
21
34.500
31
0.0
0
LINE
8
WALLS
62
7
10
2.200
20
34.500
30
0.0
11
2.200
21
38.700
31
0.0
0
LINE
8
WALLS
62
7
10
2.200
20
38.700
30
0.0
11
0.000
21
38.700
31
0.0
0
LINE
8
WALLS
62
7
10
0.000
20
38.700
30
0.0
11
0.000
21
34.500
31
0.0
0
LINE
8
WALLS_INNER
62
8
10
0.068
20
34.568
30
0.0
11
2.133
21
34.568
31
0.0
0
LINE
8
WALLS_INNER
62
8
10
2.133
20
34.568
30
0.0
11
2.133
21
38.633
31
0.0
0
LINE
8
WALLS_INNER
62
8
10
2.133
20
38.633
30
0.0
11
0.068
21
38.633
31
0.0
0
LINE
8
WALLS_INNER
62
8
10
0.068
20
38.633
30
0.0
11
0.068
21
34.568
31
0.0
0
LINE
8
DOORS
62
1
10
0.000
20
36.225
30
0.0
11
0.000
21
36.975
31
0.0
0
ARC
8
DOORS
62
6
10
0.000
20
36.225
30
0.0
40
0.750
50
270.000
51
360.000
0
LINE
8
WINDOWS
62
5
10
0.650
20
34.550
30
0.0
11
1.550
21
34.550
31
0.0
0
TEXT
8
TEXT
62
5
10
0.650
20
36.600
30
0.0
40
0.160
1
CIRC
0
TEXT
8
TEXT
62
2
10
0.704
20
36.700
30
0.0
40
0.220
1
Hall Intimo
0
TEXT
8
TEXT
62
8
10
0.660
20
36.400
30
0.0
40
0.140
1
2.20 x 4.20 m
0
LINE
8
WALLS
62
7
10
2.500
20
34.500
30
0.0
11
5.600
21
34.500
31
0.0
0
LINE
8
WALLS
62
7
10
5.600
20
34.500
30
0.0
11
5.600
21
38.500
31
0.0
0
LINE
8
WALLS
62
7
10
5.600
20
38.500
30
0.0
11
2.500
21
38.500
31
0.0
0
LINE
8
WALLS
62
7
10
2.500
20
38.500
30
0.0
11
2.500
21
34.500
31
0.0
0
LINE
8
WALLS_INNER
62
8
10
2.567
20
34.568
30
0.0
11
5.532
21
34.568
31
0.0
0
LINE
8
WALLS_INNER
62
8
10
5.532
20
34.568
30
0.0
11
5.532
21
38.432
31
0.0
0
LINE
8
WALLS_INNER
62
8
10
5.532
20
38.432
30
0.0
11
2.567
21
38.432
31
0.0
0
LINE
8
WALLS_INNER
62
8
10
2.567
20
38.432
30
0.0
11
2.567
21
34.568
31
0.0
0
LINE
8
DOORS
62
1
10
3.675
20
38.500
30
0.0
11
4.425
21
38.500
31
0.0
0
ARC
8
DOORS
62
6
10
3.675
20
38.500
30
0.0
40
0.750
50
0.000
51
90.000
0
LINE
8
WINDOWS
62
5
10
3.600
20
34.550
30
0.0
11
4.500
21
34.550
31
0.0
0
LINE
8
STAIRS
62
4
10
2.660
20
34.680
30
0.0
11
5.440
21
34.680
31
0.0
0
LINE
8
STAIRS
62
4
10
2.660
20
38.320
30
0.0
11
5.440
21
38.320
31
0.0
0
LINE
8
STAIRS
62
4
10
2.660
20
34.786
30
0.0
11
5.440
21
34.786
31
0.0
0
LINE
8
STAIRS
62
4
10
2.660
20
35.071
30
0.0
11
5.440
21
35.071
31
0.0
0
LINE
8
STAIRS
62
4
10
2.660
20
35.357
30
0.0
11
5.440
21
35.357
31
0.0
0
LINE
8
STAIRS
62
4
10
2.660
20
35.643
30
0.0
11
5.440
21
35.643
31
0.0
0
LINE
8
STAIRS
62
4
10
2.660
20
35.929
30
0.0
11
5.440
21
35.929
31
0.0
0
LINE
8
STAIRS
62
4
10
2.660
20
36.214
30
0.0
11
5.440
21
36.214
31
0.0
0
LINE
8
STAIRS
62
4
10
2.660
20
36.500
30
0.0
11
5.440
21
36.500
31
0.0
0
LINE
8
STAIRS
62
4
10
2.660
20
36.786
30
0.0
11
5.440
21
36.786
31
0.0
0
LINE
8
STAIRS
62
4
10
2.660
20
37.071
30
0.0
11
5.440
21
37.071
31
0.0
0
LINE
8
STAIRS
62
4
10
2.660
20
37.357
30
0.0
11
5.440
21
37.357
31
0.0
0
LINE
8
STAIRS
62
4
10
2.660
20
37.643
30
0.0
11
5.440
21
37.643
31
0.0
0
LINE
8
STAIRS
62
4
10
2.660
20
37.929
30
0.0
11
5.440
21
37.929
31
0.0
0
LINE
8
STAIRS
62
4
10
2.660
20
38.214
30
0.0
11
5.440
21
38.214
31
0.0
0
TEXT
8
STAIRS
62
1
10
3.554
20
36.500
30
0.0
40
0.180
1
UP
0
TEXT
8
TEXT
62
2
10
3.492
20
36.600
30
0.0
40
0.220
1
Escada
0
TEXT
8
TEXT
62
8
10
3.430
20
36.300
30
0.0
40
0.140
1
3.10 x 4.00 m
0
LINE
8
WALLS
62
7
10
8.400
20
39.000
30
0.0
11
12.800
21
39.000
31
0.0
0
LINE
8
WALLS
62
7
10
12.800
20
39.000
30
0.0
11
12.800
21
42.800
31
0.0
0
LINE
8
WALLS
62
7
10
12.800
20
42.800
30
0.0
11
8.400
21
42.800
31
0.0
0
LINE
8
WALLS
62
7
10
8.400
20
42.800
30
0.0
11
8.400
21
39.000
31
0.0
0
LINE
8
WALLS_INNER
62
8
10
8.468
20
39.068
30
0.0
11
12.732
21
39.068
31
0.0
0
LINE
8
WALLS_INNER
62
8
10
12.732
20
39.068
30
0.0
11
12.732
21
42.732
31
0.0
0
LINE
8
WALLS_INNER
62
8
10
12.732
20
42.732
30
0.0
11
8.468
21
42.732
31
0.0
0
LINE
8
WALLS_INNER
62
8
10
8.468
20
42.732
30
0.0
11
8.468
21
39.068
31
0.0
0
LINE
8
DOORS
62
1
10
10.150
20
42.800
30
0.0
11
11.050
21
42.800
31
0.0
0
ARC
8
DOORS
62
6
10
10.150
20
42.800
30
0.0
40
0.900
50
0.000
51
90.000
0
LINE
8
FURNITURE
62
6
10
8.750
20
39.400
30
0.0
11
10.350
21
39.400
31
0.0
0
LINE
8
FURNITURE
62
6
10
10.350
20
39.400
30
0.0
11
10.350
21
40.000
31
0.0
0
LINE
8
FURNITURE
62
6
10
10.350
20
40.000
30
0.0
11
8.750
21
40.000
31
0.0
0
LINE
8
FURNITURE
62
6
10
8.750
20
40.000
30
0.0
11
8.750
21
39.400
31
0.0
0
LINE
8
FURNITURE
62
6
10
8.850
20
41.800
30
0.0
11
9.600
21
41.800
31
0.0
0
LINE
8
FURNITURE
62
6
10
9.600
20
41.800
30
0.0
11
9.600
21
42.250
31
0.0
0
LINE
8
FURNITURE
62
6
10
9.600
20
42.250
30
0.0
11
8.850
21
42.250
31
0.0
0
LINE
8
FURNITURE
62
6
10
8.850
20
42.250
30
0.0
11
8.850
21
41.800
31
0.0
0
TEXT
8
TEXT
62
2
10
9.808
20
41.000
30
0.0
40
0.220
1
Sala Intima
0
TEXT
8
TEXT
62
8
10
9.720
20
40.700
30
0.0
40
0.140
1
4.40 x 3.80 m
0
LINE
8
WALLS
62
7
10
0.000
20
43.100
30
0.0
11
7.000
21
43.100
31
0.0
0
LINE
8
WALLS
62
7
10
7.000
20
43.100
30
0.0
11
7.000
21
49.100
31
0.0
0
LINE
8
WALLS
62
7
10
7.000
20
49.100
30
0.0
11
0.000
21
49.100
31
0.0
0
LINE
8
WALLS
62
7
10
0.000
20
49.100
30
0.0
11
0.000
21
43.100
31
0.0
0
LINE
8
WALLS_INNER
62
8
10
0.068
20
43.168
30
0.0
11
6.933
21
43.168
31
0.0
0
LINE
8
WALLS_INNER
62
8
10
6.933
20
43.168
30
0.0
11
6.933
21
49.032
31
0.0
0
LINE
8
WALLS_INNER
62
8
10
6.933
20
49.032
30
0.0
11
0.068
21
49.032
31
0.0
0
LINE
8
WALLS_INNER
62
8
10
0.068
20
49.032
30
0.0
11
0.068
21
43.168
31
0.0
0
LINE
8
DOORS
62
1
10
3.050
20
49.100
30
0.0
11
3.950
21
49.100
31
0.0
0
ARC
8
DOORS
62
6
10
3.050
20
49.100
30
0.0
40
0.900
50
0.000
51
90.000
0
LINE
8
FURNITURE
62
6
10
0.350
20
43.450
30
0.0
11
2.450
21
43.450
31
0.0
0
LINE
8
FURNITURE
62
6
10
2.450
20
43.450
30
0.0
11
2.450
21
44.950
31
0.0
0
LINE
8
FURNITURE
62
6
10
2.450
20
44.950
30
0.0
11
0.350
21
44.950
31
0.0
0
LINE
8
FURNITURE
62
6
10
0.350
20
44.950
30
0.0
11
0.350
21
43.450
31
0.0
0
LINE
8
FURNITURE
62
8
10
0.450
20
43.550
30
0.0
11
0.900
21
43.550
31
0.0
0
LINE
8
FURNITURE
62
8
10
0.900
20
43.550
30
0.0
11
0.900
21
44.850
31
0.0
0
LINE
8
FURNITURE
62
8
10
0.900
20
44.850
30
0.0
11
0.450
21
44.850
31
0.0
0
LINE
8
FURNITURE
62
8
10
0.450
20
44.850
30
0.0
11
0.450
21
43.550
31
0.0
0
TEXT
8
TEXT
62
2
10
2.240
20
46.200
30
0.0
40
0.220
1
Suite master
0
TEXT
8
TEXT
62
8
10
2.100
20
45.900
30
0.0
40
0.140
1
7.00 x 6.00 m
0
LINE
8
WALLS
62
7
10
7.300
20
43.100
30
0.0
11
10.300
21
43.100
31
0.0
0
LINE
8
WALLS
62
7
10
10.300
20
43.100
30
0.0
11
10.300
21
45.600
31
0.0
0
LINE
8
WALLS
62
7
10
10.300
20
45.600
30
0.0
11
7.300
21
45.600
31
0.0
0
LINE
8
WALLS
62
7
10
7.300
20
45.600
30
0.0
11
7.300
21
43.100
31
0.0
0
LINE
8
WALLS_INNER
62
8
10
7.367
20
43.168
30
0.0
11
10.232
21
43.168
31
0.0
0
LINE
8
WALLS_INNER
62
8
10
10.232
20
43.168
30
0.0
11
10.232
21
45.532
31
0.0
0
LINE
8
WALLS_INNER
62
8
10
10.232
20
45.532
30
0.0
11
7.367
21
45.532
31
0.0
0
LINE
8
WALLS_INNER
62
8
10
7.367
20
45.532
30
0.0
11
7.367
21
43.168
31
0.0
0
LINE
8
DOORS
62
1
10
8.425
20
45.600
30
0.0
11
9.175
21
45.600
31
0.0
0
ARC
8
DOORS
62
6
10
8.425
20
45.600
30
0.0
40
0.750
50
0.000
51
90.000
0
TEXT
8
TEXT
62
2
10
8.260
20
44.450
30
0.0
40
0.220
1
Closet
0
TEXT
8
TEXT
62
8
10
8.200
20
44.150
30
0.0
40
0.140
1
3.00 x 2.50 m
0
LINE
8
WALLS
62
7
10
7.300
20
45.900
30
0.0
11
9.700
21
45.900
31
0.0
0
LINE
8
WALLS
62
7
10
9.700
20
45.900
30
0.0
11
9.700
21
48.100
31
0.0
0
LINE
8
WALLS
62
7
10
9.700
20
48.100
30
0.0
11
7.300
21
48.100
31
0.0
0
LINE
8
WALLS
62
7
10
7.300
20
48.100
30
0.0
11
7.300
21
45.900
31
0.0
0
LINE
8
WALLS_INNER
62
8
10
7.367
20
45.968
30
0.0
11
9.632
21
45.968
31
0.0
0
LINE
8
WALLS_INNER
62
8
10
9.632
20
45.968
30
0.0
11
9.632
21
48.032
31
0.0
0
LINE
8
WALLS_INNER
62
8
10
9.632
20
48.032
30
0.0
11
7.367
21
48.032
31
0.0
0
LINE
8
WALLS_INNER
62
8
10
7.367
20
48.032
30
0.0
11
7.367
21
45.968
31
0.0
0
LINE
8
DOORS
62
1
10
8.125
20
48.100
30
0.0
11
8.875
21
48.100
31
0.0
0
ARC
8
DOORS
62
6
10
8.125
20
48.100
30
0.0
40
0.750
50
0.000
51
90.000
0
CIRCLE
8
FIXTURES
62
2
10
7.750
20
46.350
30
0.0
40
0.180
0
LINE
8
FIXTURES
62
4
10
8.950
20
46.250
30
0.0
11
9.450
21
46.250
31
0.0
0
LINE
8
FIXTURES
62
4
10
9.450
20
46.250
30
0.0
11
9.450
21
46.750
31
0.0
0
LINE
8
FIXTURES
62
4
10
9.450
20
46.750
30
0.0
11
8.950
21
46.750
31
0.0
0
LINE
8
FIXTURES
62
4
10
8.950
20
46.750
30
0.0
11
8.950
21
46.250
31
0.0
0
TEXT
8
TEXT
62
2
10
8.068
20
47.100
30
0.0
40
0.220
1
Banheiro 1
0
TEXT
8
TEXT
62
8
10
8.020
20
46.800
30
0.0
40
0.140
1
2.40 x 2.20 m
0
LINE
8
WALLS
62
7
10
12.800
20
43.100
30
0.0
11
17.300
21
43.100
31
0.0
0
LINE
8
WALLS
62
7
10
17.300
20
43.100
30
0.0
11
17.300
21
47.100
31
0.0
0
LINE
8
WALLS
62
7
10
17.300
20
47.100
30
0.0
11
12.800
21
47.100
31
0.0
0
LINE
8
WALLS
62
7
10
12.800
20
47.100
30
0.0
11
12.800
21
43.100
31
0.0
0
LINE
8
WALLS_INNER
62
8
10
12.868
20
43.168
30
0.0
11
17.233
21
43.168
31
0.0
0
LINE
8
WALLS_INNER
62
8
10
17.233
20
43.168
30
0.0
11
17.233
21
47.032
31
0.0
0
LINE
8
WALLS_INNER
62
8
10
17.233
20
47.032
30
0.0
11
12.868
21
47.032
31
0.0
0
LINE
8
WALLS_INNER
62
8
10
12.868
20
47.032
30
0.0
11
12.868
21
43.168
31
0.0
0
LINE
8
DOORS
62
1
10
14.600
20
47.100
30
0.0
11
15.500
21
47.100
31
0.0
0
ARC
8
DOORS
62
6
10
14.600
20
47.100
30
0.0
40
0.900
50
0.000
51
90.000
0
LINE
8
FURNITURE
62
6
10
13.150
20
43.450
30
0.0
11
15.250
21
43.450
31
0.0
0
LINE
8
FURNITURE
62
6
10
15.250
20
43.450
30
0.0
11
15.250
21
44.950
31
0.0
0
LINE
8
FURNITURE
62
6
10
15.250
20
44.950
30
0.0
11
13.150
21
44.950
31
0.0
0
LINE
8
FURNITURE
62
6
10
13.150
20
44.950
30
0.0
11
13.150
21
43.450
31
0.0
0
LINE
8
FURNITURE
62
8
10
13.250
20
43.550
30
0.0
11
13.700
21
43.550
31
0.0
0
LINE
8
FURNITURE
62
8
10
13.700
20
43.550
30
0.0
11
13.700
21
44.850
31
0.0
0
LINE
8
FURNITURE
62
8
10
13.700
20
44.850
30
0.0
11
13.250
21
44.850
31
0.0
0
LINE
8
FURNITURE
62
8
10
13.250
20
44.850
30
0.0
11
13.250
21
43.550
31
0.0
0
TEXT
8
TEXT
62
2
10
14.240
20
45.200
30
0.0
40
0.220
1
Suite
0
TEXT
8
TEXT
62
8
10
14.150
20
44.900
30
0.0
40
0.140
1
4.50 x 4.00 m
0
LINE
8
WALLS
62
7
10
17.600
20
43.100
30
0.0
11
20.000
21
43.100
31
0.0
0
LINE
8
WALLS
62
7
10
20.000
20
43.100
30
0.0
11
20.000
21
45.300
31
0.0
0
LINE
8
WALLS
62
7
10
20.000
20
45.300
30
0.0
11
17.600
21
45.300
31
0.0
0
LINE
8
WALLS
62
7
10
17.600
20
45.300
30
0.0
11
17.600
21
43.100
31
0.0
0
LINE
8
WALLS_INNER
62
8
10
17.668
20
43.168
30
0.0
11
19.933
21
43.168
31
0.0
0
LINE
8
WALLS_INNER
62
8
10
19.933
20
43.168
30
0.0
11
19.933
21
45.233
31
0.0
0
LINE
8
WALLS_INNER
62
8
10
19.933
20
45.233
30
0.0
11
17.668
21
45.233
31
0.0
0
LINE
8
WALLS_INNER
62
8
10
17.668
20
45.233
30
0.0
11
17.668
21
43.168
31
0.0
0
LINE
8
DOORS
62
1
10
18.425
20
45.300
30
0.0
11
19.175
21
45.300
31
0.0
0
ARC
8
DOORS
62
6
10
18.425
20
45.300
30
0.0
40
0.750
50
0.000
51
90.000
0
LINE
8
WINDOWS
62
5
10
19.950
20
43.750
30
0.0
11
19.950
21
44.650
31
0.0
0
CIRCLE
8
FIXTURES
62
2
10
18.050
20
43.550
30
0.0
40
0.180
0
LINE
8
FIXTURES
62
4
10
19.250
20
43.450
30
0.0
11
19.750
21
43.450
31
0.0
0
LINE
8
FIXTURES
62
4
10
19.750
20
43.450
30
0.0
11
19.750
21
43.950
31
0.0
0
LINE
8
FIXTURES
62
4
10
19.750
20
43.950
30
0.0
11
19.250
21
43.950
31
0.0
0
LINE
8
FIXTURES
62
4
10
19.250
20
43.950
30
0.0
11
19.250
21
43.450
31
0.0
0
TEXT
8
TEXT
62
2
10
18.368
20
44.300
30
0.0
40
0.220
1
Banheiro 2
0
TEXT
8
TEXT
62
8
10
18.320
20
44.000
30
0.0
40
0.140
1
2.40 x 2.20 m
0
LINE
8
WALLS
62
7
10
0.000
20
49.400
30
0.0
11
4.500
21
49.400
31
0.0
0
LINE
8
WALLS
62
7
10
4.500
20
49.400
30
0.0
11
4.500
21
53.400
31
0.0
0
LINE
8
WALLS
62
7
10
4.500
20
53.400
30
0.0
11
0.000
21
53.400
31
0.0
0
LINE
8
WALLS
62
7
10
0.000
20
53.400
30
0.0
11
0.000
21
49.400
31
0.0
0
LINE
8
WALLS_INNER
62
8
10
0.068
20
49.468
30
0.0
11
4.433
21
49.468
31
0.0
0
LINE
8
WALLS_INNER
62
8
10
4.433
20
49.468
30
0.0
11
4.433
21
53.332
31
0.0
0
LINE
8
WALLS_INNER
62
8
10
4.433
20
53.332
30
0.0
11
0.068
21
53.332
31
0.0
0
LINE
8
WALLS_INNER
62
8
10
0.068
20
53.332
30
0.0
11
0.068
21
49.468
31
0.0
0
LINE
8
DOORS
62
1
10
1.800
20
53.400
30
0.0
11
2.700
21
53.400
31
0.0
0
ARC
8
DOORS
62
6
10
1.800
20
53.400
30
0.0
40
0.900
50
0.000
51
90.000
0
LINE
8
FURNITURE
62
6
10
0.350
20
49.750
30
0.0
11
2.450
21
49.750
31
0.0
0
LINE
8
FURNITURE
62
6
10
2.450
20
49.750
30
0.0
11
2.450
21
51.250
31
0.0
0
LINE
8
FURNITURE
62
6
10
2.450
20
51.250
30
0.0
11
0.350
21
51.250
31
0.0
0
LINE
8
FURNITURE
62
6
10
0.350
20
51.250
30
0.0
11
0.350
21
49.750
31
0.0
0
LINE
8
FURNITURE
62
8
10
0.450
20
49.850
30
0.0
11
0.900
21
49.850
31
0.0
0
LINE
8
FURNITURE
62
8
10
0.900
20
49.850
30
0.0
11
0.900
21
51.150
31
0.0
0
LINE
8
FURNITURE
62
8
10
0.900
20
51.150
30
0.0
11
0.450
21
51.150
31
0.0
0
LINE
8
FURNITURE
62
8
10
0.450
20
51.150
30
0.0
11
0.450
21
49.850
31
0.0
0
TEXT
8
TEXT
62
2
10
1.440
20
51.500
30
0.0
40
0.220
1
Suite 1
0
TEXT
8
TEXT
62
8
10
1.350
20
51.200
30
0.0
40
0.140
1
4.50 x 4.00 m
0
LINE
8
WALLS
62
7
10
4.800
20
49.400
30
0.0
11
7.200
21
49.400
31
0.0
0
LINE
8
WALLS
62
7
10
7.200
20
49.400
30
0.0
11
7.200
21
51.600
31
0.0
0
LINE
8
WALLS
62
7
10
7.200
20
51.600
30
0.0
11
4.800
21
51.600
31
0.0
0
LINE
8
WALLS
62
7
10
4.800
20
51.600
30
0.0
11
4.800
21
49.400
31
0.0
0
LINE
8
WALLS_INNER
62
8
10
4.867
20
49.468
30
0.0
11
7.132
21
49.468
31
0.0
0
LINE
8
WALLS_INNER
62
8
10
7.132
20
49.468
30
0.0
11
7.132
21
51.532
31
0.0
0
LINE
8
WALLS_INNER
62
8
10
7.132
20
51.532
30
0.0
11
4.867
21
51.532
31
0.0
0
LINE
8
WALLS_INNER
62
8
10
4.867
20
51.532
30
0.0
11
4.867
21
49.468
31
0.0
0
LINE
8
DOORS
62
1
10
5.625
20
51.600
30
0.0
11
6.375
21
51.600
31
0.0
0
ARC
8
DOORS
62
6
10
5.625
20
51.600
30
0.0
40
0.750
50
0.000
51
90.000
0
CIRCLE
8
FIXTURES
62
2
10
5.250
20
49.850
30
0.0
40
0.180
0
LINE
8
FIXTURES
62
4
10
6.450
20
49.750
30
0.0
11
6.950
21
49.750
31
0.0
0
LINE
8
FIXTURES
62
4
10
6.950
20
49.750
30
0.0
11
6.950
21
50.250
31
0.0
0
LINE
8
FIXTURES
62
4
10
6.950
20
50.250
30
0.0
11
6.450
21
50.250
31
0.0
0
LINE
8
FIXTURES
62
4
10
6.450
20
50.250
30
0.0
11
6.450
21
49.750
31
0.0
0
TEXT
8
TEXT
62
2
10
5.568
20
50.600
30
0.0
40
0.220
1
Banheiro 3
0
TEXT
8
TEXT
62
8
10
5.520
20
50.300
30
0.0
40
0.140
1
2.40 x 2.20 m
0
LINE
8
WALLS
62
7
10
15.500
20
47.400
30
0.0
11
20.000
21
47.400
31
0.0
0
LINE
8
WALLS
62
7
10
20.000
20
47.400
30
0.0
11
20.000
21
51.400
31
0.0
0
LINE
8
WALLS
62
7
10
20.000
20
51.400
30
0.0
11
15.500
21
51.400
31
0.0
0
LINE
8
WALLS
62
7
10
15.500
20
51.400
30
0.0
11
15.500
21
47.400
31
0.0
0
LINE
8
WALLS_INNER
62
8
10
15.568
20
47.468
30
0.0
11
19.933
21
47.468
31
0.0
0
LINE
8
WALLS_INNER
62
8
10
19.933
20
47.468
30
0.0
11
19.933
21
51.332
31
0.0
0
LINE
8
WALLS_INNER
62
8
10
19.933
20
51.332
30
0.0
11
15.568
21
51.332
31
0.0
0
LINE
8
WALLS_INNER
62
8
10
15.568
20
51.332
30
0.0
11
15.568
21
47.468
31
0.0
0
LINE
8
DOORS
62
1
10
17.300
20
51.400
30
0.0
11
18.200
21
51.400
31
0.0
0
ARC
8
DOORS
62
6
10
17.300
20
51.400
30
0.0
40
0.900
50
0.000
51
90.000
0
LINE
8
WINDOWS
62
5
10
19.950
20
48.770
30
0.0
11
19.950
21
50.030
31
0.0
0
LINE
8
FURNITURE
62
6
10
15.850
20
47.750
30
0.0
11
17.950
21
47.750
31
0.0
0
LINE
8
FURNITURE
62
6
10
17.950
20
47.750
30
0.0
11
17.950
21
49.250
31
0.0
0
LINE
8
FURNITURE
62
6
10
17.950
20
49.250
30
0.0
11
15.850
21
49.250
31
0.0
0
LINE
8
FURNITURE
62
6
10
15.850
20
49.250
30
0.0
11
15.850
21
47.750
31
0.0
0
LINE
8
FURNITURE
62
8
10
15.950
20
47.850
30
0.0
11
16.400
21
47.850
31
0.0
0
LINE
8
FURNITURE
62
8
10
16.400
20
47.850
30
0.0
11
16.400
21
49.150
31
0.0
0
LINE
8
FURNITURE
62
8
10
16.400
20
49.150
30
0.0
11
15.950
21
49.150
31
0.0
0
LINE
8
FURNITURE
62
8
10
15.950
20
49.150
30
0.0
11
15.950
21
47.850
31
0.0
0
TEXT
8
TEXT
62
2
10
16.940
20
49.500
30
0.0
40
0.220
1
Suite 2
0
TEXT
8
TEXT
62
8
10
16.850
20
49.200
30
0.0
40
0.140
1
4.50 x 4.00 m
0
LINE
8
WALLS
62
7
10
0.000
20
53.700
30
0.0
11
3.500
21
53.700
31
0.0
0
LINE
8
WALLS
62
7
10
3.500
20
53.700
30
0.0
11
3.500
21
57.200
31
0.0
0
LINE
8
WALLS
62
7
10
3.500
20
57.200
30
0.0
11
0.000
21
57.200
31
0.0
0
LINE
8
WALLS
62
7
10
0.000
20
57.200
30
0.0
11
0.000
21
53.700
31
0.0
0
LINE
8
WALLS_INNER
62
8
10
0.068
20
53.768
30
0.0
11
3.433
21
53.768
31
0.0
0
LINE
8
WALLS_INNER
62
8
10
3.433
20
53.768
30
0.0
11
3.433
21
57.133
31
0.0
0
LINE
8
WALLS_INNER
62
8
10
3.433
20
57.133
30
0.0
11
0.068
21
57.133
31
0.0
0
LINE
8
WALLS_INNER
62
8
10
0.068
20
57.133
30
0.0
11
0.068
21
53.768
31
0.0
0
LINE
8
DOORS
62
1
10
1.330
20
57.200
30
0.0
11
2.170
21
57.200
31
0.0
0
ARC
8
DOORS
62
6
10
1.330
20
57.200
30
0.0
40
0.840
50
0.000
51
90.000
0
LINE
8
FURNITURE
62
6
10
0.350
20
54.050
30
0.0
11
2.450
21
54.050
31
0.0
0
LINE
8
FURNITURE
62
6
10
2.450
20
54.050
30
0.0
11
2.450
21
55.550
31
0.0
0
LINE
8
FURNITURE
62
6
10
2.450
20
55.550
30
0.0
11
0.350
21
55.550
31
0.0
0
LINE
8
FURNITURE
62
6
10
0.350
20
55.550
30
0.0
11
0.350
21
54.050
31
0.0
0
LINE
8
FURNITURE
62
8
10
0.450
20
54.150
30
0.0
11
0.900
21
54.150
31
0.0
0
LINE
8
FURNITURE
62
8
10
0.900
20
54.150
30
0.0
11
0.900
21
55.450
31
0.0
0
LINE
8
FURNITURE
62
8
10
0.900
20
55.450
30
0.0
11
0.450
21
55.450
31
0.0
0
LINE
8
FURNITURE
62
8
10
0.450
20
55.450
30
0.0
11
0.450
21
54.150
31
0.0
0
TEXT
8
TEXT
62
2
10
1.120
20
55.550
30
0.0
40
0.220
1
Quarto 1
0
TEXT
8
TEXT
62
8
10
1.050
20
55.250
30
0.0
40
0.140
1
3.50 x 3.50 m
0
LINE
8
WALLS
62
7
10
16.500
20
51.700
30
0.0
11
20.000
21
51.700
31
0.0
0
LINE
8
WALLS
62
7
10
20.000
20
51.700
30
0.0
11
20.000
21
55.200
31
0.0
0
LINE
8
WALLS
62
7
10
20.000
20
55.200
30
0.0
11
16.500
21
55.200
31
0.0
0
LINE
8
WALLS
62
7
10
16.500
20
55.200
30
0.0
11
16.500
21
51.700
31
0.0
0
LINE
8
WALLS_INNER
62
8
10
16.567
20
51.768
30
0.0
11
19.933
21
51.768
31
0.0
0
LINE
8
WALLS_INNER
62
8
10
19.933
20
51.768
30
0.0
11
19.933
21
55.133
31
0.0
0
LINE
8
WALLS_INNER
62
8
10
19.933
20
55.133
30
0.0
11
16.567
21
55.133
31
0.0
0
LINE
8
WALLS_INNER
62
8
10
16.567
20
55.133
30
0.0
11
16.567
21
51.768
31
0.0
0
LINE
8
DOORS
62
1
10
17.830
20
55.200
30
0.0
11
18.670
21
55.200
31
0.0
0
ARC
8
DOORS
62
6
10
17.830
20
55.200
30
0.0
40
0.840
50
0.000
51
90.000
0
LINE
8
WINDOWS
62
5
10
19.950
20
52.960
30
0.0
11
19.950
21
53.940
31
0.0
0
LINE
8
FURNITURE
62
6
10
16.850
20
52.050
30
0.0
11
18.950
21
52.050
31
0.0
0
LINE
8
FURNITURE
62
6
10
18.950
20
52.050
30
0.0
11
18.950
21
53.550
31
0.0
0
LINE
8
FURNITURE
62
6
10
18.950
20
53.550
30
0.0
11
16.850
21
53.550
31
0.0
0
LINE
8
FURNITURE
62
6
10
16.850
20
53.550
30
0.0
11
16.850
21
52.050
31
0.0
0
LINE
8
FURNITURE
62
8
10
16.950
20
52.150
30
0.0
11
17.400
21
52.150
31
0.0
0
LINE
8
FURNITURE
62
8
10
17.400
20
52.150
30
0.0
11
17.400
21
53.450
31
0.0
0
LINE
8
FURNITURE
62
8
10
17.400
20
53.450
30
0.0
11
16.950
21
53.450
31
0.0
0
LINE
8
FURNITURE
62
8
10
16.950
20
53.450
30
0.0
11
16.950
21
52.150
31
0.0
0
TEXT
8
TEXT
62
2
10
17.620
20
53.550
30
0.0
40
0.220
1
Quarto 2
0
TEXT
8
TEXT
62
8
10
17.550
20
53.250
30
0.0
40
0.140
1
3.50 x 3.50 m
0
LINE
8
CIRCULATION
62
8
10
1.100
20
36.600
30
0.0
11
1.100
21
40.900
31
0.0
0
LINE
8
CIRCULATION
62
8
10
1.100
20
40.900
30
0.0
11
10.600
21
40.900
31
0.0
0
LINE
8
CIRCULATION
62
8
10
1.100
20
36.600
30
0.0
11
1.100
21
46.100
31
0.0
0
LINE
8
CIRCULATION
62
8
10
1.100
20
46.100
30
0.0
11
3.500
21
46.100
31
0.0
0
LINE
8
CIRCULATION
62
8
10
1.100
20
36.600
30
0.0
11
1.100
21
45.100
31
0.0
0
LINE
8
CIRCULATION
62
8
10
1.100
20
45.100
30
0.0
11
15.050
21
45.100
31
0.0
0
LINE
8
CIRCULATION
62
8
10
1.100
20
36.600
30
0.0
11
1.100
21
51.400
31
0.0
0
LINE
8
CIRCULATION
62
8
10
1.100
20
51.400
30
0.0
11
2.250
21
51.400
31
0.0
0
ENDSEC
0
EOF
