0
SECTION
2
HEADER
0
ENDSEC
0
SECTION
2
TABLES
0
ENDSEC
0
SECTION
2
ENTITIES
0
TEXT
8
TEXT
62
2
10
0.000
20
-1.600
30
0.0
40
0.380
1
Projeto beta - mansao
0
TEXT
8
TEXT
62
8
10
0.000
20
-1.100
30
0.0
40
0.200
1
Tipo: mansao | Pavimentos: 2
0
TEXT
8
TEXT
62
3
10
0.000
20
-0.900
30
0.0
40
0.320
1
Projeto beta - mansao - TERREO
0
LINE
8
GUIDES
62
9
10
-0.400
20
-0.550
30
0.0
11
16.000
21
-0.550
31
0.0
0
LINE
8
OUTLINE
62
3
10
-0.800
20
-0.800
30
0.0
11
27.100
21
-0.800
31
0.0
0
LINE
8
OUTLINE
62
3
10
27.100
20
-0.800
30
0.0
11
27.100
21
34.300
31
0.0
0
LINE
8
OUTLINE
62
3
10
27.100
20
34.300
30
0.0
11
1.400
21
34.300
31
0.0
0
LINE
8
OUTLINE
62
3
10
1.400
20
34.300
30
0.0
11
-0.800
21
32.100
31
0.0
0
LINE
8
OUTLINE
62
3
10
-0.800
20
32.100
30
0.0
11
-0.800
21
-0.800
31
0.0
0
LINE
8
LANDSCAPE
62
2
10
0.350
20
23.200
30
0.0
11
-0.250
21
21.200
31
0.0
0
LINE
8
LANDSCAPE
62
2
10
7.650
20
23.200
30
0.0
11
8.250
21
21.200
31
0.0
0
LINE
8
LANDSCAPE
62
2
10
-0.250
20
21.200
30
0.0
11
8.250
21
21.200
31
0.0
0
LINE
8
LANDSCAPE
62
3
10
3.550
20
0.000
30
0.0
11
3.750
21
-1.350
31
0.0
0
LINE
8
LANDSCAPE
62
3
10
4.450
20
0.000
30
0.0
11
4.250
21
-1.350
31
0.0
0
LINE
8
LANDSCAPE
62
3
10
3.750
20
-1.350
30
0.0
11
4.250
21
-1.350
31
0.0
0
CIRCLE
8
LANDSCAPE
62
3
10
-0.150
20
-0.850
30
0.0
40
0.220
0
CIRCLE
8
LANDSCAPE
62
3
10
0.050
20
-0.770
30
0.0
40
0.160
0
CIRCLE
8
LANDSCAPE
62
3
10
2.000
20
-1.050
30
0.0
40
0.220
0
CIRCLE
8
LANDSCAPE
62
3
10
2.200
20
-0.970
30
0.0
40
0.160
0
CIRCLE
8
LANDSCAPE
62
3
10
4.400
20
-0.900
30
0.0
40
0.220
0
CIRCLE
8
LANDSCAPE
62
3
10
4.600
20
-0.820
30
0.0
40
0.160
0
LINE
8
PLOT
62
8
10
0.000
20
0.000
30
0.0
11
30.000
21
0.000
31
0.0
0
LINE
8
PLOT
62
8
10
30.000
20
0.000
30
0.0
11
30.000
21
40.000
31
0.0
0
LINE
8
PLOT
62
8
10
30.000
20
40.000
30
0.0
11
0.000
21
40.000
31
0.0
0
LINE
8
PLOT
62
8
10
0.000
20
40.000
30
0.0
11
0.000
21
0.000
31
0.0
0
LINE
8
WALLS
62
7
10
0.000
20
0.000
30
0.0
11
8.000
21
0.000
31
0.0
0
LINE
8
WALLS
62
7
10
8.000
20
0.000
30
0.0
11
8.000
21
7.000
31
0.0
0
LINE
8
WALLS
62
7
10
8.000
20
7.000
30
0.0
11
0.000
21
7.000
31
0.0
0
LINE
8
WALLS
62
7
10
0.000
20
7.000
30
0.0
11
0.000
21
0.000
31
0.0
0
LINE
8
WALLS_INNER
62
8
10
0.068
20
0.068
30
0.0
11
7.933
21
0.068
31
0.0
0
LINE
8
WALLS_INNER
62
8
10
7.933
20
0.068
30
0.0
11
7.933
21
6.933
31
0.0
0
LINE
8
WALLS_INNER
62
8
10
7.933
20
6.933
30
0.0
11
0.068
21
6.933
31
0.0
0
LINE
8
WALLS_INNER
62
8
10
0.068
20
6.933
30
0.0
11
0.068
21
0.068
31
0.0
0
LINE
8
DOORS
62
1
10
3.550
20
7.000
30
0.0
11
4.450
21
7.000
31
0.0
0
ARC
8
DOORS
62
6
10
3.550
20
7.000
30
0.0
40
0.900
50
0.000
51
90.000
0
LINE
8
WINDOWS
62
5
10
3.300
20
0.050
30
0.0
11
4.700
21
0.050
31
0.0
0
LINE
8
FURNITURE
62
6
10
0.350
20
0.400
30
0.0
11
1.950
21
0.400
31
0.0
0
LINE
8
FURNITURE
62
6
10
1.950
20
0.400
30
0.0
11
1.950
21
1.000
31
0.0
0
LINE
8
FURNITURE
62
6
10
1.950
20
1.000
30
0.0
11
0.350
21
1.000
31
0.0
0
LINE
8
FURNITURE
62
6
10
0.350
20
1.000
30
0.0
11
0.350
21
0.400
31
0.0
0
LINE
8
FURNITURE
62
6
10
0.450
20
6.000
30
0.0
11
1.200
21
6.000
31
0.0
0
LINE
8
FURNITURE
62
6
10
1.200
20
6.000
30
0.0
11
1.200
21
6.450
31
0.0
0
LINE
8
FURNITURE
62
6
10
1.200
20
6.450
30
0.0
11
0.450
21
6.450
31
0.0
0
LINE
8
FURNITURE
62
6
10
0.450
20
6.450
30
0.0
11
0.450
21
6.000
31
0.0
0
TEXT
8
TEXT
62
2
10
2.560
20
3.600
30
0.0
40
0.220
1
Sala de estar
0
TEXT
8
TEXT
62
8
10
2.400
20
3.300
30
0.0
40
0.140
1
8.00 x 7.00 m
0
LINE
8
WALLS
62
7
10
8.300
20
0.000
30
0.0
11
13.300
21
0.000
31
0.0
0
LINE
8
WALLS
62
7
10
13.300
20
0.000
30
0.0
11
13.300
21
5.000
31
0.0
0
LINE
8
WALLS
62
7
10
13.300
20
5.000
30
0.0
11
8.300
21
5.000
31
0.0
0
LINE
8
WALLS
62
7
10
8.300
20
5.000
30
0.0
11
8.300
21
0.000
31
0.0
0
LINE
8
WALLS_INNER
62
8
10
8.368
20
0.068
30
0.0
11
13.232
21
0.068
31
0.0
0
LINE
8
WALLS_INNER
62
8
10
13.232
20
0.068
30
0.0
11
13.232
21
4.933
31
0.0
0
LINE
8
WALLS_INNER
62
8
10
13.232
20
4.933
30
0.0
11
8.368
21
4.933
31
0.0
0
LINE
8
WALLS_INNER
62
8
10
8.368
20
4.933
30
0.0
11
8.368
21
0.068
31
0.0
0
LINE
8
DOORS
62
1
10
10.350
20
5.000
30
0.0
11
11.250
21
5.000
31
0.0
0
ARC
8
DOORS
62
6
10
10.350
20
5.000
30
0.0
40
0.900
50
0.000
51
90.000
0
LINE
8
WINDOWS
62
5
10
10.100
20
0.050
30
0.0
11
11.500
21
0.050
31
0.0
0
CIRCLE
8
FURNITURE
62
2
10
9.900
20
1.500
30
0.0
40
0.500
0
CIRCLE
8
FURNITURE
62
2
10
8.900
20
0.650
30
0.0
40
0.140
0
CIRCLE
8
FURNITURE
62
2
10
12.700
20
0.650
30
0.0
40
0.140
0
CIRCLE
8
FURNITURE
62
2
10
8.900
20
4.350
30
0.0
40
0.140
0
CIRCLE
8
FURNITURE
62
2
10
12.700
20
4.350
30
0.0
40
0.140
0
TEXT
8
TEXT
62
2
10
9.900
20
2.600
30
0.0
40
0.220
1
Sala de jantar
0
TEXT
8
TEXT
62
8
10
9.800
20
2.300
30
0.0
40
0.140
1
5.00 x 5.00 m
0
LINE
8
WALLS
62
7
10
8.300
20
5.300
30
0.0
11
12.300
21
5.300
31
0.0
0
LINE
8
WALLS
62
7
10
12.300
20
5.300
30
0.0
11
12.300
21
8.800
31
0.0
0
LINE
8
WALLS
62
7
10
12.300
20
8.800
30
0.0
11
8.300
21
8.800
31
0.0
0
LINE
8
WALLS
62
7
10
8.300
20
8.800
30
0.0
11
8.300
21
5.300
31
0.0
0
LINE
8
WALLS_INNER
62
8
10
8.368
20
5.367
30
0.0
11
12.232
21
5.367
31
0.0
0
LINE
8
WALLS_INNER
62
8
10
12.232
20
5.367
30
0.0
11
12.232
21
8.732
31
0.0
0
LINE
8
WALLS_INNER
62
8
10
12.232
20
8.732
30
0.0
11
8.368
21
8.732
31
0.0
0
LINE
8
WALLS_INNER
62
8
10
8.368
20
8.732
30
0.0
11
8.368
21
5.367
31
0.0
0
LINE
8
DOORS
62
1
10
9.850
20
8.800
30
0.0
11
10.750
21
8.800
31
0.0
0
ARC
8
DOORS
62
6
10
9.850
20
8.800
30
0.0
40
0.900
50
0.000
51
90.000
0
LINE
8
FIXTURES
62
3
10
8.600
20
5.650
30
0.0
11
12.000
21
5.650
31
0.0
0
LINE
8
FIXTURES
62
3
10
8.600
20
6.150
30
0.0
11
12.000
21
6.150
31
0.0
0
CIRCLE
8
FIXTURES
62
1
10
10.300
20
5.880
30
0.0
40
0.120
0
TEXT
8
TEXT
62
2
10
9.580
20
7.150
30
0.0
40
0.220
1
Cozinha
0
TEXT
8
TEXT
62
8
10
9.500
20
6.850
30
0.0
40
0.140
1
4.00 x 3.50 m
0
LINE
8
WALLS
62
7
10
0.000
20
9.100
30
0.0
11
6.000
21
9.100
31
0.0
0
LINE
8
WALLS
62
7
10
6.000
20
9.100
30
0.0
11
6.000
21
14.100
31
0.0
0
LINE
8
WALLS
62
7
10
6.000
20
14.100
30
0.0
11
0.000
21
14.100
31
0.0
0
LINE
8
WALLS
62
7
10
0.000
20
14.100
30
0.0
11
0.000
21
9.100
31
0.0
0
LINE
8
WALLS_INNER
62
8
10
0.068
20
9.168
30
0.0
11
5.933
21
9.168
31
0.0
0
LINE
8
WALLS_INNER
62
8
10
5.933
20
9.168
30
0.0
11
5.933
21
14.033
31
0.0
0
LINE
8
WALLS_INNER
62
8
10
5.933
20
14.033
30
0.0
11
0.068
21
14.033
31
0.0
0
LINE
8
WALLS_INNER
62
8
10
0.068
20
14.033
30
0.0
11
0.068
21
9.168
31
0.0
0
LINE
8
DOORS
62
1
10
2.550
20
14.100
30
0.0
11
3.450
21
14.100
31
0.0
0
ARC
8
DOORS
62
6
10
2.550
20
14.100
30
0.0
40
0.900
50
0.000
51
90.000
0
LINE
8
FIXTURES
62
3
10
0.300
20
9.450
30
0.0
11
5.700
21
9.450
31
0.0
0
LINE
8
FIXTURES
62
3
10
0.300
20
9.950
30
0.0
11
5.700
21
9.950
31
0.0
0
CIRCLE
8
FIXTURES
62
1
10
3.000
20
9.680
30
0.0
40
0.120
0
TEXT
8
TEXT
62
2
10
1.920
20
11.700
30
0.0
40
0.220
1
Cozinha gourmet
0
TEXT
8
TEXT
62
8
10
1.800
20
11.400
30
0.0
40
0.140
1
6.00 x 5.00 m
0
LINE
8
WALLS
62
7
10
6.300
20
9.100
30
0.0
11
10.300
21
9.100
31
0.0
0
LINE
8
WALLS
62
7
10
10.300
20
9.100
30
0.0
11
10.300
21
13.100
31
0.0
0
LINE
8
WALLS
62
7
10
10.300
20
13.100
30
0.0
11
6.300
21
13.100
31
0.0
0
LINE
8
WALLS
62
7
10
6.300
20
13.100
30
0.0
11
6.300
21
9.100
31
0.0
0
LINE
8
WALLS_INNER
62
8
10
6.367
20
9.168
30
0.0
11
10.232
21
9.168
31
0.0
0
LINE
8
WALLS_INNER
62
8
10
10.232
20
9.168
30
0.0
11
10.232
21
13.033
31
0.0
0
LINE
8
WALLS_INNER
62
8
10
10.232
20
13.033
30
0.0
11
6.367
21
13.033
31
0.0
0
LINE
8
WALLS_INNER
62
8
10
6.367
20
13.033
30
0.0
11
6.367
21
9.168
31
0.0
0
LINE
8
DOORS
62
1
10
7.850
20
13.100
30
0.0
11
8.750
21
13.100
31
0.0
0
ARC
8
DOORS
62
6
10
7.850
20
13.100
30
0.0
40
0.900
50
0.000
51
90.000
0
TEXT
8
TEXT
62
2
10
7.580
20
11.200
30
0.0
40
0.220
1
Escritorio
0
TEXT
8
TEXT
62
8
10
7.500
20
10.900
30
0.0
40
0.140
1
4.00 x 4.00 m
0
LINE
8
WALLS
62
7
10
13.200
20
14.400
30
0.0
11
15.200
21
14.400
31
0.0
0
LINE
8
WALLS
62
7
10
15.200
20
14.400
30
0.0
11
15.200
21
16.400
31
0.0
0
LINE
8
WALLS
62
7
10
15.200
20
16.400
30
0.0
11
13.200
21
16.400
31
0.0
0
LINE
8
WALLS
62
7
10
13.200
20
16.400
30
0.0
11
13.200
21
14.400
31
0.0
0
LINE
8
WALLS_INNER
62
8
10
13.268
20
14.468
30
0.0
11
15.132
21
14.468
31
0.0
0
LINE
8
WALLS_INNER
62
8
10
15.132
20
14.468
30
0.0
11
15.132
21
16.333
31
0.0
0
LINE
8
WALLS_INNER
62
8
10
15.132
20
16.333
30
0.0
11
13.268
21
16.333
31
0.0
0
LINE
8
WALLS_INNER
62
8
10
13.268
20
16.333
30
0.0
11
13.268
21
14.468
31
0.0
0
LINE
8
DOORS
62
1
10
13.825
20
16.400
30
0.0
11
14.575
21
16.400
31
0.0
0
ARC
8
DOORS
62
6
10
13.825
20
16.400
30
0.0
40
0.750
50
0.000
51
90.000
0
CIRCLE
8
FIXTURES
62
2
10
13.650
20
14.850
30
0.0
40
0.180
0
LINE
8
FIXTURES
62
4
10
14.450
20
14.750
30
0.0
11
14.950
21
14.750
31
0.0
0
LINE
8
FIXTURES
62
4
10
14.950
20
14.750
30
0.0
11
14.950
21
15.250
31
0.0
0
LINE
8
FIXTURES
62
4
10
14.950
20
15.250
30
0.0
11
14.450
21
15.250
31
0.0
0
LINE
8
FIXTURES
62
4
10
14.450
20
15.250
30
0.0
11
14.450
21
14.750
31
0.0
0
TEXT
8
TEXT
62
2
10
13.840
20
15.500
30
0.0
40
0.220
1
Lavabo
0
TEXT
8
TEXT
62
8
10
13.800
20
15.200
30
0.0
40
0.140
1
2.00 x 2.00 m
0
LINE
8
WALLS
62
7
10
15.500
20
14.400
30
0.0
11
19.500
21
14.400
31
0.0
0
LINE
8
WALLS
62
7
10
19.500
20
14.400
30
0.0
11
19.500
21
17.400
31
0.0
0
LINE
8
WALLS
62
7
10
19.500
20
17.400
30
0.0
11
15.500
21
17.400
31
0.0
0
LINE
8
WALLS
62
7
10
15.500
20
17.400
30
0.0
11
15.500
21
14.400
31
0.0
0
LINE
8
WALLS_INNER
62
8
10
15.568
20
14.468
30
0.0
11
19.433
21
14.468
31
0.0
0
LINE
8
WALLS_INNER
62
8
10
19.433
20
14.468
30
0.0
11
19.433
21
17.333
31
0.0
0
LINE
8
WALLS_INNER
62
8
10
19.433
20
17.333
30
0.0
11
15.568
21
17.333
31
0.0
0
LINE
8
WALLS_INNER
62
8
10
15.568
20
17.333
30
0.0
11
15.568
21
14.468
31
0.0
0
LINE
8
DOORS
62
1
10
17.050
20
17.400
30
0.0
11
17.950
21
17.400
31
0.0
0
ARC
8
DOORS
62
6
10
17.050
20
17.400
30
0.0
40
0.900
50
0.000
51
90.000
0
TEXT
8
TEXT
62
2
10
16.780
20
16.000
30
0.0
40
0.220
1
Lavanderia
0
TEXT
8
TEXT
62
8
10
16.700
20
15.700
30
0.0
40
0.140
1
4.00 x 3.00 m
0
LINE
8
WALLS
62
7
10
19.800
20
14.400
30
0.0
11
22.800
21
14.400
31
0.0
0
LINE
8
WALLS
62
7
10
22.800
20
14.400
30
0.0
11
22.800
21
16.400
31
0.0
0
LINE
8
WALLS
62
7
10
22.800
20
16.400
30
0.0
11
19.800
21
16.400
31
0.0
0
LINE
8
WALLS
62
7
10
19.800
20
16.400
30
0.0
11
19.800
21
14.400
31
0.0
0
LINE
8
WALLS_INNER
62
8
10
19.867
20
14.468
30
0.0
11
22.733
21
14.468
31
0.0
0
LINE
8
WALLS_INNER
62
8
10
22.733
20
14.468
30
0.0
11
22.733
21
16.333
31
0.0
0
LINE
8
WALLS_INNER
62
8
10
22.733
20
16.333
30
0.0
11
19.867
21
16.333
31
0.0
0
LINE
8
WALLS_INNER
62
8
10
19.867
20
16.333
30
0.0
11
19.867
21
14.468
31
0.0
0
LINE
8
DOORS
62
1
10
20.925
20
16.400
30
0.0
11
21.675
21
16.400
31
0.0
0
ARC
8
DOORS
62
6
10
20.925
20
16.400
30
0.0
40
0.750
50
0.000
51
90.000
0
TEXT
8
TEXT
62
2
10
20.760
20
15.500
30
0.0
40
0.220
1
Deposito
0
TEXT
8
TEXT
62
8
10
20.700
20
15.200
30
0.0
40
0.140
1
3.00 x 2.00 m
0
LINE
8
WALLS
62
7
10
23.100
20
14.400
30
0.0
11
26.300
21
14.400
31
0.0
0
LINE
8
WALLS
62
7
10
26.300
20
14.400
30
0.0
11
26.300
21
18.600
31
0.0
0
LINE
8
WALLS
62
7
10
26.300
20
18.600
30
0.0
11
23.100
21
18.600
31
0.0
0
LINE
8
WALLS
62
7
10
23.100
20
18.600
30
0.0
11
23.100
21
14.400
31
0.0
0
LINE
8
WALLS_INNER
62
8
10
23.168
20
14.468
30
0.0
11
26.233
21
14.468
31
0.0
0
LINE
8
WALLS_INNER
62
8
10
26.233
20
14.468
30
0.0
11
26.233
21
18.533
31
0.0
0
LINE
8
WALLS_INNER
62
8
10
26.233
20
18.533
30
0.0
11
23.168
21
18.533
31
0.0
0
LINE
8
WALLS_INNER
62
8
10
23.168
20
18.533
30
0.0
11
23.168
21
14.468
31
0.0
0
LINE
8
DOORS
62
1
10
24.316
20
18.600
30
0.0
11
25.084
21
18.600
31
0.0
0
ARC
8
DOORS
62
6
10
24.316
20
18.600
30
0.0
40
0.768
50
0.000
51
90.000
0
LINE
8
STAIRS
62
4
10
23.260
20
14.580
30
0.0
11
26.140
21
14.580
31
0.0
0
LINE
8
STAIRS
62
4
10
23.260
20
18.420
30
0.0
11
26.140
21
18.420
31
0.0
0
LINE
8
STAIRS
62
4
10
23.260
20
14.680
30
0.0
11
26.140
21
14.680
31
0.0
0
LINE
8
STAIRS
62
4
10
23.260
20
14.960
30
0.0
11
26.140
21
14.960
31
0.0
0
LINE
8
STAIRS
62
4
10
23.260
20
15.240
30
0.0
11
26.140
21
15.240
31
0.0
0
LINE
8
STAIRS
62
4
10
23.260
20
15.520
30
0.0
11
26.140
21
15.520
31
0.0
0
LINE
8
STAIRS
62
4
10
23.260
20
15.800
30
0.0
11
26.140
21
15.800
31
0.0
0
LINE
8
STAIRS
62
4
10
23.260
20
16.080
30
0.0
11
26.140
21
16.080
31
0.0
0
LINE
8
STAIRS
62
4
10
23.260
20
16.360
30
0.0
11
26.140
21
16.360
31
0.0
0
LINE
8
STAIRS
62
4
10
23.260
20
16.640
30
0.0
11
26.140
21
16.640
31
0.0
0
LINE
8
STAIRS
62
4
10
23.260
20
16.920
30
0.0
11
26.140
21
16.920
31
0.0
0
LINE
8
STAIRS
62
4
10
23.260
20
17.200
30
0.0
11
26.140
21
17.200
31
0.0
0
LINE
8
STAIRS
62
4
10
23.260
20
17.480
30
0.0
11
26.140
21
17.480
31
0.0
0
LINE
8
STAIRS
62
4
10
23.260
20
17.760
30
0.0
11
26.140
21
17.760
31
0.0
0
LINE
8
STAIRS
62
4
10
23.260
20
18.040
30
0.0
11
26.140
21
18.040
31
0.0
0
LINE
8
STAIRS
62
4
10
23.260
20
18.320
30
0.0
11
26.140
21
18.320
31
0.0
0
TEXT
8
STAIRS
62
1
10
24.188
20
16.500
30
0.0
40
0.180
1
UP
0
TEXT
8
TEXT
62
2
10
24.124
20
16.600
30
0.0
40
0.220
1
Escada
0
TEXT
8
TEXT
62
8
10
24.060
20
16.300
30
0.0
40
0.140
1
3.20 x 4.20 m
0
LINE
8
WALLS
62
7
10
0.000
20
18.900
30
0.0
11
8.000
21
18.900
31
0.0
0
LINE
8
WALLS
62
7
10
8.000
20
18.900
30
0.0
11
8.000
21
22.900
31
0.0
0
LINE
8
WALLS
62
7
10
8.000
20
22.900
30
0.0
11
0.000
21
22.900
31
0.0
0
LINE
8
WALLS
62
7
10
0.000
20
22.900
30
0.0
11
0.000
21
18.900
31
0.0
0
LINE
8
WALLS_INNER
62
8
10
0.068
20
18.968
30
0.0
11
7.933
21
18.968
31
0.0
0
LINE
8
WALLS_INNER
62
8
10
7.933
20
18.968
30
0.0
11
7.933
21
22.833
31
0.0
0
LINE
8
WALLS_INNER
62
8
10
7.933
20
22.833
30
0.0
11
0.068
21
22.833
31
0.0
0
LINE
8
WALLS_INNER
62
8
10
0.068
20
22.833
30
0.0
11
0.068
21
18.968
31
0.0
0
LINE
8
DOORS
62
1
10
3.550
20
18.900
30
0.0
11
4.450
21
18.900
31
0.0
0
ARC
8
DOORS
62
6
10
4.450
20
18.900
30
0.0
40
0.900
50
180.000
51
270.000
0
LINE
8
WINDOWS
62
5
10
3.300
20
18.950
30
0.0
11
4.700
21
18.950
31
0.0
0
TEXT
8
TEXT
62
2
10
2.560
20
21.000
30
0.0
40
0.220
1
Espaco gourmet
0
TEXT
8
TEXT
62
8
10
2.400
20
20.700
30
0.0
40
0.140
1
8.00 x 4.00 m
0
LINE
8
WALLS
62
7
10
0.000
20
23.200
30
0.0
11
8.000
21
23.200
31
0.0
0
LINE
8
WALLS
62
7
10
8.000
20
23.200
30
0.0
11
8.000
21
29.200
31
0.0
0
LINE
8
WALLS
62
7
10
8.000
20
29.200
30
0.0
11
0.000
21
29.200
31
0.0
0
LINE
8
WALLS
62
7
10
0.000
20
29.200
30
0.0
11
0.000
21
23.200
31
0.0
0
LINE
8
WALLS_INNER
62
8
10
0.068
20
23.268
30
0.0
11
7.933
21
23.268
31
0.0
0
LINE
8
WALLS_INNER
62
8
10
7.933
20
23.268
30
0.0
11
7.933
21
29.133
31
0.0
0
LINE
8
WALLS_INNER
62
8
10
7.933
20
29.133
30
0.0
11
0.068
21
29.133
31
0.0
0
LINE
8
WALLS_INNER
62
8
10
0.068
20
29.133
30
0.0
11
0.068
21
23.268
31
0.0
0
LINE
8
DOORS
62
1
10
3.550
20
23.200
30
0.0
11
4.450
21
23.200
31
0.0
0
ARC
8
DOORS
62
6
10
4.450
20
23.200
30
0.0
40
0.900
50
180.000
51
270.000
0
LINE
8
WINDOWS
62
5
10
3.300
20
23.250
30
0.0
11
4.700
21
23.250
31
0.0
0
LINE
8
FURNITURE
62
5
10
0.500
20
23.750
30
0.0
11
2.600
21
23.750
31
0.0
0
LINE
8
FURNITURE
62
5
10
2.600
20
23.750
30
0.0
11
2.600
21
27.650
31
0.0
0
LINE
8
FURNITURE
62
5
10
2.600
20
27.650
30
0.0
11
0.500
21
27.650
31
0.0
0
LINE
8
FURNITURE
62
5
10
0.500
20
27.650
30
0.0
11
0.500
21
23.750
31
0.0
0
LINE
8
FURNITURE
62
5
10
5.400
20
23.750
30
0.0
11
7.500
21
23.750
31
0.0
0
LINE
8
FURNITURE
62
5
10
7.500
20
23.750
30
0.0
11
7.500
21
27.650
31
0.0
0
LINE
8
FURNITURE
62
5
10
7.500
20
27.650
30
0.0
11
5.400
21
27.650
31
0.0
0
LINE
8
FURNITURE
62
5
10
5.400
20
27.650
30
0.0
11
5.400
21
23.750
31
0.0
0
TEXT
8
TEXT
62
2
10
2.560
20
26.300
30
0.0
40
0.220
1
Garagem
0
TEXT
8
TEXT
62
8
10
2.400
20
26.000
30
0.0
40
0.140
1
8.00 x 6.00 m
0
LINE
8
WALLS
62
7
10
0.000
20
29.500
30
0.0
11
10.000
21
29.500
31
0.0
0
LINE
8
WALLS
62
7
10
10.000
20
29.500
30
0.0
11
10.000
21
33.500
31
0.0
0
LINE
8
WALLS
62
7
10
10.000
20
33.500
30
0.0
11
0.000
21
33.500
31
0.0
0
LINE
8
WALLS
62
7
10
0.000
20
33.500
30
0.0
11
0.000
21
29.500
31
0.0
0
LINE
8
WALLS_INNER
62
8
10
0.068
20
29.568
30
0.0
11
9.932
21
29.568
31
0.0
0
LINE
8
WALLS_INNER
62
8
10
9.932
20
29.568
30
0.0
11
9.932
21
33.432
31
0.0
0
LINE
8
WALLS_INNER
62
8
10
9.932
20
33.432
30
0.0
11
0.068
21
33.432
31
0.0
0
LINE
8
WALLS_INNER
62
8
10
0.068
20
33.432
30
0.0
11
0.068
21
29.568
31
0.0
0
LINE
8
DOORS
62
1
10
4.550
20
29.500
30
0.0
11
5.450
21
29.500
31
0.0
0
ARC
8
DOORS
62
6
10
5.450
20
29.500
30
0.0
40
0.900
50
180.000
51
270.000
0
LINE
8
WINDOWS
62
5
10
4.300
20
29.550
30
0.0
11
5.700
21
29.550
31
0.0
0
LINE
8
LANDSCAPE
62
4
10
0.350
20
29.850
30
0.0
11
9.650
21
29.850
31
0.0
0
LINE
8
LANDSCAPE
62
4
10
9.650
20
29.850
30
0.0
11
9.650
21
33.150
31
0.0
0
LINE
8
LANDSCAPE
62
4
10
9.650
20
33.150
30
0.0
11
0.350
21
33.150
31
0.0
0
LINE
8
LANDSCAPE
62
4
10
0.350
20
33.150
30
0.0
11
0.350
21
29.850
31
0.0
0
TEXT
8
TEXT
62
2
10
3.200
20
31.600
30
0.0
40
0.220
1
Piscina
0
TEXT
8
TEXT
62
8
10
3.000
20
31.300
30
0.0
40
0.140
1
10.00 x 4.00 m
0
TEXT
8
TEXT
62
3
10
0.000
20
43.600
30
0.0
40
0.320
1
Projeto beta - mansao - PAVIMENTO 2
0
LINE
8
GUIDES
62
9
10
-0.400
20
43.950
30
0.0
11
16.000
21
43.950
31
0.0
0
LINE
8
PLOT
62
8
10
0.000
20
44.500
30
0.0
11
30.000
21
44.500
31
0.0
0
LINE
8
PLOT
62
8
10
30.000
20
44.500
30
0.0
11
30.000
21
84.500
31
0.0
0
LINE
8
PLOT
62
8
10
30.000
20
84.500
30
0.0
11
0.000
21
84.500
31
0.0
0
LINE
8
PLOT
62
8
10
0.000
20
84.500
30
0.0
11
0.000
21
44.500
31
0.0
0
LINE
8
WALLS
62
7
10
0.000
20
44.500
30
0.0
11
7.000
21
44.500
31
0.0
0
LINE
8
WALLS
62
7
10
7.000
20
44.500
30
0.0
11
7.000
21
50.500
31
0.0
0
LINE
8
WALLS
62
7
10
7.000
20
50.500
30
0.0
11
0.000
21
50.500
31
0.0
0
LINE
8
WALLS
62
7
10
0.000
20
50.500
30
0.0
11
0.000
21
44.500
31
0.0
0
LINE
8
WALLS_INNER
62
8
10
0.068
20
44.568
30
0.0
11
6.933
21
44.568
31
0.0
0
LINE
8
WALLS_INNER
62
8
10
6.933
20
44.568
30
0.0
11
6.933
21
50.432
31
0.0
0
LINE
8
WALLS_INNER
62
8
10
6.933
20
50.432
30
0.0
11
0.068
21
50.432
31
0.0
0
LINE
8
WALLS_INNER
62
8
10
0.068
20
50.432
30
0.0
11
0.068
21
44.568
31
0.0
0
LINE
8
DOORS
62
1
10
3.050
20
50.500
30
0.0
11
3.950
21
50.500
31
0.0
0
ARC
8
DOORS
62
6
10
3.050
20
50.500
30
0.0
40
0.900
50
0.000
51
90.000
0
LINE
8
WINDOWS
62
5
10
2.800
20
44.550
30
0.0
11
4.200
21
44.550
31
0.0
0
LINE
8
FURNITURE
62
6
10
0.350
20
44.850
30
0.0
11
2.450
21
44.850
31
0.0
0
LINE
8
FURNITURE
62
6
10
2.450
20
44.850
30
0.0
11
2.450
21
46.350
31
0.0
0
LINE
8
FURNITURE
62
6
10
2.450
20
46.350
30
0.0
11
0.350
21
46.350
31
0.0
0
LINE
8
FURNITURE
62
6
10
0.350
20
46.350
30
0.0
11
0.350
21
44.850
31
0.0
0
LINE
8
FURNITURE
62
8
10
0.450
20
44.950
30
0.0
11
0.900
21
44.950
31
0.0
0
LINE
8
FURNITURE
62
8
10
0.900
20
44.950
30
0.0
11
0.900
21
46.250
31
0.0
0
LINE
8
FURNITURE
62
8
10
0.900
20
46.250
30
0.0
11
0.450
21
46.250
31
0.0
0
LINE
8
FURNITURE
62
8
10
0.450
20
46.250
30
0.0
11
0.450
21
44.950
31
0.0
0
TEXT
8
TEXT
62
2
10
2.240
20
47.600
30
0.0
40
0.220
1
Suite master
0
TEXT
8
TEXT
62
8
10
2.100
20
47.300
30
0.0
40
0.140
1
7.00 x 6.00 m
0
LINE
8
WALLS
62
7
10
7.300
20
44.500
30
0.0
11
10.300
21
44.500
31
0.0
0
LINE
8
WALLS
62
7
10
10.300
20
44.500
30
0.0
11
10.300
21
47.500
31
0.0
0
LINE
8
WALLS
62
7
10
10.300
20
47.500
30
0.0
11
7.300
21
47.500
31
0.0
0
LINE
8
WALLS
62
7
10
7.300
20
47.500
30
0.0
11
7.300
21
44.500
31
0.0
0
LINE
8
WALLS_INNER
62
8
10
7.367
20
44.568
30
0.0
11
10.232
21
44.568
31
0.0
0
LINE
8
WALLS_INNER
62
8
10
10.232
20
44.568
30
0.0
11
10.232
21
47.432
31
0.0
0
LINE
8
WALLS_INNER
62
8
10
10.232
20
47.432
30
0.0
11
7.367
21
47.432
31
0.0
0
LINE
8
WALLS_INNER
62
8
10
7.367
20
47.432
30
0.0
11
7.367
21
44.568
31
0.0
0
LINE
8
DOORS
62
1
10
8.425
20
47.500
30
0.0
11
9.175
21
47.500
31
0.0
0
ARC
8
DOORS
62
6
10
8.425
20
47.500
30
0.0
40
0.750
50
0.000
51
90.000
0
LINE
8
WINDOWS
62
5
10
8.350
20
44.550
30
0.0
11
9.250
21
44.550
31
0.0
0
TEXT
8
TEXT
62
2
10
8.260
20
46.100
30
0.0
40
0.220
1
Closet
0
TEXT
8
TEXT
62
8
10
8.200
20
45.800
30
0.0
40
0.140
1
3.00 x 3.00 m
0
LINE
8
WALLS
62
7
10
7.300
20
47.800
30
0.0
11
10.300
21
47.800
31
0.0
0
LINE
8
WALLS
62
7
10
10.300
20
47.800
30
0.0
11
10.300
21
50.800
31
0.0
0
LINE
8
WALLS
62
7
10
10.300
20
50.800
30
0.0
11
7.300
21
50.800
31
0.0
0
LINE
8
WALLS
62
7
10
7.300
20
50.800
30
0.0
11
7.300
21
47.800
31
0.0
0
LINE
8
WALLS_INNER
62
8
10
7.367
20
47.867
30
0.0
11
10.232
21
47.867
31
0.0
0
LINE
8
WALLS_INNER
62
8
10
10.232
20
47.867
30
0.0
11
10.232
21
50.732
31
0.0
0
LINE
8
WALLS_INNER
62
8
10
10.232
20
50.732
30
0.0
11
7.367
21
50.732
31
0.0
0
LINE
8
WALLS_INNER
62
8
10
7.367
20
50.732
30
0.0
11
7.367
21
47.867
31
0.0
0
LINE
8
DOORS
62
1
10
8.425
20
50.800
30
0.0
11
9.175
21
50.800
31
0.0
0
ARC
8
DOORS
62
6
10
8.425
20
50.800
30
0.0
40
0.750
50
0.000
51
90.000
0
CIRCLE
8
FIXTURES
62
2
10
7.750
20
48.250
30
0.0
40
0.180
0
LINE
8
FIXTURES
62
4
10
9.550
20
48.150
30
0.0
11
10.050
21
48.150
31
0.0
0
LINE
8
FIXTURES
62
4
10
10.050
20
48.150
30
0.0
11
10.050
21
48.650
31
0.0
0
LINE
8
FIXTURES
62
4
10
10.050
20
48.650
30
0.0
11
9.550
21
48.650
31
0.0
0
LINE
8
FIXTURES
62
4
10
9.550
20
48.650
30
0.0
11
9.550
21
48.150
31
0.0
0
TEXT
8
TEXT
62
2
10
8.260
20
49.400
30
0.0
40
0.220
1
Banheiro
0
TEXT
8
TEXT
62
8
10
8.200
20
49.100
30
0.0
40
0.140
1
3.00 x 3.00 m
0
LINE
8
WALLS
62
7
10
10.600
20
44.500
30
0.0
11
15.100
21
44.500
31
0.0
0
LINE
8
WALLS
62
7
10
15.100
20
44.500
30
0.0
11
15.100
21
48.500
31
0.0
0
LINE
8
WALLS
62
7
10
15.100
20
48.500
30
0.0
11
10.600
21
48.500
31
0.0
0
LINE
8
WALLS
62
7
10
10.600
20
48.500
30
0.0
11
10.600
21
44.500
31
0.0
0
LINE
8
WALLS_INNER
62
8
10
10.668
20
44.568
30
0.0
11
15.033
21
44.568
31
0.0
0
LINE
8
WALLS_INNER
62
8
10
15.033
20
44.568
30
0.0
11
15.033
21
48.432
31
0.0
0
LINE
8
WALLS_INNER
62
8
10
15.033
20
48.432
30
0.0
11
10.668
21
48.432
31
0.0
0
LINE
8
WALLS_INNER
62
8
10
10.668
20
48.432
30
0.0
11
10.668
21
44.568
31
0.0
0
LINE
8
DOORS
62
1
10
12.400
20
48.500
30
0.0
11
13.300
21
48.500
31
0.0
0
ARC
8
DOORS
62
6
10
12.400
20
48.500
30
0.0
40
0.900
50
0.000
51
90.000
0
LINE
8
WINDOWS
62
5
10
12.220
20
44.550
30
0.0
11
13.480
21
44.550
31
0.0
0
LINE
8
FURNITURE
62
6
10
10.950
20
44.850
30
0.0
11
13.050
21
44.850
31
0.0
0
LINE
8
FURNITURE
62
6
10
13.050
20
44.850
30
0.0
11
13.050
21
46.350
31
0.0
0
LINE
8
FURNITURE
62
6
10
13.050
20
46.350
30
0.0
11
10.950
21
46.350
31
0.0
0
LINE
8
FURNITURE
62
6
10
10.950
20
46.350
30
0.0
11
10.950
21
44.850
31
0.0
0
LINE
8
FURNITURE
62
8
10
11.050
20
44.950
30
0.0
11
11.500
21
44.950
31
0.0
0
LINE
8
FURNITURE
62
8
10
11.500
20
44.950
30
0.0
11
11.500
21
46.250
31
0.0
0
LINE
8
FURNITURE
62
8
10
11.500
20
46.250
30
0.0
11
11.050
21
46.250
31
0.0
0
LINE
8
FURNITURE
62
8
10
11.050
20
46.250
30
0.0
11
11.050
21
44.950
31
0.0
0
TEXT
8
TEXT
62
2
10
12.040
20
46.600
30
0.0
40
0.220
1
Suite 1
0
TEXT
8
TEXT
62
8
10
11.950
20
46.300
30
0.0
40
0.140
1
4.50 x 4.00 m
0
LINE
8
WALLS
62
7
10
15.400
20
44.500
30
0.0
11
19.900
21
44.500
31
0.0
0
LINE
8
WALLS
62
7
10
19.900
20
44.500
30
0.0
11
19.900
21
48.500
31
0.0
0
LINE
8
WALLS
62
7
10
19.900
20
48.500
30
0.0
11
15.400
21
48.500
31
0.0
0
LINE
8
WALLS
62
7
10
15.400
20
48.500
30
0.0
11
15.400
21
44.500
31
0.0
0
LINE
8
WALLS_INNER
62
8
10
15.468
20
44.568
30
0.0
11
19.833
21
44.568
31
0.0
0
LINE
8
WALLS_INNER
62
8
10
19.833
20
44.568
30
0.0
11
19.833
21
48.432
31
0.0
0
LINE
8
WALLS_INNER
62
8
10
19.833
20
48.432
30
0.0
11
15.468
21
48.432
31
0.0
0
LINE
8
WALLS_INNER
62
8
10
15.468
20
48.432
30
0.0
11
15.468
21
44.568
31
0.0
0
LINE
8
DOORS
62
1
10
17.200
20
48.500
30
0.0
11
18.100
21
48.500
31
0.0
0
ARC
8
DOORS
62
6
10
17.200
20
48.500
30
0.0
40
0.900
50
0.000
51
90.000
0
LINE
8
WINDOWS
62
5
10
17.020
20
44.550
30
0.0
11
18.280
21
44.550
31
0.0
0
LINE
8
FURNITURE
62
6
10
15.750
20
44.850
30
0.0
11
17.850
21
44.850
31
0.0
0
LINE
8
FURNITURE
62
6
10
17.850
20
44.850
30
0.0
11
17.850
21
46.350
31
0.0
0
LINE
8
FURNITURE
62
6
10
17.850
20
46.350
30
0.0
11
15.750
21
46.350
31
0.0
0
LINE
8
FURNITURE
62
6
10
15.750
20
46.350
30
0.0
11
15.750
21
44.850
31
0.0
0
LINE
8
FURNITURE
62
8
10
15.850
20
44.950
30
0.0
11
16.300
21
44.950
31
0.0
0
LINE
8
FURNITURE
62
8
10
16.300
20
44.950
30
0.0
11
16.300
21
46.250
31
0.0
0
LINE
8
FURNITURE
62
8
10
16.300
20
46.250
30
0.0
11
15.850
21
46.250
31
0.0
0
LINE
8
FURNITURE
62
8
10
15.850
20
46.250
30
0.0
11
15.850
21
44.950
31
0.0
0
TEXT
8
TEXT
62
2
10
16.840
20
46.600
30
0.0
40
0.220
1
Suite 2
0
TEXT
8
TEXT
62
8
10
16.750
20
46.300
30
0.0
40
0.140
1
4.50 x 4.00 m
0
LINE
8
WALLS
62
7
10
20.200
20
44.500
30
0.0
11
24.700
21
44.500
31
0.0
0
LINE
8
WALLS
62
7
10
24.700
20
44.500
30
0.0
11
24.700
21
48.500
31
0.0
0
LINE
8
WALLS
62
7
10
24.700
20
48.500
30
0.0
11
20.200
21
48.500
31
0.0
0
LINE
8
WALLS
62
7
10
20.200
20
48.500
30
0.0
11
20.200
21
44.500
31
0.0
0
LINE
8
WALLS_INNER
62
8
10
20.268
20
44.568
30
0.0
11
24.633
21
44.568
31
0.0
0
LINE
8
WALLS_INNER
62
8
10
24.633
20
44.568
30
0.0
11
24.633
21
48.432
31
0.0
0
LINE
8
WALLS_INNER
62
8
10
24.633
20
48.432
30
0.0
11
20.268
21
48.432
31
0.0
0
LINE
8
WALLS_INNER
62
8
10
20.268
20
48.432
30
0.0
11
20.268
21
44.568
31
0.0
0
LINE
8
DOORS
62
1
10
22.000
20
48.500
30
0.0
11
22.900
21
48.500
31
0.0
0
ARC
8
DOORS
62
6
10
22.000
20
48.500
30
0.0
40
0.900
50
0.000
51
90.000
0
LINE
8
WINDOWS
62
5
10
21.820
20
44.550
30
0.0
11
23.080
21
44.550
31
0.0
0
LINE
8
FURNITURE
62
6
10
20.550
20
44.850
30
0.0
11
22.650
21
44.850
31
0.0
0
LINE
8
FURNITURE
62
6
10
22.650
20
44.850
30
0.0
11
22.650
21
46.350
31
0.0
0
LINE
8
FURNITURE
62
6
10
22.650
20
46.350
30
0.0
11
20.550
21
46.350
31
0.0
0
LINE
8
FURNITURE
62
6
10
20.550
20
46.350
30
0.0
11
20.550
21
44.850
31
0.0
0
LINE
8
FURNITURE
62
8
10
20.650
20
44.950
30
0.0
11
21.100
21
44.950
31
0.0
0
LINE
8
FURNITURE
62
8
10
21.100
20
44.950
30
0.0
11
21.100
21
46.250
31
0.0
0
LINE
8
FURNITURE
62
8
10
21.100
20
46.250
30
0.0
11
20.650
21
46.250
31
0.0
0
LINE
8
FURNITURE
62
8
10
20.650
20
46.250
30
0.0
11
20.650
21
44.950
31
0.0
0
TEXT
8
TEXT
62
2
10
21.640
20
46.600
30
0.0
40
0.220
1
Suite 3
0
TEXT
8
TEXT
62
8
10
21.550
20
46.300
30
0.0
40
0.140
1
4.50 x 4.00 m
0
LINE
8
WALLS
62
7
10
25.000
20
44.500
30
0.0
11
29.500
21
44.500
31
0.0
0
LINE
8
WALLS
62
7
10
29.500
20
44.500
30
0.0
11
29.500
21
48.500
31
0.0
0
LINE
8
WALLS
62
7
10
29.500
20
48.500
30
0.0
11
25.000
21
48.500
31
0.0
0
LINE
8
WALLS
62
7
10
25.000
20
48.500
30
0.0
11
25.000
21
44.500
31
0.0
0
LINE
8
WALLS_INNER
62
8
10
25.068
20
44.568
30
0.0
11
29.433
21
44.568
31
0.0
0
LINE
8
WALLS_INNER
62
8
10
29.433
20
44.568
30
0.0
11
29.433
21
48.432
31
0.0
0
LINE
8
WALLS_INNER
62
8
10
29.433
20
48.432
30
0.0
11
25.068
21
48.432
31
0.0
0
LINE
8
WALLS_INNER
62
8
10
25.068
20
48.432
30
0.0
11
25.068
21
44.568
31
0.0
0
LINE
8
DOORS
62
1
10
26.800
20
48.500
30
0.0
11
27.700
21
48.500
31
0.0
0
ARC
8
DOORS
62
6
10
26.800
20
48.500
30
0.0
40
0.900
50
0.000
51
90.000
0
LINE
8
WINDOWS
62
5
10
26.620
20
44.550
30
0.0
11
27.880
21
44.550
31
0.0
0
LINE
8
FURNITURE
62
6
10
25.350
20
44.850
30
0.0
11
27.450
21
44.850
31
0.0
0
LINE
8
FURNITURE
62
6
10
27.450
20
44.850
30
0.0
11
27.450
21
46.350
31
0.0
0
LINE
8
FURNITURE
62
6
10
27.450
20
46.350
30
0.0
11
25.350
21
46.350
31
0.0
0
LINE
8
FURNITURE
62
6
10
25.350
20
46.350
30
0.0
11
25.350
21
44.850
31
0.0
0
LINE
8
FURNITURE
62
8
10
25.450
20
44.950
30
0.0
11
25.900
21
44.950
31
0.0
0
LINE
8
FURNITURE
62
8
10
25.900
20
44.950
30
0.0
11
25.900
21
46.250
31
0.0
0
LINE
8
FURNITURE
62
8
10
25.900
20
46.250
30
0.0
11
25.450
21
46.250
31
0.0
0
LINE
8
FURNITURE
62
8
10
25.450
20
46.250
30
0.0
11
25.450
21
44.950
31
0.0
0
TEXT
8
TEXT
62
2
10
26.440
20
46.600
30
0.0
40
0.220
1
Suite 4
0
TEXT
8
TEXT
62
8
10
26.350
20
46.300
30
0.0
40
0.140
1
4.50 x 4.00 m
0
LINE
8
WALLS
62
7
10
0.000
20
51.100
30
0.0
11
5.000
21
51.100
31
0.0
0
LINE
8
WALLS
62
7
10
5.000
20
51.100
30
0.0
11
5.000
21
55.100
31
0.0
0
LINE
8
WALLS
62
7
10
5.000
20
55.100
30
0.0
11
0.000
21
55.100
31
0.0
0
LINE
8
WALLS
62
7
10
0.000
20
55.100
30
0.0
11
0.000
21
51.100
31
0.0
0
LINE
8
WALLS_INNER
62
8
10
0.068
20
51.168
30
0.0
11
4.933
21
51.168
31
0.0
0
LINE
8
WALLS_INNER
62
8
10
4.933
20
51.168
30
0.0
11
4.933
21
55.032
31
0.0
0
LINE
8
WALLS_INNER
62
8
10
4.933
20
55.032
30
0.0
11
0.068
21
55.032
31
0.0
0
LINE
8
WALLS_INNER
62
8
10
0.068
20
55.032
30
0.0
11
0.068
21
51.168
31
0.0
0
LINE
8
DOORS
62
1
10
2.050
20
55.100
30
0.0
11
2.950
21
55.100
31
0.0
0
ARC
8
DOORS
62
6
10
2.050
20
55.100
30
0.0
40
0.900
50
0.000
51
90.000
0
LINE
8
FURNITURE
62
6
10
0.350
20
51.500
30
0.0
11
1.950
21
51.500
31
0.0
0
LINE
8
FURNITURE
62
6
10
1.950
20
51.500
30
0.0
11
1.950
21
52.100
31
0.0
0
LINE
8
FURNITURE
62
6
10
1.950
20
52.100
30
0.0
11
0.350
21
52.100
31
0.0
0
LINE
8
FURNITURE
62
6
10
0.350
20
52.100
30
0.0
11
0.350
21
51.500
31
0.0
0
LINE
8
FURNITURE
62
6
10
0.450
20
54.100
30
0.0
11
1.200
21
54.100
31
0.0
0
LINE
8
FURNITURE
62
6
10
1.200
20
54.100
30
0.0
11
1.200
21
54.550
31
0.0
0
LINE
8
FURNITURE
62
6
10
1.200
20
54.550
30
0.0
11
0.450
21
54.550
31
0.0
0
LINE
8
FURNITURE
62
6
10
0.450
20
54.550
30
0.0
11
0.450
21
54.100
31
0.0
0
TEXT
8
TEXT
62
2
10
1.600
20
53.200
30
0.0
40
0.220
1
Sala intima
0
TEXT
8
TEXT
62
8
10
1.500
20
52.900
30
0.0
40
0.140
1
5.00 x 4.00 m
0
LINE
8
WALLS
62
7
10
0.000
20
55.400
30
0.0
11
8.000
21
55.400
31
0.0
0
LINE
8
WALLS
62
7
10
8.000
20
55.400
30
0.0
11
8.000
21
57.400
31
0.0
0
LINE
8
WALLS
62
7
10
8.000
20
57.400
30
0.0
11
0.000
21
57.400
31
0.0
0
LINE
8
WALLS
62
7
10
0.000
20
57.400
30
0.0
11
0.000
21
55.400
31
0.0
0
LINE
8
WALLS_INNER
62
8
10
0.068
20
55.468
30
0.0
11
7.933
21
55.468
31
0.0
0
LINE
8
WALLS_INNER
62
8
10
7.933
20
55.468
30
0.0
11
7.933
21
57.332
31
0.0
0
LINE
8
WALLS_INNER
62
8
10
7.933
20
57.332
30
0.0
11
0.068
21
57.332
31
0.0
0
LINE
8
WALLS_INNER
62
8
10
0.068
20
57.332
30
0.0
11
0.068
21
55.468
31
0.0
0
LINE
8
DOORS
62
1
10
3.550
20
55.400
30
0.0
11
4.450
21
55.400
31
0.0
0
ARC
8
DOORS
62
6
10
4.450
20
55.400
30
0.0
40
0.900
50
180.000
51
270.000
0
LINE
8
WINDOWS
62
5
10
3.300
20
55.450
30
0.0
11
4.700
21
55.450
31
0.0
0
TEXT
8
TEXT
62
2
10
2.560
20
56.500
30
0.0
40
0.220
1
Varanda
0
TEXT
8
TEXT
62
8
10
2.400
20
56.200
30
0.0
40
0.140
1
8.00 x 2.00 m
0
LINE
8
WALLS
62
7
10
13.200
20
57.700
30
0.0
11
16.400
21
57.700
31
0.0
0
LINE
8
WALLS
62
7
10
16.400
20
57.700
30
0.0
11
16.400
21
61.900
31
0.0
0
LINE
8
WALLS
62
7
10
16.400
20
61.900
30
0.0
11
13.200
21
61.900
31
0.0
0
LINE
8
WALLS
62
7
10
13.200
20
61.900
30
0.0
11
13.200
21
57.700
31
0.0
0
LINE
8
WALLS_INNER
62
8
10
13.268
20
57.768
30
0.0
11
16.332
21
57.768
31
0.0
0
LINE
8
WALLS_INNER
62
8
10
16.332
20
57.768
30
0.0
11
16.332
21
61.833
31
0.0
0
LINE
8
WALLS_INNER
62
8
10
16.332
20
61.833
30
0.0
11
13.268
21
61.833
31
0.0
0
LINE
8
WALLS_INNER
62
8
10
13.268
20
61.833
30
0.0
11
13.268
21
57.768
31
0.0
0
LINE
8
DOORS
62
1
10
14.416
20
61.900
30
0.0
11
15.184
21
61.900
31
0.0
0
ARC
8
DOORS
62
6
10
14.416
20
61.900
30
0.0
40
0.768
50
0.000
51
90.000
0
LINE
8
STAIRS
62
4
10
13.360
20
57.880
30
0.0
11
16.240
21
57.880
31
0.0
0
LINE
8
STAIRS
62
4
10
13.360
20
61.720
30
0.0
11
16.240
21
61.720
31
0.0
0
LINE
8
STAIRS
62
4
10
13.360
20
57.980
30
0.0
11
16.240
21
57.980
31
0.0
0
LINE
8
STAIRS
62
4
10
13.360
20
58.260
30
0.0
11
16.240
21
58.260
31
0.0
0
LINE
8
STAIRS
62
4
10
13.360
20
58.540
30
0.0
11
16.240
21
58.540
31
0.0
0
LINE
8
STAIRS
62
4
10
13.360
20
58.820
30
0.0
11
16.240
21
58.820
31
0.0
0
LINE
8
STAIRS
62
4
10
13.360
20
59.100
30
0.0
11
16.240
21
59.100
31
0.0
0
LINE
8
STAIRS
62
4
10
13.360
20
59.380
30
0.0
11
16.240
21
59.380
31
0.0
0
LINE
8
STAIRS
62
4
10
13.360
20
59.660
30
0.0
11
16.240
21
59.660
31
0.0
0
LINE
8
STAIRS
62
4
10
13.360
20
59.940
30
0.0
11
16.240
21
59.940
31
0.0
0
LINE
8
STAIRS
62
4
10
13.360
20
60.220
30
0.0
11
16.240
21
60.220
31
0.0
0
LINE
8
STAIRS
62
4
10
13.360
20
60.500
30
0.0
11
16.240
21
60.500
31
0.0
0
LINE
8
STAIRS
62
4
10
13.360
20
60.780
30
0.0
11
16.240
21
60.780
31
0.0
0
LINE
8
STAIRS
62
4
10
13.360
20
61.060
30
0.0
11
16.240
21
61.060
31
0.0
0
LINE
8
STAIRS
62
4
10
13.360
20
61.340
30
0.0
11
16.240
21
61.340
31
0.0
0
LINE
8
STAIRS
62
4
10
13.360
20
61.620
30
0.0
11
16.240
21
61.620
31
0.0
0
TEXT
8
STAIRS
62
1
10
14.288
20
59.800
30
0.0
40
0.180
1
UP
0
TEXT
8
TEXT
62
2
10
14.224
20
59.900
30
0.0
40
0.220
1
Escada
0
TEXT
8
TEXT
62
8
10
14.160
20
59.600
30
0.0
40
0.140
1
3.20 x 4.20 m
0
LINE
8
WALLS
62
7
10
16.700
20
57.700
30
0.0
11
18.900
21
57.700
31
0.0
0
LINE
8
WALLS
62
7
10
18.900
20
57.700
30
0.0
11
18.900
21
61.900
31
0.0
0
LINE
8
WALLS
62
7
10
18.900
20
61.900
30
0.0
11
16.700
21
61.900
31
0.0
0
LINE
8
WALLS
62
7
10
16.700
20
61.900
30
0.0
11
16.700
21
57.700
31
0.0
0
LINE
8
WALLS_INNER
62
8
10
16.767
20
57.768
30
0.0
11
18.832
21
57.768
31
0.0
0
LINE
8
WALLS_INNER
62
8
10
18.832
20
57.768
30
0.0
11
18.832
21
61.833
31
0.0
0
LINE
8
WALLS_INNER
62
8
10
18.832
20
61.833
30
0.0
11
16.767
21
61.833
31
0.0
0
LINE
8
WALLS_INNER
62
8
10
16.767
20
61.833
30
0.0
11
16.767
21
57.768
31
0.0
0
LINE
8
DOORS
62
1
10
16.700
20
59.425
30
0.0
11
16.700
21
60.175
31
0.0
0
ARC
8
DOORS
62
6
10
16.700
20
59.425
30
0.0
40
0.750
50
270.000
51
360.000
0
TEXT
8
TEXT
62
5
10
17.350
20
59.800
30
0.0
40
0.160
1
CIRC
0
TEXT
8
TEXT
62
2
10
17.404
20
59.900
30
0.0
40
0.220
1
Hall
0
TEXT
8
TEXT
62
8
10
17.360
20
59.600
30
0.0
40
0.140
1
2.20 x 4.20 m
0
ENDSEC
0
EOF
