0
SECTION
2
HEADER
0
ENDSEC
0
SECTION
2
ENTITIES
0
TEXT
8
TITLE
10
0.0
20
11.1
30
0.0
40
0.35
1
Casa beta 120 m2
0
TEXT
8
TITLE
10
0.0
20
10.65
30
0.0
40
0.2
1
Tipo: casa
0
LINE
8
WALLS
10
0.0
20
0.0
30
0.0
11
4.0
21
0.0
31
0.0
0
LINE
8
WALLS
10
4.0
20
0.0
30
0.0
11
4.0
21
5.0
31
0.0
0
LINE
8
WALLS
10
4.0
20
5.0
30
0.0
11
0.0
21
5.0
31
0.0
0
LINE
8
WALLS
10
0.0
20
5.0
30
0.0
11
0.0
21
0.0
31
0.0
0
TEXT
8
LABELS
10
1.4
20
2.5
30
0.0
40
0.28
1
Sala
0
TEXT
8
LABELS
10
1.4
20
2.12
30
0.0
40
0.18
1
4.00 x 5.00 m
0
LINE
8
WALLS
10
4.2
20
0.0
30
0.0
11
7.2
21
0.0
31
0.0
0
LINE
8
WALLS
10
7.2
20
0.0
30
0.0
11
7.2
21
3.0
31
0.0
0
LINE
8
WALLS
10
7.2
20
3.0
30
0.0
11
4.2
21
3.0
31
0.0
0
LINE
8
WALLS
10
4.2
20
3.0
30
0.0
11
4.2
21
0.0
31
0.0
0
TEXT
8
LABELS
10
5.1000000000000005
20
1.5
30
0.0
40
0.28
1
Cozinha
0
TEXT
8
LABELS
10
5.1000000000000005
20
1.12
30
0.0
40
0.18
1
3.00 x 3.00 m
0
LINE
8
WALLS
10
7.4
20
0.0
30
0.0
11
10.4
21
0.0
31
0.0
0
LINE
8
WALLS
10
10.4
20
0.0
30
0.0
11
10.4
21
3.5
31
0.0
0
LINE
8
WALLS
10
10.4
20
3.5
30
0.0
11
7.4
21
3.5
31
0.0
0
LINE
8
WALLS
10
7.4
20
3.5
30
0.0
11
7.4
21
0.0
31
0.0
0
TEXT
8
LABELS
10
8.3
20
1.75
30
0.0
40
0.28
1
Quarto 1
0
TEXT
8
LABELS
10
8.3
20
1.37
30
0.0
40
0.18
1
3.00 x 3.50 m
0
LINE
8
WALLS
10
0.0
20
5.2
30
0.0
11
3.0
21
5.2
31
0.0
0
LINE
8
WALLS
10
3.0
20
5.2
30
0.0
11
3.0
21
8.7
31
0.0
0
LINE
8
WALLS
10
3.0
20
8.7
30
0.0
11
0.0
21
8.7
31
0.0
0
LINE
8
WALLS
10
0.0
20
8.7
30
0.0
11
0.0
21
5.2
31
0.0
0
TEXT
8
LABELS
10
0.9
20
6.95
30
0.0
40
0.28
1
Quarto 2
0
TEXT
8
LABELS
10
0.9
20
6.57
30
0.0
40
0.18
1
3.00 x 3.50 m
0
LINE
8
WALLS
10
3.2
20
5.2
30
0.0
11
5.2
21
5.2
31
0.0
0
LINE
8
WALLS
10
5.2
20
5.2
30
0.0
11
5.2
21
7.2
31
0.0
0
LINE
8
WALLS
10
5.2
20
7.2
30
0.0
11
3.2
21
7.2
31
0.0
0
LINE
8
WALLS
10
3.2
20
7.2
30
0.0
11
3.2
21
5.2
31
0.0
0
TEXT
8
LABELS
10
3.6
20
6.2
30
0.0
40
0.28
1
Banheiro
0
TEXT
8
LABELS
10
3.6
20
5.82
30
0.0
40
0.18
1
2.00 x 2.00 m
0
ENDSEC
0
EOF
