0
SECTION
2
HEADER
0
ENDSEC
0
SECTION
2
TABLES
0
ENDSEC
0
SECTION
2
ENTITIES
0
TEXT
8
TEXT
62
2
10
0.000
20
-1.600
30
0.0
40
0.380
1
Projeto beta - sobrado
0
TEXT
8
TEXT
62
8
10
0.000
20
-1.100
30
0.0
40
0.200
1
Tipo: sobrado | Pavimentos: 2
0
TEXT
8
TEXT
62
3
10
0.000
20
-0.900
30
0.0
40
0.320
1
Projeto beta - sobrado - TERREO
0
LINE
8
GUIDES
62
9
10
-0.400
20
-0.550
30
0.0
11
16.000
21
-0.550
31
0.0
0
LINE
8
OUTLINE
62
3
10
-0.800
20
-0.800
30
0.0
11
-0.800
21
3.200
31
0.0
0
LINE
8
OUTLINE
62
3
10
-0.800
20
3.200
30
0.0
11
-0.800
21
3.500
31
0.0
0
LINE
8
OUTLINE
62
3
10
-0.800
20
3.500
30
0.0
11
4.500
21
4.200
31
0.0
0
LINE
8
OUTLINE
62
3
10
4.500
20
4.200
30
0.0
11
4.400
21
7.800
31
0.0
0
LINE
8
OUTLINE
62
3
10
4.400
20
7.800
30
0.0
11
6.700
21
9.800
31
0.0
0
LINE
8
OUTLINE
62
3
10
6.700
20
9.800
30
0.0
11
-0.800
21
12.300
31
0.0
0
LINE
8
OUTLINE
62
3
10
-0.800
20
12.300
30
0.0
11
-0.800
21
18.900
31
0.0
0
LINE
8
OUTLINE
62
3
10
-0.800
20
18.900
30
0.0
11
6.800
21
18.900
31
0.0
0
LINE
8
OUTLINE
62
3
10
6.800
20
18.900
30
0.0
11
6.800
21
12.300
31
0.0
0
LINE
8
OUTLINE
62
3
10
6.800
20
12.300
30
0.0
11
11.500
21
9.800
31
0.0
0
LINE
8
OUTLINE
62
3
10
11.500
20
9.800
30
0.0
11
11.500
21
7.800
31
0.0
0
LINE
8
OUTLINE
62
3
10
11.500
20
7.800
30
0.0
11
10.100
21
4.200
31
0.0
0
LINE
8
OUTLINE
62
3
10
10.100
20
4.200
30
0.0
11
10.100
21
3.500
31
0.0
0
LINE
8
OUTLINE
62
3
10
10.100
20
3.500
30
0.0
11
5.800
21
3.200
31
0.0
0
LINE
8
OUTLINE
62
3
10
5.800
20
3.200
30
0.0
11
10.100
21
-0.800
31
0.0
0
LINE
8
OUTLINE
62
3
10
10.100
20
-0.800
30
0.0
11
-0.800
21
-0.800
31
0.0
0
LINE
8
LANDSCAPE
62
2
10
0.350
20
13.100
30
0.0
11
-0.250
21
11.100
31
0.0
0
LINE
8
LANDSCAPE
62
2
10
5.650
20
13.100
30
0.0
11
6.250
21
11.100
31
0.0
0
LINE
8
LANDSCAPE
62
2
10
-0.250
20
11.100
30
0.0
11
6.250
21
11.100
31
0.0
0
LINE
8
LANDSCAPE
62
3
10
2.050
20
0.000
30
0.0
11
2.250
21
-1.350
31
0.0
0
LINE
8
LANDSCAPE
62
3
10
2.950
20
0.000
30
0.0
11
2.750
21
-1.350
31
0.0
0
LINE
8
LANDSCAPE
62
3
10
2.250
20
-1.350
30
0.0
11
2.750
21
-1.350
31
0.0
0
CIRCLE
8
LANDSCAPE
62
3
10
-0.150
20
-0.850
30
0.0
40
0.220
0
CIRCLE
8
LANDSCAPE
62
3
10
0.050
20
-0.770
30
0.0
40
0.160
0
CIRCLE
8
LANDSCAPE
62
3
10
2.000
20
-1.050
30
0.0
40
0.220
0
CIRCLE
8
LANDSCAPE
62
3
10
2.200
20
-0.970
30
0.0
40
0.160
0
CIRCLE
8
LANDSCAPE
62
3
10
4.400
20
-0.900
30
0.0
40
0.220
0
CIRCLE
8
LANDSCAPE
62
3
10
4.600
20
-0.820
30
0.0
40
0.160
0
LINE
8
PLOT
62
8
10
0.000
20
0.000
30
0.0
11
14.000
21
0.000
31
0.0
0
LINE
8
PLOT
62
8
10
14.000
20
0.000
30
0.0
11
14.000
21
10.000
31
0.0
0
LINE
8
PLOT
62
8
10
14.000
20
10.000
30
0.0
11
0.000
21
10.000
31
0.0
0
LINE
8
PLOT
62
8
10
0.000
20
10.000
30
0.0
11
0.000
21
0.000
31
0.0
0
LINE
8
WALLS
62
7
10
0.000
20
0.000
30
0.0
11
5.000
21
0.000
31
0.0
0
LINE
8
WALLS
62
7
10
5.000
20
0.000
30
0.0
11
5.000
21
5.000
31
0.0
0
LINE
8
WALLS
62
7
10
5.000
20
5.000
30
0.0
11
0.000
21
5.000
31
0.0
0
LINE
8
WALLS
62
7
10
0.000
20
5.000
30
0.0
11
0.000
21
0.000
31
0.0
0
LINE
8
WALLS_INNER
62
8
10
0.068
20
0.068
30
0.0
11
4.933
21
0.068
31
0.0
0
LINE
8
WALLS_INNER
62
8
10
4.933
20
0.068
30
0.0
11
4.933
21
4.933
31
0.0
0
LINE
8
WALLS_INNER
62
8
10
4.933
20
4.933
30
0.0
11
0.068
21
4.933
31
0.0
0
LINE
8
WALLS_INNER
62
8
10
0.068
20
4.933
30
0.0
11
0.068
21
0.068
31
0.0
0
LINE
8
DOORS
62
1
10
2.050
20
5.000
30
0.0
11
2.950
21
5.000
31
0.0
0
ARC
8
DOORS
62
6
10
2.050
20
5.000
30
0.0
40
0.900
50
0.000
51
90.000
0
LINE
8
WINDOWS
62
5
10
1.800
20
0.050
30
0.0
11
3.200
21
0.050
31
0.0
0
LINE
8
FURNITURE
62
6
10
0.350
20
0.400
30
0.0
11
1.950
21
0.400
31
0.0
0
LINE
8
FURNITURE
62
6
10
1.950
20
0.400
30
0.0
11
1.950
21
1.000
31
0.0
0
LINE
8
FURNITURE
62
6
10
1.950
20
1.000
30
0.0
11
0.350
21
1.000
31
0.0
0
LINE
8
FURNITURE
62
6
10
0.350
20
1.000
30
0.0
11
0.350
21
0.400
31
0.0
0
LINE
8
FURNITURE
62
6
10
0.450
20
4.000
30
0.0
11
1.200
21
4.000
31
0.0
0
LINE
8
FURNITURE
62
6
10
1.200
20
4.000
30
0.0
11
1.200
21
4.450
31
0.0
0
LINE
8
FURNITURE
62
6
10
1.200
20
4.450
30
0.0
11
0.450
21
4.450
31
0.0
0
LINE
8
FURNITURE
62
6
10
0.450
20
4.450
30
0.0
11
0.450
21
4.000
31
0.0
0
TEXT
8
TEXT
62
2
10
1.600
20
2.600
30
0.0
40
0.220
1
Sala de estar
0
TEXT
8
TEXT
62
8
10
1.500
20
2.300
30
0.0
40
0.140
1
5.00 x 5.00 m
0
LINE
8
WALLS
62
7
10
5.300
20
0.000
30
0.0
11
9.300
21
0.000
31
0.0
0
LINE
8
WALLS
62
7
10
9.300
20
0.000
30
0.0
11
9.300
21
4.000
31
0.0
0
LINE
8
WALLS
62
7
10
9.300
20
4.000
30
0.0
11
5.300
21
4.000
31
0.0
0
LINE
8
WALLS
62
7
10
5.300
20
4.000
30
0.0
11
5.300
21
0.000
31
0.0
0
LINE
8
WALLS_INNER
62
8
10
5.367
20
0.068
30
0.0
11
9.232
21
0.068
31
0.0
0
LINE
8
WALLS_INNER
62
8
10
9.232
20
0.068
30
0.0
11
9.232
21
3.933
31
0.0
0
LINE
8
WALLS_INNER
62
8
10
9.232
20
3.933
30
0.0
11
5.367
21
3.933
31
0.0
0
LINE
8
WALLS_INNER
62
8
10
5.367
20
3.933
30
0.0
11
5.367
21
0.068
31
0.0
0
LINE
8
DOORS
62
1
10
6.850
20
4.000
30
0.0
11
7.750
21
4.000
31
0.0
0
ARC
8
DOORS
62
6
10
6.850
20
4.000
30
0.0
40
0.900
50
0.000
51
90.000
0
LINE
8
WINDOWS
62
5
10
6.740
20
0.050
30
0.0
11
7.860
21
0.050
31
0.0
0
CIRCLE
8
FURNITURE
62
2
10
6.900
20
1.500
30
0.0
40
0.500
0
CIRCLE
8
FURNITURE
62
2
10
5.900
20
0.650
30
0.0
40
0.140
0
CIRCLE
8
FURNITURE
62
2
10
8.700
20
0.650
30
0.0
40
0.140
0
CIRCLE
8
FURNITURE
62
2
10
5.900
20
3.350
30
0.0
40
0.140
0
CIRCLE
8
FURNITURE
62
2
10
8.700
20
3.350
30
0.0
40
0.140
0
TEXT
8
TEXT
62
2
10
6.580
20
2.100
30
0.0
40
0.220
1
Sala de jantar
0
TEXT
8
TEXT
62
8
10
6.500
20
1.800
30
0.0
40
0.140
1
4.00 x 4.00 m
0
LINE
8
WALLS
62
7
10
5.300
20
4.300
30
0.0
11
9.300
21
4.300
31
0.0
0
LINE
8
WALLS
62
7
10
9.300
20
4.300
30
0.0
11
9.300
21
8.300
31
0.0
0
LINE
8
WALLS
62
7
10
9.300
20
8.300
30
0.0
11
5.300
21
8.300
31
0.0
0
LINE
8
WALLS
62
7
10
5.300
20
8.300
30
0.0
11
5.300
21
4.300
31
0.0
0
LINE
8
WALLS_INNER
62
8
10
5.367
20
4.367
30
0.0
11
9.232
21
4.367
31
0.0
0
LINE
8
WALLS_INNER
62
8
10
9.232
20
4.367
30
0.0
11
9.232
21
8.232
31
0.0
0
LINE
8
WALLS_INNER
62
8
10
9.232
20
8.232
30
0.0
11
5.367
21
8.232
31
0.0
0
LINE
8
WALLS_INNER
62
8
10
5.367
20
8.232
30
0.0
11
5.367
21
4.367
31
0.0
0
LINE
8
DOORS
62
1
10
6.850
20
8.300
30
0.0
11
7.750
21
8.300
31
0.0
0
ARC
8
DOORS
62
6
10
6.850
20
8.300
30
0.0
40
0.900
50
0.000
51
90.000
0
LINE
8
FIXTURES
62
3
10
5.600
20
4.650
30
0.0
11
9.000
21
4.650
31
0.0
0
LINE
8
FIXTURES
62
3
10
5.600
20
5.150
30
0.0
11
9.000
21
5.150
31
0.0
0
CIRCLE
8
FIXTURES
62
1
10
7.300
20
4.880
30
0.0
40
0.120
0
TEXT
8
TEXT
62
2
10
6.580
20
6.400
30
0.0
40
0.220
1
Cozinha
0
TEXT
8
TEXT
62
8
10
6.500
20
6.100
30
0.0
40
0.140
1
4.00 x 4.00 m
0
LINE
8
WALLS
62
7
10
5.200
20
8.600
30
0.0
11
7.200
21
8.600
31
0.0
0
LINE
8
WALLS
62
7
10
7.200
20
8.600
30
0.0
11
7.200
21
10.600
31
0.0
0
LINE
8
WALLS
62
7
10
7.200
20
10.600
30
0.0
11
5.200
21
10.600
31
0.0
0
LINE
8
WALLS
62
7
10
5.200
20
10.600
30
0.0
11
5.200
21
8.600
31
0.0
0
LINE
8
WALLS_INNER
62
8
10
5.268
20
8.668
30
0.0
11
7.133
21
8.668
31
0.0
0
LINE
8
WALLS_INNER
62
8
10
7.133
20
8.668
30
0.0
11
7.133
21
10.533
31
0.0
0
LINE
8
WALLS_INNER
62
8
10
7.133
20
10.533
30
0.0
11
5.268
21
10.533
31
0.0
0
LINE
8
WALLS_INNER
62
8
10
5.268
20
10.533
30
0.0
11
5.268
21
8.668
31
0.0
0
LINE
8
DOORS
62
1
10
5.825
20
10.600
30
0.0
11
6.575
21
10.600
31
0.0
0
ARC
8
DOORS
62
6
10
5.825
20
10.600
30
0.0
40
0.750
50
0.000
51
90.000
0
CIRCLE
8
FIXTURES
62
2
10
5.650
20
9.050
30
0.0
40
0.180
0
LINE
8
FIXTURES
62
4
10
6.450
20
8.950
30
0.0
11
6.950
21
8.950
31
0.0
0
LINE
8
FIXTURES
62
4
10
6.950
20
8.950
30
0.0
11
6.950
21
9.450
31
0.0
0
LINE
8
FIXTURES
62
4
10
6.950
20
9.450
30
0.0
11
6.450
21
9.450
31
0.0
0
LINE
8
FIXTURES
62
4
10
6.450
20
9.450
30
0.0
11
6.450
21
8.950
31
0.0
0
TEXT
8
TEXT
62
2
10
5.840
20
9.700
30
0.0
40
0.220
1
Lavabo
0
TEXT
8
TEXT
62
8
10
5.800
20
9.400
30
0.0
40
0.140
1
2.00 x 2.00 m
0
LINE
8
WALLS
62
7
10
7.500
20
8.600
30
0.0
11
10.700
21
8.600
31
0.0
0
LINE
8
WALLS
62
7
10
10.700
20
8.600
30
0.0
11
10.700
21
12.800
31
0.0
0
LINE
8
WALLS
62
7
10
10.700
20
12.800
30
0.0
11
7.500
21
12.800
31
0.0
0
LINE
8
WALLS
62
7
10
7.500
20
12.800
30
0.0
11
7.500
21
8.600
31
0.0
0
LINE
8
WALLS_INNER
62
8
10
7.567
20
8.668
30
0.0
11
10.632
21
8.668
31
0.0
0
LINE
8
WALLS_INNER
62
8
10
10.632
20
8.668
30
0.0
11
10.632
21
12.732
31
0.0
0
LINE
8
WALLS_INNER
62
8
10
10.632
20
12.732
30
0.0
11
7.567
21
12.732
31
0.0
0
LINE
8
WALLS_INNER
62
8
10
7.567
20
12.732
30
0.0
11
7.567
21
8.668
31
0.0
0
LINE
8
DOORS
62
1
10
8.716
20
12.800
30
0.0
11
9.484
21
12.800
31
0.0
0
ARC
8
DOORS
62
6
10
8.716
20
12.800
30
0.0
40
0.768
50
0.000
51
90.000
0
LINE
8
STAIRS
62
4
10
7.660
20
8.780
30
0.0
11
10.540
21
8.780
31
0.0
0
LINE
8
STAIRS
62
4
10
7.660
20
12.620
30
0.0
11
10.540
21
12.620
31
0.0
0
LINE
8
STAIRS
62
4
10
7.660
20
8.880
30
0.0
11
10.540
21
8.880
31
0.0
0
LINE
8
STAIRS
62
4
10
7.660
20
9.160
30
0.0
11
10.540
21
9.160
31
0.0
0
LINE
8
STAIRS
62
4
10
7.660
20
9.440
30
0.0
11
10.540
21
9.440
31
0.0
0
LINE
8
STAIRS
62
4
10
7.660
20
9.720
30
0.0
11
10.540
21
9.720
31
0.0
0
LINE
8
STAIRS
62
4
10
7.660
20
10.000
30
0.0
11
10.540
21
10.000
31
0.0
0
LINE
8
STAIRS
62
4
10
7.660
20
10.280
30
0.0
11
10.540
21
10.280
31
0.0
0
LINE
8
STAIRS
62
4
10
7.660
20
10.560
30
0.0
11
10.540
21
10.560
31
0.0
0
LINE
8
STAIRS
62
4
10
7.660
20
10.840
30
0.0
11
10.540
21
10.840
31
0.0
0
LINE
8
STAIRS
62
4
10
7.660
20
11.120
30
0.0
11
10.540
21
11.120
31
0.0
0
LINE
8
STAIRS
62
4
10
7.660
20
11.400
30
0.0
11
10.540
21
11.400
31
0.0
0
LINE
8
STAIRS
62
4
10
7.660
20
11.680
30
0.0
11
10.540
21
11.680
31
0.0
0
LINE
8
STAIRS
62
4
10
7.660
20
11.960
30
0.0
11
10.540
21
11.960
31
0.0
0
LINE
8
STAIRS
62
4
10
7.660
20
12.240
30
0.0
11
10.540
21
12.240
31
0.0
0
LINE
8
STAIRS
62
4
10
7.660
20
12.520
30
0.0
11
10.540
21
12.520
31
0.0
0
TEXT
8
STAIRS
62
1
10
8.588
20
10.700
30
0.0
40
0.180
1
UP
0
TEXT
8
TEXT
62
2
10
8.524
20
10.800
30
0.0
40
0.220
1
Escada
0
TEXT
8
TEXT
62
8
10
8.460
20
10.500
30
0.0
40
0.140
1
3.20 x 4.20 m
0
LINE
8
WALLS
62
7
10
0.000
20
13.100
30
0.0
11
6.000
21
13.100
31
0.0
0
LINE
8
WALLS
62
7
10
6.000
20
13.100
30
0.0
11
6.000
21
18.100
31
0.0
0
LINE
8
WALLS
62
7
10
6.000
20
18.100
30
0.0
11
0.000
21
18.100
31
0.0
0
LINE
8
WALLS
62
7
10
0.000
20
18.100
30
0.0
11
0.000
21
13.100
31
0.0
0
LINE
8
WALLS_INNER
62
8
10
0.068
20
13.168
30
0.0
11
5.933
21
13.168
31
0.0
0
LINE
8
WALLS_INNER
62
8
10
5.933
20
13.168
30
0.0
11
5.933
21
18.033
31
0.0
0
LINE
8
WALLS_INNER
62
8
10
5.933
20
18.033
30
0.0
11
0.068
21
18.033
31
0.0
0
LINE
8
WALLS_INNER
62
8
10
0.068
20
18.033
30
0.0
11
0.068
21
13.168
31
0.0
0
LINE
8
DOORS
62
1
10
2.550
20
13.100
30
0.0
11
3.450
21
13.100
31
0.0
0
ARC
8
DOORS
62
6
10
3.450
20
13.100
30
0.0
40
0.900
50
180.000
51
270.000
0
LINE
8
WINDOWS
62
5
10
2.300
20
13.150
30
0.0
11
3.700
21
13.150
31
0.0
0
LINE
8
FURNITURE
62
5
10
0.500
20
13.650
30
0.0
11
2.600
21
13.650
31
0.0
0
LINE
8
FURNITURE
62
5
10
2.600
20
13.650
30
0.0
11
2.600
21
17.550
31
0.0
0
LINE
8
FURNITURE
62
5
10
2.600
20
17.550
30
0.0
11
0.500
21
17.550
31
0.0
0
LINE
8
FURNITURE
62
5
10
0.500
20
17.550
30
0.0
11
0.500
21
13.650
31
0.0
0
LINE
8
FURNITURE
62
5
10
3.400
20
13.650
30
0.0
11
5.500
21
13.650
31
0.0
0
LINE
8
FURNITURE
62
5
10
5.500
20
13.650
30
0.0
11
5.500
21
17.550
31
0.0
0
LINE
8
FURNITURE
62
5
10
5.500
20
17.550
30
0.0
11
3.400
21
17.550
31
0.0
0
LINE
8
FURNITURE
62
5
10
3.400
20
17.550
30
0.0
11
3.400
21
13.650
31
0.0
0
TEXT
8
TEXT
62
2
10
1.920
20
15.700
30
0.0
40
0.220
1
Garagem
0
TEXT
8
TEXT
62
8
10
1.800
20
15.400
30
0.0
40
0.140
1
6.00 x 5.00 m
0
LINE
8
CIRCULATION
62
8
10
9.100
20
10.700
30
0.0
11
9.100
21
2.500
31
0.0
0
LINE
8
CIRCULATION
62
8
10
9.100
20
2.500
30
0.0
11
2.500
21
2.500
31
0.0
0
LINE
8
CIRCULATION
62
8
10
9.100
20
10.700
30
0.0
11
9.100
21
2.000
31
0.0
0
LINE
8
CIRCULATION
62
8
10
9.100
20
2.000
30
0.0
11
7.300
21
2.000
31
0.0
0
LINE
8
CIRCULATION
62
8
10
9.100
20
10.700
30
0.0
11
9.100
21
6.300
31
0.0
0
LINE
8
CIRCULATION
62
8
10
9.100
20
6.300
30
0.0
11
7.300
21
6.300
31
0.0
0
TEXT
8
TEXT
62
3
10
0.000
20
13.600
30
0.0
40
0.320
1
Projeto beta - sobrado - PAVIMENTO 2
0
LINE
8
GUIDES
62
9
10
-0.400
20
13.950
30
0.0
11
16.000
21
13.950
31
0.0
0
LINE
8
PLOT
62
8
10
0.000
20
14.500
30
0.0
11
14.000
21
14.500
31
0.0
0
LINE
8
PLOT
62
8
10
14.000
20
14.500
30
0.0
11
14.000
21
24.500
31
0.0
0
LINE
8
PLOT
62
8
10
14.000
20
24.500
30
0.0
11
0.000
21
24.500
31
0.0
0
LINE
8
PLOT
62
8
10
0.000
20
24.500
30
0.0
11
0.000
21
14.500
31
0.0
0
LINE
8
WALLS
62
7
10
0.000
20
14.500
30
0.0
11
4.500
21
14.500
31
0.0
0
LINE
8
WALLS
62
7
10
4.500
20
14.500
30
0.0
11
4.500
21
18.500
31
0.0
0
LINE
8
WALLS
62
7
10
4.500
20
18.500
30
0.0
11
0.000
21
18.500
31
0.0
0
LINE
8
WALLS
62
7
10
0.000
20
18.500
30
0.0
11
0.000
21
14.500
31
0.0
0
LINE
8
WALLS_INNER
62
8
10
0.068
20
14.568
30
0.0
11
4.433
21
14.568
31
0.0
0
LINE
8
WALLS_INNER
62
8
10
4.433
20
14.568
30
0.0
11
4.433
21
18.433
31
0.0
0
LINE
8
WALLS_INNER
62
8
10
4.433
20
18.433
30
0.0
11
0.068
21
18.433
31
0.0
0
LINE
8
WALLS_INNER
62
8
10
0.068
20
18.433
30
0.0
11
0.068
21
14.568
31
0.0
0
LINE
8
DOORS
62
1
10
1.800
20
18.500
30
0.0
11
2.700
21
18.500
31
0.0
0
ARC
8
DOORS
62
6
10
1.800
20
18.500
30
0.0
40
0.900
50
0.000
51
90.000
0
LINE
8
WINDOWS
62
5
10
1.620
20
14.550
30
0.0
11
2.880
21
14.550
31
0.0
0
LINE
8
FURNITURE
62
6
10
0.350
20
14.850
30
0.0
11
2.450
21
14.850
31
0.0
0
LINE
8
FURNITURE
62
6
10
2.450
20
14.850
30
0.0
11
2.450
21
16.350
31
0.0
0
LINE
8
FURNITURE
62
6
10
2.450
20
16.350
30
0.0
11
0.350
21
16.350
31
0.0
0
LINE
8
FURNITURE
62
6
10
0.350
20
16.350
30
0.0
11
0.350
21
14.850
31
0.0
0
LINE
8
FURNITURE
62
8
10
0.450
20
14.950
30
0.0
11
0.900
21
14.950
31
0.0
0
LINE
8
FURNITURE
62
8
10
0.900
20
14.950
30
0.0
11
0.900
21
16.250
31
0.0
0
LINE
8
FURNITURE
62
8
10
0.900
20
16.250
30
0.0
11
0.450
21
16.250
31
0.0
0
LINE
8
FURNITURE
62
8
10
0.450
20
16.250
30
0.0
11
0.450
21
14.950
31
0.0
0
TEXT
8
TEXT
62
2
10
1.440
20
16.600
30
0.0
40
0.220
1
Suite 1
0
TEXT
8
TEXT
62
8
10
1.350
20
16.300
30
0.0
40
0.140
1
4.50 x 4.00 m
0
LINE
8
WALLS
62
7
10
4.800
20
14.500
30
0.0
11
7.800
21
14.500
31
0.0
0
LINE
8
WALLS
62
7
10
7.800
20
14.500
30
0.0
11
7.800
21
16.500
31
0.0
0
LINE
8
WALLS
62
7
10
7.800
20
16.500
30
0.0
11
4.800
21
16.500
31
0.0
0
LINE
8
WALLS
62
7
10
4.800
20
16.500
30
0.0
11
4.800
21
14.500
31
0.0
0
LINE
8
WALLS_INNER
62
8
10
4.867
20
14.568
30
0.0
11
7.732
21
14.568
31
0.0
0
LINE
8
WALLS_INNER
62
8
10
7.732
20
14.568
30
0.0
11
7.732
21
16.433
31
0.0
0
LINE
8
WALLS_INNER
62
8
10
7.732
20
16.433
30
0.0
11
4.867
21
16.433
31
0.0
0
LINE
8
WALLS_INNER
62
8
10
4.867
20
16.433
30
0.0
11
4.867
21
14.568
31
0.0
0
LINE
8
DOORS
62
1
10
5.925
20
16.500
30
0.0
11
6.675
21
16.500
31
0.0
0
ARC
8
DOORS
62
6
10
5.925
20
16.500
30
0.0
40
0.750
50
0.000
51
90.000
0
LINE
8
WINDOWS
62
5
10
5.850
20
14.550
30
0.0
11
6.750
21
14.550
31
0.0
0
TEXT
8
TEXT
62
2
10
5.760
20
15.600
30
0.0
40
0.220
1
Closet
0
TEXT
8
TEXT
62
8
10
5.700
20
15.300
30
0.0
40
0.140
1
3.00 x 2.00 m
0
LINE
8
WALLS
62
7
10
4.800
20
16.800
30
0.0
11
7.300
21
16.800
31
0.0
0
LINE
8
WALLS
62
7
10
7.300
20
16.800
30
0.0
11
7.300
21
19.000
31
0.0
0
LINE
8
WALLS
62
7
10
7.300
20
19.000
30
0.0
11
4.800
21
19.000
31
0.0
0
LINE
8
WALLS
62
7
10
4.800
20
19.000
30
0.0
11
4.800
21
16.800
31
0.0
0
LINE
8
WALLS_INNER
62
8
10
4.867
20
16.867
30
0.0
11
7.232
21
16.867
31
0.0
0
LINE
8
WALLS_INNER
62
8
10
7.232
20
16.867
30
0.0
11
7.232
21
18.933
31
0.0
0
LINE
8
WALLS_INNER
62
8
10
7.232
20
18.933
30
0.0
11
4.867
21
18.933
31
0.0
0
LINE
8
WALLS_INNER
62
8
10
4.867
20
18.933
30
0.0
11
4.867
21
16.867
31
0.0
0
LINE
8
DOORS
62
1
10
5.675
20
19.000
30
0.0
11
6.425
21
19.000
31
0.0
0
ARC
8
DOORS
62
6
10
5.675
20
19.000
30
0.0
40
0.750
50
0.000
51
90.000
0
CIRCLE
8
FIXTURES
62
2
10
5.250
20
17.250
30
0.0
40
0.180
0
LINE
8
FIXTURES
62
4
10
6.550
20
17.150
30
0.0
11
7.050
21
17.150
31
0.0
0
LINE
8
FIXTURES
62
4
10
7.050
20
17.150
30
0.0
11
7.050
21
17.650
31
0.0
0
LINE
8
FIXTURES
62
4
10
7.050
20
17.650
30
0.0
11
6.550
21
17.650
31
0.0
0
LINE
8
FIXTURES
62
4
10
6.550
20
17.650
30
0.0
11
6.550
21
17.150
31
0.0
0
TEXT
8
TEXT
62
2
10
5.600
20
18.000
30
0.0
40
0.220
1
Banheiro
0
TEXT
8
TEXT
62
8
10
5.550
20
17.700
30
0.0
40
0.140
1
2.50 x 2.20 m
0
LINE
8
WALLS
62
7
10
8.100
20
14.500
30
0.0
11
12.600
21
14.500
31
0.0
0
LINE
8
WALLS
62
7
10
12.600
20
14.500
30
0.0
11
12.600
21
18.500
31
0.0
0
LINE
8
WALLS
62
7
10
12.600
20
18.500
30
0.0
11
8.100
21
18.500
31
0.0
0
LINE
8
WALLS
62
7
10
8.100
20
18.500
30
0.0
11
8.100
21
14.500
31
0.0
0
LINE
8
WALLS_INNER
62
8
10
8.168
20
14.568
30
0.0
11
12.532
21
14.568
31
0.0
0
LINE
8
WALLS_INNER
62
8
10
12.532
20
14.568
30
0.0
11
12.532
21
18.433
31
0.0
0
LINE
8
WALLS_INNER
62
8
10
12.532
20
18.433
30
0.0
11
8.168
21
18.433
31
0.0
0
LINE
8
WALLS_INNER
62
8
10
8.168
20
18.433
30
0.0
11
8.168
21
14.568
31
0.0
0
LINE
8
DOORS
62
1
10
9.900
20
18.500
30
0.0
11
10.800
21
18.500
31
0.0
0
ARC
8
DOORS
62
6
10
9.900
20
18.500
30
0.0
40
0.900
50
0.000
51
90.000
0
LINE
8
WINDOWS
62
5
10
9.720
20
14.550
30
0.0
11
10.980
21
14.550
31
0.0
0
LINE
8
FURNITURE
62
6
10
8.450
20
14.850
30
0.0
11
10.550
21
14.850
31
0.0
0
LINE
8
FURNITURE
62
6
10
10.550
20
14.850
30
0.0
11
10.550
21
16.350
31
0.0
0
LINE
8
FURNITURE
62
6
10
10.550
20
16.350
30
0.0
11
8.450
21
16.350
31
0.0
0
LINE
8
FURNITURE
62
6
10
8.450
20
16.350
30
0.0
11
8.450
21
14.850
31
0.0
0
LINE
8
FURNITURE
62
8
10
8.550
20
14.950
30
0.0
11
9.000
21
14.950
31
0.0
0
LINE
8
FURNITURE
62
8
10
9.000
20
14.950
30
0.0
11
9.000
21
16.250
31
0.0
0
LINE
8
FURNITURE
62
8
10
9.000
20
16.250
30
0.0
11
8.550
21
16.250
31
0.0
0
LINE
8
FURNITURE
62
8
10
8.550
20
16.250
30
0.0
11
8.550
21
14.950
31
0.0
0
TEXT
8
TEXT
62
2
10
9.540
20
16.600
30
0.0
40
0.220
1
Suite 2
0
TEXT
8
TEXT
62
8
10
9.450
20
16.300
30
0.0
40
0.140
1
4.50 x 4.00 m
0
LINE
8
WALLS
62
7
10
5.200
20
19.300
30
0.0
11
8.400
21
19.300
31
0.0
0
LINE
8
WALLS
62
7
10
8.400
20
19.300
30
0.0
11
8.400
21
23.500
31
0.0
0
LINE
8
WALLS
62
7
10
8.400
20
23.500
30
0.0
11
5.200
21
23.500
31
0.0
0
LINE
8
WALLS
62
7
10
5.200
20
23.500
30
0.0
11
5.200
21
19.300
31
0.0
0
LINE
8
WALLS_INNER
62
8
10
5.268
20
19.367
30
0.0
11
8.332
21
19.367
31
0.0
0
LINE
8
WALLS_INNER
62
8
10
8.332
20
19.367
30
0.0
11
8.332
21
23.433
31
0.0
0
LINE
8
WALLS_INNER
62
8
10
8.332
20
23.433
30
0.0
11
5.268
21
23.433
31
0.0
0
LINE
8
WALLS_INNER
62
8
10
5.268
20
23.433
30
0.0
11
5.268
21
19.367
31
0.0
0
LINE
8
DOORS
62
1
10
6.416
20
23.500
30
0.0
11
7.184
21
23.500
31
0.0
0
ARC
8
DOORS
62
6
10
6.416
20
23.500
30
0.0
40
0.768
50
0.000
51
90.000
0
LINE
8
STAIRS
62
4
10
5.360
20
19.480
30
0.0
11
8.240
21
19.480
31
0.0
0
LINE
8
STAIRS
62
4
10
5.360
20
23.320
30
0.0
11
8.240
21
23.320
31
0.0
0
LINE
8
STAIRS
62
4
10
5.360
20
19.580
30
0.0
11
8.240
21
19.580
31
0.0
0
LINE
8
STAIRS
62
4
10
5.360
20
19.860
30
0.0
11
8.240
21
19.860
31
0.0
0
LINE
8
STAIRS
62
4
10
5.360
20
20.140
30
0.0
11
8.240
21
20.140
31
0.0
0
LINE
8
STAIRS
62
4
10
5.360
20
20.420
30
0.0
11
8.240
21
20.420
31
0.0
0
LINE
8
STAIRS
62
4
10
5.360
20
20.700
30
0.0
11
8.240
21
20.700
31
0.0
0
LINE
8
STAIRS
62
4
10
5.360
20
20.980
30
0.0
11
8.240
21
20.980
31
0.0
0
LINE
8
STAIRS
62
4
10
5.360
20
21.260
30
0.0
11
8.240
21
21.260
31
0.0
0
LINE
8
STAIRS
62
4
10
5.360
20
21.540
30
0.0
11
8.240
21
21.540
31
0.0
0
LINE
8
STAIRS
62
4
10
5.360
20
21.820
30
0.0
11
8.240
21
21.820
31
0.0
0
LINE
8
STAIRS
62
4
10
5.360
20
22.100
30
0.0
11
8.240
21
22.100
31
0.0
0
LINE
8
STAIRS
62
4
10
5.360
20
22.380
30
0.0
11
8.240
21
22.380
31
0.0
0
LINE
8
STAIRS
62
4
10
5.360
20
22.660
30
0.0
11
8.240
21
22.660
31
0.0
0
LINE
8
STAIRS
62
4
10
5.360
20
22.940
30
0.0
11
8.240
21
22.940
31
0.0
0
LINE
8
STAIRS
62
4
10
5.360
20
23.220
30
0.0
11
8.240
21
23.220
31
0.0
0
TEXT
8
STAIRS
62
1
10
6.288
20
21.400
30
0.0
40
0.180
1
UP
0
TEXT
8
TEXT
62
2
10
6.224
20
21.500
30
0.0
40
0.220
1
Escada
0
TEXT
8
TEXT
62
8
10
6.160
20
21.200
30
0.0
40
0.140
1
3.20 x 4.20 m
0
LINE
8
WALLS
62
7
10
8.700
20
19.300
30
0.0
11
10.900
21
19.300
31
0.0
0
LINE
8
WALLS
62
7
10
10.900
20
19.300
30
0.0
11
10.900
21
23.500
31
0.0
0
LINE
8
WALLS
62
7
10
10.900
20
23.500
30
0.0
11
8.700
21
23.500
31
0.0
0
LINE
8
WALLS
62
7
10
8.700
20
23.500
30
0.0
11
8.700
21
19.300
31
0.0
0
LINE
8
WALLS_INNER
62
8
10
8.768
20
19.367
30
0.0
11
10.832
21
19.367
31
0.0
0
LINE
8
WALLS_INNER
62
8
10
10.832
20
19.367
30
0.0
11
10.832
21
23.433
31
0.0
0
LINE
8
WALLS_INNER
62
8
10
10.832
20
23.433
30
0.0
11
8.768
21
23.433
31
0.0
0
LINE
8
WALLS_INNER
62
8
10
8.768
20
23.433
30
0.0
11
8.768
21
19.367
31
0.0
0
LINE
8
DOORS
62
1
10
8.700
20
21.025
30
0.0
11
8.700
21
21.775
31
0.0
0
ARC
8
DOORS
62
6
10
8.700
20
21.025
30
0.0
40
0.750
50
270.000
51
360.000
0
TEXT
8
TEXT
62
5
10
9.350
20
21.400
30
0.0
40
0.160
1
CIRC
0
TEXT
8
TEXT
62
2
10
9.404
20
21.500
30
0.0
40
0.220
1
Hall
0
TEXT
8
TEXT
62
8
10
9.360
20
21.200
30
0.0
40
0.140
1
2.20 x 4.20 m
0
LINE
8
CIRCULATION
62
8
10
6.800
20
21.400
30
0.0
11
6.800
21
16.500
31
0.0
0
LINE
8
CIRCULATION
62
8
10
6.800
20
16.500
30
0.0
11
2.250
21
16.500
31
0.0
0
LINE
8
CIRCULATION
62
8
10
6.800
20
21.400
30
0.0
11
6.800
21
16.500
31
0.0
0
LINE
8
CIRCULATION
62
8
10
6.800
20
16.500
30
0.0
11
10.350
21
16.500
31
0.0
0
ENDSEC
0
EOF
