0
SECTION
2
HEADER
0
ENDSEC
0
SECTION
2
TABLES
0
ENDSEC
0
SECTION
2
ENTITIES
0
TEXT
8
TEXT
62
2
10
0.000
20
-1.600
30
0.0
40
0.380
1
Projeto beta - casa
0
TEXT
8
TEXT
62
8
10
0.000
20
-1.100
30
0.0
40
0.200
1
Tipo: casa | Pavimentos: 2
0
TEXT
8
TEXT
62
3
10
0.000
20
-0.900
30
0.0
40
0.320
1
Projeto beta - casa - TERREO
0
LINE
8
GUIDES
62
9
10
-0.400
20
-0.550
30
0.0
11
16.000
21
-0.550
31
0.0
0
TEXT
8
TEXT
62
5
10
13.100
20
-0.550
30
0.0
40
0.200
1
PROCESSAMENTO IA
0
TEXT
8
TEXT
62
8
10
13.100
20
-1.000
30
0.0
40
0.140
1
- Projeto multi-pavimento com setor intimo elevado.
0
TEXT
8
TEXT
62
8
10
13.100
20
-1.320
30
0.0
40
0.140
1
- Garagem posicionada como ancora frontal de acesso.
0
TEXT
8
TEXT
62
8
10
13.100
20
-1.640
30
0.0
40
0.140
1
- Area de lazer conectada ao nucleo social.
0
TEXT
8
TEXT
62
8
10
13.100
20
-1.960
30
0.0
40
0.140
1
- Suite master tratada como conjunto privativo com apoio molhado.
0
TEXT
8
TEXT
62
8
10
13.100
20
-2.280
30
0.0
40
0.140
1
- Sobrado: base social/servico no terreo e setor intimo no pavimento superior.
0
LINE
8
OUTLINE
62
3
10
0.600
20
0.100
30
0.0
11
-0.800
21
-0.800
31
0.0
0
LINE
8
OUTLINE
62
3
10
-0.800
20
-0.800
30
0.0
11
-0.800
21
5.500
31
0.0
0
LINE
8
OUTLINE
62
3
10
-0.800
20
5.500
30
0.0
11
-0.800
21
9.000
31
0.0
0
LINE
8
OUTLINE
62
3
10
-0.800
20
9.000
30
0.0
11
-0.800
21
9.500
31
0.0
0
LINE
8
OUTLINE
62
3
10
-0.800
20
9.500
30
0.0
11
-0.800
21
10.800
31
0.0
0
LINE
8
OUTLINE
62
3
10
-0.800
20
10.800
30
0.0
11
-0.800
21
19.600
31
0.0
0
LINE
8
OUTLINE
62
3
10
-0.800
20
19.600
30
0.0
11
-0.800
21
20.400
31
0.0
0
LINE
8
OUTLINE
62
3
10
-0.800
20
20.400
30
0.0
11
-0.800
21
22.200
31
0.0
0
LINE
8
OUTLINE
62
3
10
-0.800
20
22.200
30
0.0
11
4.525
21
23.600
31
0.0
0
LINE
8
OUTLINE
62
3
10
4.525
20
23.600
30
0.0
11
4.525
21
24.600
31
0.0
0
LINE
8
OUTLINE
62
3
10
4.525
20
24.600
30
0.0
11
6.375
21
25.900
31
0.0
0
LINE
8
OUTLINE
62
3
10
6.375
20
25.900
30
0.0
11
3.900
21
29.200
31
0.0
0
LINE
8
OUTLINE
62
3
10
3.900
20
29.200
30
0.0
11
2.950
21
33.700
31
0.0
0
LINE
8
OUTLINE
62
3
10
2.950
20
33.700
30
0.0
11
-0.800
21
38.000
31
0.0
0
LINE
8
OUTLINE
62
3
10
-0.800
20
38.000
30
0.0
11
-0.800
21
42.300
31
0.0
0
LINE
8
OUTLINE
62
3
10
-0.800
20
42.300
30
0.0
11
-0.800
21
46.400
31
0.0
0
LINE
8
OUTLINE
62
3
10
-0.800
20
46.400
30
0.0
11
6.800
21
46.400
31
0.0
0
LINE
8
OUTLINE
62
3
10
6.800
20
46.400
30
0.0
11
6.800
21
42.300
31
0.0
0
LINE
8
OUTLINE
62
3
10
6.800
20
42.300
30
0.0
11
8.800
21
38.000
31
0.0
0
LINE
8
OUTLINE
62
3
10
8.800
20
38.000
30
0.0
11
9.050
21
33.700
31
0.0
0
LINE
8
OUTLINE
62
3
10
9.050
20
33.700
30
0.0
11
8.100
21
29.200
31
0.0
0
LINE
8
OUTLINE
62
3
10
8.100
20
29.200
30
0.0
11
11.475
21
25.900
31
0.0
0
LINE
8
OUTLINE
62
3
10
11.475
20
25.900
30
0.0
11
7.475
21
24.600
31
0.0
0
LINE
8
OUTLINE
62
3
10
7.475
20
24.600
30
0.0
11
7.475
21
23.600
31
0.0
0
LINE
8
OUTLINE
62
3
10
7.475
20
23.600
30
0.0
11
7.800
21
22.200
31
0.0
0
LINE
8
OUTLINE
62
3
10
7.800
20
22.200
30
0.0
11
12.775
21
20.400
31
0.0
0
LINE
8
OUTLINE
62
3
10
12.775
20
20.400
30
0.0
11
7.800
21
19.600
31
0.0
0
LINE
8
OUTLINE
62
3
10
7.800
20
19.600
30
0.0
11
6.800
21
10.800
31
0.0
0
LINE
8
OUTLINE
62
3
10
6.800
20
10.800
30
0.0
11
6.800
21
9.500
31
0.0
0
LINE
8
OUTLINE
62
3
10
6.800
20
9.500
30
0.0
11
12.100
21
9.000
31
0.0
0
LINE
8
OUTLINE
62
3
10
12.100
20
9.000
30
0.0
11
16.400
21
5.500
31
0.0
0
LINE
8
OUTLINE
62
3
10
16.400
20
5.500
30
0.0
11
8.300
21
-0.800
31
0.0
0
LINE
8
OUTLINE
62
3
10
8.300
20
-0.800
30
0.0
11
6.900
21
0.100
31
0.0
0
LINE
8
OUTLINE
62
3
10
6.900
20
0.100
30
0.0
11
0.600
21
0.100
31
0.0
0
LINE
8
LANDSCAPE
62
2
10
0.350
20
0.000
30
0.0
11
-0.250
21
-2.000
31
0.0
0
LINE
8
LANDSCAPE
62
2
10
7.150
20
0.000
30
0.0
11
7.750
21
-2.000
31
0.0
0
LINE
8
LANDSCAPE
62
2
10
-0.250
20
-2.000
30
0.0
11
7.750
21
-2.000
31
0.0
0
LINE
8
LANDSCAPE
62
3
10
2.550
20
6.300
30
0.0
11
2.750
21
4.950
31
0.0
0
LINE
8
LANDSCAPE
62
3
10
3.450
20
6.300
30
0.0
11
3.250
21
4.950
31
0.0
0
LINE
8
LANDSCAPE
62
3
10
2.750
20
4.950
30
0.0
11
3.250
21
4.950
31
0.0
0
CIRCLE
8
LANDSCAPE
62
3
10
-0.150
20
-0.850
30
0.0
40
0.220
0
CIRCLE
8
LANDSCAPE
62
3
10
0.050
20
-0.770
30
0.0
40
0.160
0
CIRCLE
8
LANDSCAPE
62
3
10
2.000
20
-1.050
30
0.0
40
0.220
0
CIRCLE
8
LANDSCAPE
62
3
10
2.200
20
-0.970
30
0.0
40
0.160
0
CIRCLE
8
LANDSCAPE
62
3
10
4.400
20
-0.900
30
0.0
40
0.220
0
CIRCLE
8
LANDSCAPE
62
3
10
4.600
20
-0.820
30
0.0
40
0.160
0
LINE
8
DIMS
62
1
10
0.000
20
-0.250
30
0.0
11
12.000
21
-0.250
31
0.0
0
LINE
8
DIMS
62
1
10
0.000
20
-0.400
30
0.0
11
0.000
21
0.000
31
0.0
0
LINE
8
DIMS
62
1
10
12.000
20
-0.400
30
0.0
11
12.000
21
0.000
31
0.0
0
TEXT
8
DIMS
62
1
10
5.550
20
-0.170
30
0.0
40
0.140
1
12.00m
0
LINE
8
DIMS
62
1
10
12.450
20
0.000
30
0.0
11
12.450
21
45.600
31
0.0
0
LINE
8
DIMS
62
1
10
12.000
20
0.000
30
0.0
11
12.600
21
0.000
31
0.0
0
LINE
8
DIMS
62
1
10
12.000
20
45.600
30
0.0
11
12.600
21
45.600
31
0.0
0
TEXT
8
DIMS
62
1
10
12.530
20
22.800
30
0.0
40
0.140
1
45.60m
0
LINE
8
PLOT
62
8
10
0.000
20
0.000
30
0.0
11
12.000
21
0.000
31
0.0
0
LINE
8
PLOT
62
8
10
12.000
20
0.000
30
0.0
11
12.000
21
25.000
31
0.0
0
LINE
8
PLOT
62
8
10
12.000
20
25.000
30
0.0
11
0.000
21
25.000
31
0.0
0
LINE
8
PLOT
62
8
10
0.000
20
25.000
30
0.0
11
0.000
21
0.000
31
0.0
0
LINE
8
WALLS
62
7
10
0.000
20
0.000
30
0.0
11
7.500
21
0.000
31
0.0
0
LINE
8
WALLS
62
7
10
7.500
20
0.000
30
0.0
11
7.500
21
6.000
31
0.0
0
LINE
8
WALLS
62
7
10
7.500
20
6.000
30
0.0
11
0.000
21
6.000
31
0.0
0
LINE
8
WALLS
62
7
10
0.000
20
6.000
30
0.0
11
0.000
21
0.000
31
0.0
0
LINE
8
WALLS_INNER
62
8
10
0.068
20
0.068
30
0.0
11
7.433
21
0.068
31
0.0
0
LINE
8
WALLS_INNER
62
8
10
7.433
20
0.068
30
0.0
11
7.433
21
5.933
31
0.0
0
LINE
8
WALLS_INNER
62
8
10
7.433
20
5.933
30
0.0
11
0.068
21
5.933
31
0.0
0
LINE
8
WALLS_INNER
62
8
10
0.068
20
5.933
30
0.0
11
0.068
21
0.068
31
0.0
0
LINE
8
DOORS
62
1
10
3.300
20
0.000
30
0.0
11
4.200
21
0.000
31
0.0
0
ARC
8
DOORS
62
6
10
4.200
20
0.000
30
0.0
40
0.900
50
180.000
51
270.000
0
LINE
8
WINDOWS
62
5
10
3.050
20
0.050
30
0.0
11
4.450
21
0.050
31
0.0
0
LINE
8
FURNITURE
62
5
10
0.500
20
0.550
30
0.0
11
2.600
21
0.550
31
0.0
0
LINE
8
FURNITURE
62
5
10
2.600
20
0.550
30
0.0
11
2.600
21
4.450
31
0.0
0
LINE
8
FURNITURE
62
5
10
2.600
20
4.450
30
0.0
11
0.500
21
4.450
31
0.0
0
LINE
8
FURNITURE
62
5
10
0.500
20
4.450
30
0.0
11
0.500
21
0.550
31
0.0
0
LINE
8
FURNITURE
62
5
10
4.900
20
0.550
30
0.0
11
7.000
21
0.550
31
0.0
0
LINE
8
FURNITURE
62
5
10
7.000
20
0.550
30
0.0
11
7.000
21
4.450
31
0.0
0
LINE
8
FURNITURE
62
5
10
7.000
20
4.450
30
0.0
11
4.900
21
4.450
31
0.0
0
LINE
8
FURNITURE
62
5
10
4.900
20
4.450
30
0.0
11
4.900
21
0.550
31
0.0
0
TEXT
8
TEXT
62
2
10
2.400
20
3.100
30
0.0
40
0.220
1
Garagem
0
TEXT
8
TEXT
62
8
10
2.250
20
2.800
30
0.0
40
0.140
1
7.50 x 6.00 m
0
LINE
8
WALLS
62
7
10
0.000
20
6.300
30
0.0
11
6.000
21
6.300
31
0.0
0
LINE
8
WALLS
62
7
10
6.000
20
6.300
30
0.0
11
6.000
21
11.300
31
0.0
0
LINE
8
WALLS
62
7
10
6.000
20
11.300
30
0.0
11
0.000
21
11.300
31
0.0
0
LINE
8
WALLS
62
7
10
0.000
20
11.300
30
0.0
11
0.000
21
6.300
31
0.0
0
LINE
8
WALLS_INNER
62
8
10
0.068
20
6.367
30
0.0
11
5.933
21
6.367
31
0.0
0
LINE
8
WALLS_INNER
62
8
10
5.933
20
6.367
30
0.0
11
5.933
21
11.232
31
0.0
0
LINE
8
WALLS_INNER
62
8
10
5.933
20
11.232
30
0.0
11
0.068
21
11.232
31
0.0
0
LINE
8
WALLS_INNER
62
8
10
0.068
20
11.232
30
0.0
11
0.068
21
6.367
31
0.0
0
LINE
8
DOORS
62
1
10
2.550
20
11.300
30
0.0
11
3.450
21
11.300
31
0.0
0
ARC
8
DOORS
62
6
10
2.550
20
11.300
30
0.0
40
0.900
50
0.000
51
90.000
0
LINE
8
FURNITURE
62
6
10
0.350
20
6.700
30
0.0
11
1.950
21
6.700
31
0.0
0
LINE
8
FURNITURE
62
6
10
1.950
20
6.700
30
0.0
11
1.950
21
7.300
31
0.0
0
LINE
8
FURNITURE
62
6
10
1.950
20
7.300
30
0.0
11
0.350
21
7.300
31
0.0
0
LINE
8
FURNITURE
62
6
10
0.350
20
7.300
30
0.0
11
0.350
21
6.700
31
0.0
0
LINE
8
FURNITURE
62
6
10
0.450
20
10.300
30
0.0
11
1.200
21
10.300
31
0.0
0
LINE
8
FURNITURE
62
6
10
1.200
20
10.300
30
0.0
11
1.200
21
10.750
31
0.0
0
LINE
8
FURNITURE
62
6
10
1.200
20
10.750
30
0.0
11
0.450
21
10.750
31
0.0
0
LINE
8
FURNITURE
62
6
10
0.450
20
10.750
30
0.0
11
0.450
21
10.300
31
0.0
0
TEXT
8
TEXT
62
2
10
1.920
20
8.900
30
0.0
40
0.220
1
Sala de estar
0
TEXT
8
TEXT
62
8
10
1.800
20
8.600
30
0.0
40
0.140
1
6.00 x 5.00 m
0
LINE
8
WALLS
62
7
10
6.300
20
6.300
30
0.0
11
11.300
21
6.300
31
0.0
0
LINE
8
WALLS
62
7
10
11.300
20
6.300
30
0.0
11
11.300
21
10.300
31
0.0
0
LINE
8
WALLS
62
7
10
11.300
20
10.300
30
0.0
11
6.300
21
10.300
31
0.0
0
LINE
8
WALLS
62
7
10
6.300
20
10.300
30
0.0
11
6.300
21
6.300
31
0.0
0
LINE
8
WALLS_INNER
62
8
10
6.367
20
6.367
30
0.0
11
11.232
21
6.367
31
0.0
0
LINE
8
WALLS_INNER
62
8
10
11.232
20
6.367
30
0.0
11
11.232
21
10.232
31
0.0
0
LINE
8
WALLS_INNER
62
8
10
11.232
20
10.232
30
0.0
11
6.367
21
10.232
31
0.0
0
LINE
8
WALLS_INNER
62
8
10
6.367
20
10.232
30
0.0
11
6.367
21
6.367
31
0.0
0
LINE
8
DOORS
62
1
10
8.350
20
10.300
30
0.0
11
9.250
21
10.300
31
0.0
0
ARC
8
DOORS
62
6
10
8.350
20
10.300
30
0.0
40
0.900
50
0.000
51
90.000
0
CIRCLE
8
FURNITURE
62
2
10
7.900
20
7.800
30
0.0
40
0.500
0
CIRCLE
8
FURNITURE
62
2
10
6.900
20
6.950
30
0.0
40
0.140
0
CIRCLE
8
FURNITURE
62
2
10
10.700
20
6.950
30
0.0
40
0.140
0
CIRCLE
8
FURNITURE
62
2
10
6.900
20
9.650
30
0.0
40
0.140
0
CIRCLE
8
FURNITURE
62
2
10
10.700
20
9.650
30
0.0
40
0.140
0
TEXT
8
TEXT
62
2
10
7.900
20
8.400
30
0.0
40
0.220
1
Sala de jantar
0
TEXT
8
TEXT
62
8
10
7.800
20
8.100
30
0.0
40
0.140
1
5.00 x 4.00 m
0
LINE
8
WALLS
62
7
10
11.600
20
6.300
30
0.0
11
15.600
21
6.300
31
0.0
0
LINE
8
WALLS
62
7
10
15.600
20
6.300
30
0.0
11
15.600
21
9.800
31
0.0
0
LINE
8
WALLS
62
7
10
15.600
20
9.800
30
0.0
11
11.600
21
9.800
31
0.0
0
LINE
8
WALLS
62
7
10
11.600
20
9.800
30
0.0
11
11.600
21
6.300
31
0.0
0
LINE
8
WALLS_INNER
62
8
10
11.668
20
6.367
30
0.0
11
15.532
21
6.367
31
0.0
0
LINE
8
WALLS_INNER
62
8
10
15.532
20
6.367
30
0.0
11
15.532
21
9.732
31
0.0
0
LINE
8
WALLS_INNER
62
8
10
15.532
20
9.732
30
0.0
11
11.668
21
9.732
31
0.0
0
LINE
8
WALLS_INNER
62
8
10
11.668
20
9.732
30
0.0
11
11.668
21
6.367
31
0.0
0
LINE
8
DOORS
62
1
10
13.150
20
9.800
30
0.0
11
14.050
21
9.800
31
0.0
0
ARC
8
DOORS
62
6
10
13.150
20
9.800
30
0.0
40
0.900
50
0.000
51
90.000
0
LINE
8
WINDOWS
62
5
10
15.550
20
7.490
30
0.0
11
15.550
21
8.610
31
0.0
0
LINE
8
FIXTURES
62
3
10
11.900
20
6.650
30
0.0
11
15.300
21
6.650
31
0.0
0
LINE
8
FIXTURES
62
3
10
11.900
20
7.150
30
0.0
11
15.300
21
7.150
31
0.0
0
CIRCLE
8
FIXTURES
62
1
10
13.600
20
6.880
30
0.0
40
0.120
0
TEXT
8
TEXT
62
2
10
12.880
20
8.150
30
0.0
40
0.220
1
Cozinha
0
TEXT
8
TEXT
62
8
10
12.800
20
7.850
30
0.0
40
0.140
1
4.00 x 3.50 m
0
LINE
8
WALLS
62
7
10
0.000
20
11.600
30
0.0
11
6.000
21
11.600
31
0.0
0
LINE
8
WALLS
62
7
10
6.000
20
11.600
30
0.0
11
6.000
21
16.600
31
0.0
0
LINE
8
WALLS
62
7
10
6.000
20
16.600
30
0.0
11
0.000
21
16.600
31
0.0
0
LINE
8
WALLS
62
7
10
0.000
20
16.600
30
0.0
11
0.000
21
11.600
31
0.0
0
LINE
8
WALLS_INNER
62
8
10
0.068
20
11.668
30
0.0
11
5.933
21
11.668
31
0.0
0
LINE
8
WALLS_INNER
62
8
10
5.933
20
11.668
30
0.0
11
5.933
21
16.533
31
0.0
0
LINE
8
WALLS_INNER
62
8
10
5.933
20
16.533
30
0.0
11
0.068
21
16.533
31
0.0
0
LINE
8
WALLS_INNER
62
8
10
0.068
20
16.533
30
0.0
11
0.068
21
11.668
31
0.0
0
LINE
8
DOORS
62
1
10
2.550
20
16.600
30
0.0
11
3.450
21
16.600
31
0.0
0
ARC
8
DOORS
62
6
10
2.550
20
16.600
30
0.0
40
0.900
50
0.000
51
90.000
0
LINE
8
FIXTURES
62
3
10
0.300
20
11.950
30
0.0
11
5.700
21
11.950
31
0.0
0
LINE
8
FIXTURES
62
3
10
0.300
20
12.450
30
0.0
11
5.700
21
12.450
31
0.0
0
CIRCLE
8
FIXTURES
62
1
10
3.000
20
12.180
30
0.0
40
0.120
0
TEXT
8
TEXT
62
2
10
1.920
20
14.200
30
0.0
40
0.220
1
Cozinha gourmet
0
TEXT
8
TEXT
62
8
10
1.800
20
13.900
30
0.0
40
0.140
1
6.00 x 5.00 m
0
LINE
8
WALLS
62
7
10
0.000
20
20.400
30
0.0
11
7.000
21
20.400
31
0.0
0
LINE
8
WALLS
62
7
10
7.000
20
20.400
30
0.0
11
7.000
21
24.400
31
0.0
0
LINE
8
WALLS
62
7
10
7.000
20
24.400
30
0.0
11
0.000
21
24.400
31
0.0
0
LINE
8
WALLS
62
7
10
0.000
20
24.400
30
0.0
11
0.000
21
20.400
31
0.0
0
LINE
8
WALLS_INNER
62
8
10
0.068
20
20.467
30
0.0
11
6.933
21
20.467
31
0.0
0
LINE
8
WALLS_INNER
62
8
10
6.933
20
20.467
30
0.0
11
6.933
21
24.332
31
0.0
0
LINE
8
WALLS_INNER
62
8
10
6.933
20
24.332
30
0.0
11
0.068
21
24.332
31
0.0
0
LINE
8
WALLS_INNER
62
8
10
0.068
20
24.332
30
0.0
11
0.068
21
20.467
31
0.0
0
LINE
8
DOORS
62
1
10
3.050
20
20.400
30
0.0
11
3.950
21
20.400
31
0.0
0
ARC
8
DOORS
62
6
10
3.950
20
20.400
30
0.0
40
0.900
50
180.000
51
270.000
0
LINE
8
WINDOWS
62
5
10
2.800
20
20.450
30
0.0
11
4.200
21
20.450
31
0.0
0
LINE
8
WINDOWS
62
5
10
2.800
20
24.350
30
0.0
11
4.200
21
24.350
31
0.0
0
TEXT
8
TEXT
62
2
10
2.240
20
22.500
30
0.0
40
0.220
1
Espaco gourmet
0
TEXT
8
TEXT
62
8
10
2.100
20
22.200
30
0.0
40
0.140
1
7.00 x 4.00 m
0
LINE
8
WALLS
62
7
10
5.325
20
21.200
30
0.0
11
6.675
21
21.200
31
0.0
0
LINE
8
WALLS
62
7
10
6.675
20
21.200
30
0.0
11
6.675
21
26.400
31
0.0
0
LINE
8
WALLS
62
7
10
6.675
20
26.400
30
0.0
11
5.325
21
26.400
31
0.0
0
LINE
8
WALLS
62
7
10
5.325
20
26.400
30
0.0
11
5.325
21
21.200
31
0.0
0
LINE
8
WALLS_INNER
62
8
10
5.393
20
21.267
30
0.0
11
6.608
21
21.267
31
0.0
0
LINE
8
WALLS_INNER
62
8
10
6.608
20
21.267
30
0.0
11
6.608
21
26.332
31
0.0
0
LINE
8
WALLS_INNER
62
8
10
6.608
20
26.332
30
0.0
11
5.393
21
26.332
31
0.0
0
LINE
8
WALLS_INNER
62
8
10
5.393
20
26.332
30
0.0
11
5.393
21
21.267
31
0.0
0
LINE
8
DOORS
62
1
10
5.325
20
23.425
30
0.0
11
5.325
21
24.175
31
0.0
0
ARC
8
DOORS
62
6
10
5.325
20
23.425
30
0.0
40
0.750
50
270.000
51
360.000
0
TEXT
8
TEXT
62
5
10
5.550
20
23.800
30
0.0
40
0.160
1
CIRC
0
TEXT
8
TEXT
62
2
10
5.757
20
23.900
30
0.0
40
0.220
1
Corredor
0
TEXT
8
TEXT
62
8
10
5.730
20
23.600
30
0.0
40
0.140
1
1.35 x 5.20 m
0
LINE
8
WALLS
62
7
10
5.325
20
21.200
30
0.0
11
6.675
21
21.200
31
0.0
0
LINE
8
WALLS
62
7
10
6.675
20
21.200
30
0.0
11
6.675
21
25.400
31
0.0
0
LINE
8
WALLS
62
7
10
6.675
20
25.400
30
0.0
11
5.325
21
25.400
31
0.0
0
LINE
8
WALLS
62
7
10
5.325
20
25.400
30
0.0
11
5.325
21
21.200
31
0.0
0
LINE
8
WALLS_INNER
62
8
10
5.393
20
21.267
30
0.0
11
6.608
21
21.267
31
0.0
0
LINE
8
WALLS_INNER
62
8
10
6.608
20
21.267
30
0.0
11
6.608
21
25.332
31
0.0
0
LINE
8
WALLS_INNER
62
8
10
6.608
20
25.332
30
0.0
11
5.393
21
25.332
31
0.0
0
LINE
8
WALLS_INNER
62
8
10
5.393
20
25.332
30
0.0
11
5.393
21
21.267
31
0.0
0
LINE
8
DOORS
62
1
10
5.325
20
22.925
30
0.0
11
5.325
21
23.675
31
0.0
0
ARC
8
DOORS
62
6
10
5.325
20
22.925
30
0.0
40
0.750
50
270.000
51
360.000
0
TEXT
8
TEXT
62
5
10
5.550
20
23.300
30
0.0
40
0.160
1
CIRC
0
TEXT
8
TEXT
62
2
10
5.757
20
23.400
30
0.0
40
0.220
1
Hall
0
TEXT
8
TEXT
62
8
10
5.730
20
23.100
30
0.0
40
0.140
1
1.35 x 4.20 m
0
LINE
8
WALLS
62
7
10
9.975
20
21.200
30
0.0
11
11.975
21
21.200
31
0.0
0
LINE
8
WALLS
62
7
10
11.975
20
21.200
30
0.0
11
11.975
21
23.000
31
0.0
0
LINE
8
WALLS
62
7
10
11.975
20
23.000
30
0.0
11
9.975
21
23.000
31
0.0
0
LINE
8
WALLS
62
7
10
9.975
20
23.000
30
0.0
11
9.975
21
21.200
31
0.0
0
LINE
8
WALLS_INNER
62
8
10
10.043
20
21.267
30
0.0
11
11.907
21
21.267
31
0.0
0
LINE
8
WALLS_INNER
62
8
10
11.907
20
21.267
30
0.0
11
11.907
21
22.933
31
0.0
0
LINE
8
WALLS_INNER
62
8
10
11.907
20
22.933
30
0.0
11
10.043
21
22.933
31
0.0
0
LINE
8
WALLS_INNER
62
8
10
10.043
20
22.933
30
0.0
11
10.043
21
21.267
31
0.0
0
LINE
8
DOORS
62
1
10
10.600
20
23.000
30
0.0
11
11.350
21
23.000
31
0.0
0
ARC
8
DOORS
62
6
10
10.600
20
23.000
30
0.0
40
0.750
50
0.000
51
90.000
0
CIRCLE
8
FIXTURES
62
2
10
10.425
20
21.650
30
0.0
40
0.180
0
LINE
8
FIXTURES
62
4
10
11.225
20
21.550
30
0.0
11
11.725
21
21.550
31
0.0
0
LINE
8
FIXTURES
62
4
10
11.725
20
21.550
30
0.0
11
11.725
21
22.050
31
0.0
0
LINE
8
FIXTURES
62
4
10
11.725
20
22.050
30
0.0
11
11.225
21
22.050
31
0.0
0
LINE
8
FIXTURES
62
4
10
11.225
20
22.050
30
0.0
11
11.225
21
21.550
31
0.0
0
TEXT
8
TEXT
62
2
10
10.615
20
22.200
30
0.0
40
0.220
1
Lavabo
0
TEXT
8
TEXT
62
8
10
10.575
20
21.900
30
0.0
40
0.140
1
2.00 x 1.80 m
0
LINE
8
WALLS
62
7
10
7.175
20
26.700
30
0.0
11
10.675
21
26.700
31
0.0
0
LINE
8
WALLS
62
7
10
10.675
20
26.700
30
0.0
11
10.675
21
29.700
31
0.0
0
LINE
8
WALLS
62
7
10
10.675
20
29.700
30
0.0
11
7.175
21
29.700
31
0.0
0
LINE
8
WALLS
62
7
10
7.175
20
29.700
30
0.0
11
7.175
21
26.700
31
0.0
0
LINE
8
WALLS_INNER
62
8
10
7.242
20
26.767
30
0.0
11
10.607
21
26.767
31
0.0
0
LINE
8
WALLS_INNER
62
8
10
10.607
20
26.767
30
0.0
11
10.607
21
29.633
31
0.0
0
LINE
8
WALLS_INNER
62
8
10
10.607
20
29.633
30
0.0
11
7.242
21
29.633
31
0.0
0
LINE
8
WALLS_INNER
62
8
10
7.242
20
29.633
30
0.0
11
7.242
21
26.767
31
0.0
0
LINE
8
DOORS
62
1
10
8.505
20
29.700
30
0.0
11
9.345
21
29.700
31
0.0
0
ARC
8
DOORS
62
6
10
8.505
20
29.700
30
0.0
40
0.840
50
0.000
51
90.000
0
TEXT
8
TEXT
62
2
10
8.295
20
28.300
30
0.0
40
0.220
1
Area de servico
0
TEXT
8
TEXT
62
8
10
8.225
20
28.000
30
0.0
40
0.140
1
3.50 x 3.00 m
0
LINE
8
WALLS
62
7
10
4.700
20
30.000
30
0.0
11
7.300
21
30.000
31
0.0
0
LINE
8
WALLS
62
7
10
7.300
20
30.000
30
0.0
11
7.300
21
34.200
31
0.0
0
LINE
8
WALLS
62
7
10
7.300
20
34.200
30
0.0
11
4.700
21
34.200
31
0.0
0
LINE
8
WALLS
62
7
10
4.700
20
34.200
30
0.0
11
4.700
21
30.000
31
0.0
0
LINE
8
WALLS_INNER
62
8
10
4.768
20
30.067
30
0.0
11
7.233
21
30.067
31
0.0
0
LINE
8
WALLS_INNER
62
8
10
7.233
20
30.067
30
0.0
11
7.233
21
34.133
31
0.0
0
LINE
8
WALLS_INNER
62
8
10
7.233
20
34.133
30
0.0
11
4.768
21
34.133
31
0.0
0
LINE
8
WALLS_INNER
62
8
10
4.768
20
34.133
30
0.0
11
4.768
21
30.067
31
0.0
0
LINE
8
DOORS
62
1
10
5.625
20
34.200
30
0.0
11
6.375
21
34.200
31
0.0
0
ARC
8
DOORS
62
6
10
5.625
20
34.200
30
0.0
40
0.750
50
0.000
51
90.000
0
LINE
8
STAIRS
62
4
10
4.860
20
30.180
30
0.0
11
7.140
21
30.180
31
0.0
0
LINE
8
STAIRS
62
4
10
4.860
20
34.020
30
0.0
11
7.140
21
34.020
31
0.0
0
LINE
8
STAIRS
62
1
10
4.860
20
32.100
30
0.0
11
7.140
21
32.100
31
0.0
0
LINE
8
STAIRS
62
4
10
4.860
20
30.280
30
0.0
11
7.140
21
30.280
31
0.0
0
LINE
8
STAIRS
62
4
10
4.860
20
30.560
30
0.0
11
7.140
21
30.560
31
0.0
0
LINE
8
STAIRS
62
4
10
4.860
20
30.840
30
0.0
11
7.140
21
30.840
31
0.0
0
LINE
8
STAIRS
62
4
10
4.860
20
31.120
30
0.0
11
7.140
21
31.120
31
0.0
0
LINE
8
STAIRS
62
4
10
4.860
20
31.400
30
0.0
11
7.140
21
31.400
31
0.0
0
LINE
8
STAIRS
62
4
10
4.860
20
31.680
30
0.0
11
7.140
21
31.680
31
0.0
0
LINE
8
STAIRS
62
4
10
4.860
20
32.520
30
0.0
11
7.140
21
32.520
31
0.0
0
LINE
8
STAIRS
62
4
10
4.860
20
32.800
30
0.0
11
7.140
21
32.800
31
0.0
0
LINE
8
STAIRS
62
4
10
4.860
20
33.080
30
0.0
11
7.140
21
33.080
31
0.0
0
LINE
8
STAIRS
62
4
10
4.860
20
33.360
30
0.0
11
7.140
21
33.360
31
0.0
0
LINE
8
STAIRS
62
4
10
4.860
20
33.640
30
0.0
11
7.140
21
33.640
31
0.0
0
LINE
8
STAIRS
62
4
10
4.860
20
33.920
30
0.0
11
7.140
21
33.920
31
0.0
0
TEXT
8
STAIRS
62
1
10
5.584
20
32.100
30
0.0
40
0.180
1
UP
0
TEXT
8
TEXT
62
2
10
5.532
20
32.200
30
0.0
40
0.220
1
Escada
0
TEXT
8
TEXT
62
8
10
5.480
20
31.900
30
0.0
40
0.140
1
2.60 x 4.20 m
0
LINE
8
WALLS
62
7
10
3.750
20
34.500
30
0.0
11
8.250
21
34.500
31
0.0
0
LINE
8
WALLS
62
7
10
8.250
20
34.500
30
0.0
11
8.250
21
38.500
31
0.0
0
LINE
8
WALLS
62
7
10
8.250
20
38.500
30
0.0
11
3.750
21
38.500
31
0.0
0
LINE
8
WALLS
62
7
10
3.750
20
38.500
30
0.0
11
3.750
21
34.500
31
0.0
0
LINE
8
WALLS_INNER
62
8
10
3.817
20
34.568
30
0.0
11
8.182
21
34.568
31
0.0
0
LINE
8
WALLS_INNER
62
8
10
8.182
20
34.568
30
0.0
11
8.182
21
38.432
31
0.0
0
LINE
8
WALLS_INNER
62
8
10
8.182
20
38.432
30
0.0
11
3.817
21
38.432
31
0.0
0
LINE
8
WALLS_INNER
62
8
10
3.817
20
38.432
30
0.0
11
3.817
21
34.568
31
0.0
0
LINE
8
DOORS
62
1
10
5.550
20
38.500
30
0.0
11
6.450
21
38.500
31
0.0
0
ARC
8
DOORS
62
6
10
5.550
20
38.500
30
0.0
40
0.900
50
0.000
51
90.000
0
LINE
8
WINDOWS
62
5
10
5.370
20
38.450
30
0.0
11
6.630
21
38.450
31
0.0
0
LINE
8
FURNITURE
62
6
10
4.100
20
34.900
30
0.0
11
5.700
21
34.900
31
0.0
0
LINE
8
FURNITURE
62
6
10
5.700
20
34.900
30
0.0
11
5.700
21
35.500
31
0.0
0
LINE
8
FURNITURE
62
6
10
5.700
20
35.500
30
0.0
11
4.100
21
35.500
31
0.0
0
LINE
8
FURNITURE
62
6
10
4.100
20
35.500
30
0.0
11
4.100
21
34.900
31
0.0
0
LINE
8
FURNITURE
62
6
10
4.200
20
37.500
30
0.0
11
4.950
21
37.500
31
0.0
0
LINE
8
FURNITURE
62
6
10
4.950
20
37.500
30
0.0
11
4.950
21
37.950
31
0.0
0
LINE
8
FURNITURE
62
6
10
4.950
20
37.950
30
0.0
11
4.200
21
37.950
31
0.0
0
LINE
8
FURNITURE
62
6
10
4.200
20
37.950
30
0.0
11
4.200
21
37.500
31
0.0
0
TEXT
8
TEXT
62
2
10
5.190
20
36.600
30
0.0
40
0.220
1
Sala intima
0
TEXT
8
TEXT
62
8
10
5.100
20
36.300
30
0.0
40
0.140
1
4.50 x 4.00 m
0
LINE
8
WALLS
62
7
10
0.000
20
38.800
30
0.0
11
8.000
21
38.800
31
0.0
0
LINE
8
WALLS
62
7
10
8.000
20
38.800
30
0.0
11
8.000
21
42.800
31
0.0
0
LINE
8
WALLS
62
7
10
8.000
20
42.800
30
0.0
11
0.000
21
42.800
31
0.0
0
LINE
8
WALLS
62
7
10
0.000
20
42.800
30
0.0
11
0.000
21
38.800
31
0.0
0
LINE
8
WALLS_INNER
62
8
10
0.068
20
38.867
30
0.0
11
7.933
21
38.867
31
0.0
0
LINE
8
WALLS_INNER
62
8
10
7.933
20
38.867
30
0.0
11
7.933
21
42.732
31
0.0
0
LINE
8
WALLS_INNER
62
8
10
7.933
20
42.732
30
0.0
11
0.068
21
42.732
31
0.0
0
LINE
8
WALLS_INNER
62
8
10
0.068
20
42.732
30
0.0
11
0.068
21
38.867
31
0.0
0
LINE
8
DOORS
62
1
10
3.550
20
38.800
30
0.0
11
4.450
21
38.800
31
0.0
0
ARC
8
DOORS
62
6
10
4.450
20
38.800
30
0.0
40
0.900
50
180.000
51
270.000
0
LINE
8
WINDOWS
62
5
10
3.300
20
38.850
30
0.0
11
4.700
21
38.850
31
0.0
0
LINE
8
LANDSCAPE
62
4
10
0.350
20
39.150
30
0.0
11
7.650
21
39.150
31
0.0
0
LINE
8
LANDSCAPE
62
4
10
7.650
20
39.150
30
0.0
11
7.650
21
42.450
31
0.0
0
LINE
8
LANDSCAPE
62
4
10
7.650
20
42.450
30
0.0
11
0.350
21
42.450
31
0.0
0
LINE
8
LANDSCAPE
62
4
10
0.350
20
42.450
30
0.0
11
0.350
21
39.150
31
0.0
0
TEXT
8
TEXT
62
2
10
2.560
20
40.900
30
0.0
40
0.220
1
Piscina
0
TEXT
8
TEXT
62
8
10
2.400
20
40.600
30
0.0
40
0.140
1
8.00 x 4.00 m
0
LINE
8
WALLS
62
7
10
0.000
20
43.100
30
0.0
11
6.000
21
43.100
31
0.0
0
LINE
8
WALLS
62
7
10
6.000
20
43.100
30
0.0
11
6.000
21
45.600
31
0.0
0
LINE
8
WALLS
62
7
10
6.000
20
45.600
30
0.0
11
0.000
21
45.600
31
0.0
0
LINE
8
WALLS
62
7
10
0.000
20
45.600
30
0.0
11
0.000
21
43.100
31
0.0
0
LINE
8
WALLS_INNER
62
8
10
0.068
20
43.168
30
0.0
11
5.933
21
43.168
31
0.0
0
LINE
8
WALLS_INNER
62
8
10
5.933
20
43.168
30
0.0
11
5.933
21
45.532
31
0.0
0
LINE
8
WALLS_INNER
62
8
10
5.933
20
45.532
30
0.0
11
0.068
21
45.532
31
0.0
0
LINE
8
WALLS_INNER
62
8
10
0.068
20
45.532
30
0.0
11
0.068
21
43.168
31
0.0
0
LINE
8
DOORS
62
1
10
2.550
20
43.100
30
0.0
11
3.450
21
43.100
31
0.0
0
ARC
8
DOORS
62
6
10
3.450
20
43.100
30
0.0
40
0.900
50
180.000
51
270.000
0
LINE
8
WINDOWS
62
5
10
2.300
20
43.150
30
0.0
11
3.700
21
43.150
31
0.0
0
LINE
8
WINDOWS
62
5
10
2.300
20
45.550
30
0.0
11
3.700
21
45.550
31
0.0
0
TEXT
8
TEXT
62
2
10
1.920
20
44.450
30
0.0
40
0.220
1
Varanda
0
TEXT
8
TEXT
62
8
10
1.800
20
44.150
30
0.0
40
0.140
1
6.00 x 2.50 m
0
LINE
8
CIRCULATION
62
8
10
6.000
20
23.800
30
0.0
11
6.000
21
23.300
31
0.0
0
LINE
8
CIRCULATION
62
8
10
6.000
20
23.300
30
0.0
11
6.000
21
23.300
31
0.0
0
LINE
8
CIRCULATION
62
8
10
6.000
20
23.800
30
0.0
11
6.000
21
36.500
31
0.0
0
LINE
8
CIRCULATION
62
8
10
6.000
20
36.500
30
0.0
11
6.000
21
36.500
31
0.0
0
LINE
8
CIRCULATION
62
8
10
6.000
20
23.800
30
0.0
11
6.000
21
8.800
31
0.0
0
LINE
8
CIRCULATION
62
8
10
6.000
20
8.800
30
0.0
11
3.000
21
8.800
31
0.0
0
LINE
8
CIRCULATION
62
8
10
6.000
20
23.300
30
0.0
11
6.000
21
36.500
31
0.0
0
LINE
8
CIRCULATION
62
8
10
6.000
20
36.500
30
0.0
11
6.000
21
36.500
31
0.0
0
LINE
8
CIRCULATION
62
8
10
6.000
20
23.300
30
0.0
11
6.000
21
8.800
31
0.0
0
LINE
8
CIRCULATION
62
8
10
6.000
20
8.800
30
0.0
11
3.000
21
8.800
31
0.0
0
LINE
8
CIRCULATION
62
8
10
6.000
20
32.100
30
0.0
11
6.000
21
23.300
31
0.0
0
LINE
8
CIRCULATION
62
8
10
6.000
20
23.300
30
0.0
11
6.000
21
23.300
31
0.0
0
LINE
8
CIRCULATION
62
8
10
6.000
20
32.100
30
0.0
11
6.000
21
36.500
31
0.0
0
LINE
8
CIRCULATION
62
8
10
6.000
20
36.500
30
0.0
11
6.000
21
36.500
31
0.0
0
LINE
8
CIRCULATION
62
8
10
6.000
20
32.100
30
0.0
11
6.000
21
8.800
31
0.0
0
LINE
8
CIRCULATION
62
8
10
6.000
20
8.800
30
0.0
11
3.000
21
8.800
31
0.0
0
TEXT
8
TEXT
62
3
10
0.000
20
28.600
30
0.0
40
0.320
1
Projeto beta - casa - PAVIMENTO 2
0
LINE
8
GUIDES
62
9
10
-0.400
20
28.950
30
0.0
11
16.000
21
28.950
31
0.0
0
TEXT
8
TEXT
62
5
10
13.100
20
28.950
30
0.0
40
0.200
1
PROCESSAMENTO IA
0
TEXT
8
TEXT
62
8
10
13.100
20
28.500
30
0.0
40
0.140
1
- Projeto multi-pavimento com setor intimo elevado.
0
TEXT
8
TEXT
62
8
10
13.100
20
28.180
30
0.0
40
0.140
1
- Garagem posicionada como ancora frontal de acesso.
0
TEXT
8
TEXT
62
8
10
13.100
20
27.860
30
0.0
40
0.140
1
- Area de lazer conectada ao nucleo social.
0
TEXT
8
TEXT
62
8
10
13.100
20
27.540
30
0.0
40
0.140
1
- Suite master tratada como conjunto privativo com apoio molhado.
0
TEXT
8
TEXT
62
8
10
13.100
20
27.220
30
0.0
40
0.140
1
- Sobrado: base social/servico no terreo e setor intimo no pavimento superior.
0
LINE
8
DIMS
62
1
10
0.000
20
29.250
30
0.0
11
12.000
21
29.250
31
0.0
0
LINE
8
DIMS
62
1
10
0.000
20
29.100
30
0.0
11
0.000
21
29.500
31
0.0
0
LINE
8
DIMS
62
1
10
12.000
20
29.100
30
0.0
11
12.000
21
29.500
31
0.0
0
TEXT
8
DIMS
62
1
10
5.550
20
29.330
30
0.0
40
0.140
1
12.00m
0
LINE
8
DIMS
62
1
10
12.450
20
29.500
30
0.0
11
12.450
21
48.900
31
0.0
0
LINE
8
DIMS
62
1
10
12.000
20
29.500
30
0.0
11
12.600
21
29.500
31
0.0
0
LINE
8
DIMS
62
1
10
12.000
20
48.900
30
0.0
11
12.600
21
48.900
31
0.0
0
TEXT
8
DIMS
62
1
10
12.530
20
39.200
30
0.0
40
0.140
1
19.40m
0
LINE
8
PLOT
62
8
10
0.000
20
29.500
30
0.0
11
12.000
21
29.500
31
0.0
0
LINE
8
PLOT
62
8
10
12.000
20
29.500
30
0.0
11
12.000
21
54.500
31
0.0
0
LINE
8
PLOT
62
8
10
12.000
20
54.500
30
0.0
11
0.000
21
54.500
31
0.0
0
LINE
8
PLOT
62
8
10
0.000
20
54.500
30
0.0
11
0.000
21
29.500
31
0.0
0
LINE
8
WALLS
62
7
10
5.325
20
29.500
30
0.0
11
6.675
21
29.500
31
0.0
0
LINE
8
WALLS
62
7
10
6.675
20
29.500
30
0.0
11
6.675
21
34.700
31
0.0
0
LINE
8
WALLS
62
7
10
6.675
20
34.700
30
0.0
11
5.325
21
34.700
31
0.0
0
LINE
8
WALLS
62
7
10
5.325
20
34.700
30
0.0
11
5.325
21
29.500
31
0.0
0
LINE
8
WALLS_INNER
62
8
10
5.393
20
29.567
30
0.0
11
6.608
21
29.567
31
0.0
0
LINE
8
WALLS_INNER
62
8
10
6.608
20
29.567
30
0.0
11
6.608
21
34.633
31
0.0
0
LINE
8
WALLS_INNER
62
8
10
6.608
20
34.633
30
0.0
11
5.393
21
34.633
31
0.0
0
LINE
8
WALLS_INNER
62
8
10
5.393
20
34.633
30
0.0
11
5.393
21
29.567
31
0.0
0
LINE
8
DOORS
62
1
10
5.325
20
31.725
30
0.0
11
5.325
21
32.475
31
0.0
0
ARC
8
DOORS
62
6
10
5.325
20
31.725
30
0.0
40
0.750
50
270.000
51
360.000
0
LINE
8
WINDOWS
62
5
10
5.550
20
29.550
30
0.0
11
6.450
21
29.550
31
0.0
0
TEXT
8
TEXT
62
5
10
5.550
20
32.100
30
0.0
40
0.160
1
CIRC
0
TEXT
8
TEXT
62
2
10
5.757
20
32.200
30
0.0
40
0.220
1
Corredor
0
TEXT
8
TEXT
62
8
10
5.730
20
31.900
30
0.0
40
0.140
1
1.35 x 5.20 m
0
LINE
8
WALLS
62
7
10
5.325
20
29.500
30
0.0
11
6.675
21
29.500
31
0.0
0
LINE
8
WALLS
62
7
10
6.675
20
29.500
30
0.0
11
6.675
21
33.700
31
0.0
0
LINE
8
WALLS
62
7
10
6.675
20
33.700
30
0.0
11
5.325
21
33.700
31
0.0
0
LINE
8
WALLS
62
7
10
5.325
20
33.700
30
0.0
11
5.325
21
29.500
31
0.0
0
LINE
8
WALLS_INNER
62
8
10
5.393
20
29.567
30
0.0
11
6.608
21
29.567
31
0.0
0
LINE
8
WALLS_INNER
62
8
10
6.608
20
29.567
30
0.0
11
6.608
21
33.633
31
0.0
0
LINE
8
WALLS_INNER
62
8
10
6.608
20
33.633
30
0.0
11
5.393
21
33.633
31
0.0
0
LINE
8
WALLS_INNER
62
8
10
5.393
20
33.633
30
0.0
11
5.393
21
29.567
31
0.0
0
LINE
8
DOORS
62
1
10
5.325
20
31.225
30
0.0
11
5.325
21
31.975
31
0.0
0
ARC
8
DOORS
62
6
10
5.325
20
31.225
30
0.0
40
0.750
50
270.000
51
360.000
0
LINE
8
WINDOWS
62
5
10
5.550
20
29.550
30
0.0
11
6.450
21
29.550
31
0.0
0
TEXT
8
TEXT
62
5
10
5.550
20
31.600
30
0.0
40
0.160
1
CIRC
0
TEXT
8
TEXT
62
2
10
5.757
20
31.700
30
0.0
40
0.220
1
Hall Intimo
0
TEXT
8
TEXT
62
8
10
5.730
20
31.400
30
0.0
40
0.140
1
1.35 x 4.20 m
0
LINE
8
WALLS
62
7
10
4.700
20
29.500
30
0.0
11
7.300
21
29.500
31
0.0
0
LINE
8
WALLS
62
7
10
7.300
20
29.500
30
0.0
11
7.300
21
33.700
31
0.0
0
LINE
8
WALLS
62
7
10
7.300
20
33.700
30
0.0
11
4.700
21
33.700
31
0.0
0
LINE
8
WALLS
62
7
10
4.700
20
33.700
30
0.0
11
4.700
21
29.500
31
0.0
0
LINE
8
WALLS_INNER
62
8
10
4.768
20
29.567
30
0.0
11
7.233
21
29.567
31
0.0
0
LINE
8
WALLS_INNER
62
8
10
7.233
20
29.567
30
0.0
11
7.233
21
33.633
31
0.0
0
LINE
8
WALLS_INNER
62
8
10
7.233
20
33.633
30
0.0
11
4.768
21
33.633
31
0.0
0
LINE
8
WALLS_INNER
62
8
10
4.768
20
33.633
30
0.0
11
4.768
21
29.567
31
0.0
0
LINE
8
DOORS
62
1
10
5.625
20
33.700
30
0.0
11
6.375
21
33.700
31
0.0
0
ARC
8
DOORS
62
6
10
5.625
20
33.700
30
0.0
40
0.750
50
0.000
51
90.000
0
LINE
8
WINDOWS
62
5
10
5.550
20
29.550
30
0.0
11
6.450
21
29.550
31
0.0
0
LINE
8
STAIRS
62
4
10
4.860
20
29.680
30
0.0
11
7.140
21
29.680
31
0.0
0
LINE
8
STAIRS
62
4
10
4.860
20
33.520
30
0.0
11
7.140
21
33.520
31
0.0
0
LINE
8
STAIRS
62
1
10
4.860
20
31.600
30
0.0
11
7.140
21
31.600
31
0.0
0
LINE
8
STAIRS
62
4
10
4.860
20
29.780
30
0.0
11
7.140
21
29.780
31
0.0
0
LINE
8
STAIRS
62
4
10
4.860
20
30.060
30
0.0
11
7.140
21
30.060
31
0.0
0
LINE
8
STAIRS
62
4
10
4.860
20
30.340
30
0.0
11
7.140
21
30.340
31
0.0
0
LINE
8
STAIRS
62
4
10
4.860
20
30.620
30
0.0
11
7.140
21
30.620
31
0.0
0
LINE
8
STAIRS
62
4
10
4.860
20
30.900
30
0.0
11
7.140
21
30.900
31
0.0
0
LINE
8
STAIRS
62
4
10
4.860
20
31.180
30
0.0
11
7.140
21
31.180
31
0.0
0
LINE
8
STAIRS
62
4
10
4.860
20
32.020
30
0.0
11
7.140
21
32.020
31
0.0
0
LINE
8
STAIRS
62
4
10
4.860
20
32.300
30
0.0
11
7.140
21
32.300
31
0.0
0
LINE
8
STAIRS
62
4
10
4.860
20
32.580
30
0.0
11
7.140
21
32.580
31
0.0
0
LINE
8
STAIRS
62
4
10
4.860
20
32.860
30
0.0
11
7.140
21
32.860
31
0.0
0
LINE
8
STAIRS
62
4
10
4.860
20
33.140
30
0.0
11
7.140
21
33.140
31
0.0
0
LINE
8
STAIRS
62
4
10
4.860
20
33.420
30
0.0
11
7.140
21
33.420
31
0.0
0
TEXT
8
STAIRS
62
1
10
5.584
20
31.600
30
0.0
40
0.180
1
UP
0
TEXT
8
TEXT
62
2
10
5.532
20
31.700
30
0.0
40
0.220
1
Escada
0
TEXT
8
TEXT
62
8
10
5.480
20
31.400
30
0.0
40
0.140
1
2.60 x 4.20 m
0
LINE
8
WALLS
62
7
10
3.840
20
35.000
30
0.0
11
8.160
21
35.000
31
0.0
0
LINE
8
WALLS
62
7
10
8.160
20
35.000
30
0.0
11
8.160
21
38.800
31
0.0
0
LINE
8
WALLS
62
7
10
8.160
20
38.800
30
0.0
11
3.840
21
38.800
31
0.0
0
LINE
8
WALLS
62
7
10
3.840
20
38.800
30
0.0
11
3.840
21
35.000
31
0.0
0
LINE
8
WALLS_INNER
62
8
10
3.907
20
35.068
30
0.0
11
8.092
21
35.068
31
0.0
0
LINE
8
WALLS_INNER
62
8
10
8.092
20
35.068
30
0.0
11
8.092
21
38.732
31
0.0
0
LINE
8
WALLS_INNER
62
8
10
8.092
20
38.732
30
0.0
11
3.907
21
38.732
31
0.0
0
LINE
8
WALLS_INNER
62
8
10
3.907
20
38.732
30
0.0
11
3.907
21
35.068
31
0.0
0
LINE
8
DOORS
62
1
10
5.550
20
38.800
30
0.0
11
6.450
21
38.800
31
0.0
0
ARC
8
DOORS
62
6
10
5.550
20
38.800
30
0.0
40
0.900
50
0.000
51
90.000
0
LINE
8
FURNITURE
62
6
10
4.190
20
35.400
30
0.0
11
5.790
21
35.400
31
0.0
0
LINE
8
FURNITURE
62
6
10
5.790
20
35.400
30
0.0
11
5.790
21
36.000
31
0.0
0
LINE
8
FURNITURE
62
6
10
5.790
20
36.000
30
0.0
11
4.190
21
36.000
31
0.0
0
LINE
8
FURNITURE
62
6
10
4.190
20
36.000
30
0.0
11
4.190
21
35.400
31
0.0
0
LINE
8
FURNITURE
62
6
10
4.290
20
37.800
30
0.0
11
5.040
21
37.800
31
0.0
0
LINE
8
FURNITURE
62
6
10
5.040
20
37.800
30
0.0
11
5.040
21
38.250
31
0.0
0
LINE
8
FURNITURE
62
6
10
5.040
20
38.250
30
0.0
11
4.290
21
38.250
31
0.0
0
LINE
8
FURNITURE
62
6
10
4.290
20
38.250
30
0.0
11
4.290
21
37.800
31
0.0
0
TEXT
8
TEXT
62
2
10
5.222
20
37.000
30
0.0
40
0.220
1
Sala Intima
0
TEXT
8
TEXT
62
8
10
5.136
20
36.700
30
0.0
40
0.140
1
4.32 x 3.80 m
0
LINE
8
WALLS
62
7
10
0.150
20
39.100
30
0.0
11
7.150
21
39.100
31
0.0
0
LINE
8
WALLS
62
7
10
7.150
20
39.100
30
0.0
11
7.150
21
45.100
31
0.0
0
LINE
8
WALLS
62
7
10
7.150
20
45.100
30
0.0
11
0.150
21
45.100
31
0.0
0
LINE
8
WALLS
62
7
10
0.150
20
45.100
30
0.0
11
0.150
21
39.100
31
0.0
0
LINE
8
WALLS_INNER
62
8
10
0.217
20
39.168
30
0.0
11
7.083
21
39.168
31
0.0
0
LINE
8
WALLS_INNER
62
8
10
7.083
20
39.168
30
0.0
11
7.083
21
45.032
31
0.0
0
LINE
8
WALLS_INNER
62
8
10
7.083
20
45.032
30
0.0
11
0.217
21
45.032
31
0.0
0
LINE
8
WALLS_INNER
62
8
10
0.217
20
45.032
30
0.0
11
0.217
21
39.168
31
0.0
0
LINE
8
DOORS
62
1
10
3.200
20
45.100
30
0.0
11
4.100
21
45.100
31
0.0
0
ARC
8
DOORS
62
6
10
3.200
20
45.100
30
0.0
40
0.900
50
0.000
51
90.000
0
LINE
8
FURNITURE
62
6
10
0.500
20
39.450
30
0.0
11
2.600
21
39.450
31
0.0
0
LINE
8
FURNITURE
62
6
10
2.600
20
39.450
30
0.0
11
2.600
21
40.950
31
0.0
0
LINE
8
FURNITURE
62
6
10
2.600
20
40.950
30
0.0
11
0.500
21
40.950
31
0.0
0
LINE
8
FURNITURE
62
6
10
0.500
20
40.950
30
0.0
11
0.500
21
39.450
31
0.0
0
LINE
8
FURNITURE
62
8
10
0.600
20
39.550
30
0.0
11
1.050
21
39.550
31
0.0
0
LINE
8
FURNITURE
62
8
10
1.050
20
39.550
30
0.0
11
1.050
21
40.850
31
0.0
0
LINE
8
FURNITURE
62
8
10
1.050
20
40.850
30
0.0
11
0.600
21
40.850
31
0.0
0
LINE
8
FURNITURE
62
8
10
0.600
20
40.850
30
0.0
11
0.600
21
39.550
31
0.0
0
TEXT
8
TEXT
62
2
10
2.390
20
42.200
30
0.0
40
0.220
1
Suite master
0
TEXT
8
TEXT
62
8
10
2.250
20
41.900
30
0.0
40
0.140
1
7.00 x 6.00 m
0
LINE
8
WALLS
62
7
10
7.450
20
42.600
30
0.0
11
10.450
21
42.600
31
0.0
0
LINE
8
WALLS
62
7
10
10.450
20
42.600
30
0.0
11
10.450
21
45.100
31
0.0
0
LINE
8
WALLS
62
7
10
10.450
20
45.100
30
0.0
11
7.450
21
45.100
31
0.0
0
LINE
8
WALLS
62
7
10
7.450
20
45.100
30
0.0
11
7.450
21
42.600
31
0.0
0
LINE
8
WALLS_INNER
62
8
10
7.518
20
42.668
30
0.0
11
10.382
21
42.668
31
0.0
0
LINE
8
WALLS_INNER
62
8
10
10.382
20
42.668
30
0.0
11
10.382
21
45.032
31
0.0
0
LINE
8
WALLS_INNER
62
8
10
10.382
20
45.032
30
0.0
11
7.518
21
45.032
31
0.0
0
LINE
8
WALLS_INNER
62
8
10
7.518
20
45.032
30
0.0
11
7.518
21
42.668
31
0.0
0
LINE
8
DOORS
62
1
10
8.575
20
45.100
30
0.0
11
9.325
21
45.100
31
0.0
0
ARC
8
DOORS
62
6
10
8.575
20
45.100
30
0.0
40
0.750
50
0.000
51
90.000
0
TEXT
8
TEXT
62
2
10
8.410
20
43.950
30
0.0
40
0.220
1
Closet
0
TEXT
8
TEXT
62
8
10
8.350
20
43.650
30
0.0
40
0.140
1
3.00 x 2.50 m
0
LINE
8
WALLS
62
7
10
8.575
20
39.100
30
0.0
11
10.975
21
39.100
31
0.0
0
LINE
8
WALLS
62
7
10
10.975
20
39.100
30
0.0
11
10.975
21
41.300
31
0.0
0
LINE
8
WALLS
62
7
10
10.975
20
41.300
30
0.0
11
8.575
21
41.300
31
0.0
0
LINE
8
WALLS
62
7
10
8.575
20
41.300
30
0.0
11
8.575
21
39.100
31
0.0
0
LINE
8
WALLS_INNER
62
8
10
8.643
20
39.168
30
0.0
11
10.907
21
39.168
31
0.0
0
LINE
8
WALLS_INNER
62
8
10
10.907
20
39.168
30
0.0
11
10.907
21
41.233
31
0.0
0
LINE
8
WALLS_INNER
62
8
10
10.907
20
41.233
30
0.0
11
8.643
21
41.233
31
0.0
0
LINE
8
WALLS_INNER
62
8
10
8.643
20
41.233
30
0.0
11
8.643
21
39.168
31
0.0
0
LINE
8
DOORS
62
1
10
9.400
20
41.300
30
0.0
11
10.150
21
41.300
31
0.0
0
ARC
8
DOORS
62
6
10
9.400
20
41.300
30
0.0
40
0.750
50
0.000
51
90.000
0
CIRCLE
8
FIXTURES
62
2
10
9.025
20
39.550
30
0.0
40
0.180
0
LINE
8
FIXTURES
62
4
10
10.225
20
39.450
30
0.0
11
10.725
21
39.450
31
0.0
0
LINE
8
FIXTURES
62
4
10
10.725
20
39.450
30
0.0
11
10.725
21
39.950
31
0.0
0
LINE
8
FIXTURES
62
4
10
10.725
20
39.950
30
0.0
11
10.225
21
39.950
31
0.0
0
LINE
8
FIXTURES
62
4
10
10.225
20
39.950
30
0.0
11
10.225
21
39.450
31
0.0
0
TEXT
8
TEXT
62
2
10
9.343
20
40.300
30
0.0
40
0.220
1
Banheiro 1
0
TEXT
8
TEXT
62
8
10
9.295
20
40.000
30
0.0
40
0.140
1
2.40 x 2.20 m
0
LINE
8
WALLS
62
7
10
8.575
20
41.600
30
0.0
11
10.975
21
41.600
31
0.0
0
LINE
8
WALLS
62
7
10
10.975
20
41.600
30
0.0
11
10.975
21
43.800
31
0.0
0
LINE
8
WALLS
62
7
10
10.975
20
43.800
30
0.0
11
8.575
21
43.800
31
0.0
0
LINE
8
WALLS
62
7
10
8.575
20
43.800
30
0.0
11
8.575
21
41.600
31
0.0
0
LINE
8
WALLS_INNER
62
8
10
8.643
20
41.668
30
0.0
11
10.907
21
41.668
31
0.0
0
LINE
8
WALLS_INNER
62
8
10
10.907
20
41.668
30
0.0
11
10.907
21
43.733
31
0.0
0
LINE
8
WALLS_INNER
62
8
10
10.907
20
43.733
30
0.0
11
8.643
21
43.733
31
0.0
0
LINE
8
WALLS_INNER
62
8
10
8.643
20
43.733
30
0.0
11
8.643
21
41.668
31
0.0
0
LINE
8
DOORS
62
1
10
9.400
20
43.800
30
0.0
11
10.150
21
43.800
31
0.0
0
ARC
8
DOORS
62
6
10
9.400
20
43.800
30
0.0
40
0.750
50
0.000
51
90.000
0
CIRCLE
8
FIXTURES
62
2
10
9.025
20
42.050
30
0.0
40
0.180
0
LINE
8
FIXTURES
62
4
10
10.225
20
41.950
30
0.0
11
10.725
21
41.950
31
0.0
0
LINE
8
FIXTURES
62
4
10
10.725
20
41.950
30
0.0
11
10.725
21
42.450
31
0.0
0
LINE
8
FIXTURES
62
4
10
10.725
20
42.450
30
0.0
11
10.225
21
42.450
31
0.0
0
LINE
8
FIXTURES
62
4
10
10.225
20
42.450
30
0.0
11
10.225
21
41.950
31
0.0
0
TEXT
8
TEXT
62
2
10
9.343
20
42.800
30
0.0
40
0.220
1
Banheiro 2
0
TEXT
8
TEXT
62
8
10
9.295
20
42.500
30
0.0
40
0.140
1
2.40 x 2.20 m
0
LINE
8
WALLS
62
7
10
7.200
20
39.100
30
0.0
11
11.700
21
39.100
31
0.0
0
LINE
8
WALLS
62
7
10
11.700
20
39.100
30
0.0
11
11.700
21
43.100
31
0.0
0
LINE
8
WALLS
62
7
10
11.700
20
43.100
30
0.0
11
7.200
21
43.100
31
0.0
0
LINE
8
WALLS
62
7
10
7.200
20
43.100
30
0.0
11
7.200
21
39.100
31
0.0
0
LINE
8
WALLS_INNER
62
8
10
7.268
20
39.168
30
0.0
11
11.632
21
39.168
31
0.0
0
LINE
8
WALLS_INNER
62
8
10
11.632
20
39.168
30
0.0
11
11.632
21
43.032
31
0.0
0
LINE
8
WALLS_INNER
62
8
10
11.632
20
43.032
30
0.0
11
7.268
21
43.032
31
0.0
0
LINE
8
WALLS_INNER
62
8
10
7.268
20
43.032
30
0.0
11
7.268
21
39.168
31
0.0
0
LINE
8
DOORS
62
1
10
9.000
20
43.100
30
0.0
11
9.900
21
43.100
31
0.0
0
ARC
8
DOORS
62
6
10
9.000
20
43.100
30
0.0
40
0.900
50
0.000
51
90.000
0
LINE
8
FURNITURE
62
6
10
7.550
20
39.450
30
0.0
11
9.650
21
39.450
31
0.0
0
LINE
8
FURNITURE
62
6
10
9.650
20
39.450
30
0.0
11
9.650
21
40.950
31
0.0
0
LINE
8
FURNITURE
62
6
10
9.650
20
40.950
30
0.0
11
7.550
21
40.950
31
0.0
0
LINE
8
FURNITURE
62
6
10
7.550
20
40.950
30
0.0
11
7.550
21
39.450
31
0.0
0
LINE
8
FURNITURE
62
8
10
7.650
20
39.550
30
0.0
11
8.100
21
39.550
31
0.0
0
LINE
8
FURNITURE
62
8
10
8.100
20
39.550
30
0.0
11
8.100
21
40.850
31
0.0
0
LINE
8
FURNITURE
62
8
10
8.100
20
40.850
30
0.0
11
7.650
21
40.850
31
0.0
0
LINE
8
FURNITURE
62
8
10
7.650
20
40.850
30
0.0
11
7.650
21
39.550
31
0.0
0
TEXT
8
TEXT
62
2
10
8.640
20
41.200
30
0.0
40
0.220
1
Suite
0
TEXT
8
TEXT
62
8
10
8.550
20
40.900
30
0.0
40
0.140
1
4.50 x 4.00 m
0
LINE
8
WALLS
62
7
10
12.000
20
39.100
30
0.0
11
14.400
21
39.100
31
0.0
0
LINE
8
WALLS
62
7
10
14.400
20
39.100
30
0.0
11
14.400
21
41.300
31
0.0
0
LINE
8
WALLS
62
7
10
14.400
20
41.300
30
0.0
11
12.000
21
41.300
31
0.0
0
LINE
8
WALLS
62
7
10
12.000
20
41.300
30
0.0
11
12.000
21
39.100
31
0.0
0
LINE
8
WALLS_INNER
62
8
10
12.068
20
39.168
30
0.0
11
14.332
21
39.168
31
0.0
0
LINE
8
WALLS_INNER
62
8
10
14.332
20
39.168
30
0.0
11
14.332
21
41.233
31
0.0
0
LINE
8
WALLS_INNER
62
8
10
14.332
20
41.233
30
0.0
11
12.068
21
41.233
31
0.0
0
LINE
8
WALLS_INNER
62
8
10
12.068
20
41.233
30
0.0
11
12.068
21
39.168
31
0.0
0
LINE
8
DOORS
62
1
10
12.825
20
41.300
30
0.0
11
13.575
21
41.300
31
0.0
0
ARC
8
DOORS
62
6
10
12.825
20
41.300
30
0.0
40
0.750
50
0.000
51
90.000
0
LINE
8
WINDOWS
62
5
10
14.350
20
39.750
30
0.0
11
14.350
21
40.650
31
0.0
0
CIRCLE
8
FIXTURES
62
2
10
12.450
20
39.550
30
0.0
40
0.180
0
LINE
8
FIXTURES
62
4
10
13.650
20
39.450
30
0.0
11
14.150
21
39.450
31
0.0
0
LINE
8
FIXTURES
62
4
10
14.150
20
39.450
30
0.0
11
14.150
21
39.950
31
0.0
0
LINE
8
FIXTURES
62
4
10
14.150
20
39.950
30
0.0
11
13.650
21
39.950
31
0.0
0
LINE
8
FIXTURES
62
4
10
13.650
20
39.950
30
0.0
11
13.650
21
39.450
31
0.0
0
TEXT
8
TEXT
62
2
10
12.768
20
40.300
30
0.0
40
0.220
1
Banheiro 3
0
TEXT
8
TEXT
62
8
10
12.720
20
40.000
30
0.0
40
0.140
1
2.40 x 2.20 m
0
LINE
8
WALLS
62
7
10
0.150
20
45.400
30
0.0
11
3.650
21
45.400
31
0.0
0
LINE
8
WALLS
62
7
10
3.650
20
45.400
30
0.0
11
3.650
21
48.900
31
0.0
0
LINE
8
WALLS
62
7
10
3.650
20
48.900
30
0.0
11
0.150
21
48.900
31
0.0
0
LINE
8
WALLS
62
7
10
0.150
20
48.900
30
0.0
11
0.150
21
45.400
31
0.0
0
LINE
8
WALLS_INNER
62
8
10
0.217
20
45.468
30
0.0
11
3.583
21
45.468
31
0.0
0
LINE
8
WALLS_INNER
62
8
10
3.583
20
45.468
30
0.0
11
3.583
21
48.832
31
0.0
0
LINE
8
WALLS_INNER
62
8
10
3.583
20
48.832
30
0.0
11
0.217
21
48.832
31
0.0
0
LINE
8
WALLS_INNER
62
8
10
0.217
20
48.832
30
0.0
11
0.217
21
45.468
31
0.0
0
LINE
8
DOORS
62
1
10
1.480
20
48.900
30
0.0
11
2.320
21
48.900
31
0.0
0
ARC
8
DOORS
62
6
10
1.480
20
48.900
30
0.0
40
0.840
50
0.000
51
90.000
0
LINE
8
FURNITURE
62
6
10
0.500
20
45.750
30
0.0
11
2.600
21
45.750
31
0.0
0
LINE
8
FURNITURE
62
6
10
2.600
20
45.750
30
0.0
11
2.600
21
47.250
31
0.0
0
LINE
8
FURNITURE
62
6
10
2.600
20
47.250
30
0.0
11
0.500
21
47.250
31
0.0
0
LINE
8
FURNITURE
62
6
10
0.500
20
47.250
30
0.0
11
0.500
21
45.750
31
0.0
0
LINE
8
FURNITURE
62
8
10
0.600
20
45.850
30
0.0
11
1.050
21
45.850
31
0.0
0
LINE
8
FURNITURE
62
8
10
1.050
20
45.850
30
0.0
11
1.050
21
47.150
31
0.0
0
LINE
8
FURNITURE
62
8
10
1.050
20
47.150
30
0.0
11
0.600
21
47.150
31
0.0
0
LINE
8
FURNITURE
62
8
10
0.600
20
47.150
30
0.0
11
0.600
21
45.850
31
0.0
0
TEXT
8
TEXT
62
2
10
1.270
20
47.250
30
0.0
40
0.220
1
Quarto 1
0
TEXT
8
TEXT
62
8
10
1.200
20
46.950
30
0.0
40
0.140
1
3.50 x 3.50 m
0
LINE
8
WALLS
62
7
10
8.350
20
43.400
30
0.0
11
11.850
21
43.400
31
0.0
0
LINE
8
WALLS
62
7
10
11.850
20
43.400
30
0.0
11
11.850
21
46.900
31
0.0
0
LINE
8
WALLS
62
7
10
11.850
20
46.900
30
0.0
11
8.350
21
46.900
31
0.0
0
LINE
8
WALLS
62
7
10
8.350
20
46.900
30
0.0
11
8.350
21
43.400
31
0.0
0
LINE
8
WALLS_INNER
62
8
10
8.418
20
43.468
30
0.0
11
11.782
21
43.468
31
0.0
0
LINE
8
WALLS_INNER
62
8
10
11.782
20
43.468
30
0.0
11
11.782
21
46.832
31
0.0
0
LINE
8
WALLS_INNER
62
8
10
11.782
20
46.832
30
0.0
11
8.418
21
46.832
31
0.0
0
LINE
8
WALLS_INNER
62
8
10
8.418
20
46.832
30
0.0
11
8.418
21
43.468
31
0.0
0
LINE
8
DOORS
62
1
10
9.680
20
46.900
30
0.0
11
10.520
21
46.900
31
0.0
0
ARC
8
DOORS
62
6
10
9.680
20
46.900
30
0.0
40
0.840
50
0.000
51
90.000
0
LINE
8
FURNITURE
62
6
10
8.700
20
43.750
30
0.0
11
10.800
21
43.750
31
0.0
0
LINE
8
FURNITURE
62
6
10
10.800
20
43.750
30
0.0
11
10.800
21
45.250
31
0.0
0
LINE
8
FURNITURE
62
6
10
10.800
20
45.250
30
0.0
11
8.700
21
45.250
31
0.0
0
LINE
8
FURNITURE
62
6
10
8.700
20
45.250
30
0.0
11
8.700
21
43.750
31
0.0
0
LINE
8
FURNITURE
62
8
10
8.800
20
43.850
30
0.0
11
9.250
21
43.850
31
0.0
0
LINE
8
FURNITURE
62
8
10
9.250
20
43.850
30
0.0
11
9.250
21
45.150
31
0.0
0
LINE
8
FURNITURE
62
8
10
9.250
20
45.150
30
0.0
11
8.800
21
45.150
31
0.0
0
LINE
8
FURNITURE
62
8
10
8.800
20
45.150
30
0.0
11
8.800
21
43.850
31
0.0
0
TEXT
8
TEXT
62
2
10
9.470
20
45.250
30
0.0
40
0.220
1
Quarto 2
0
TEXT
8
TEXT
62
8
10
9.400
20
44.950
30
0.0
40
0.140
1
3.50 x 3.50 m
0
LINE
8
CIRCULATION
62
8
10
6.000
20
32.100
30
0.0
11
6.000
21
31.600
31
0.0
0
LINE
8
CIRCULATION
62
8
10
6.000
20
31.600
30
0.0
11
6.000
21
31.600
31
0.0
0
LINE
8
CIRCULATION
62
8
10
6.000
20
32.100
30
0.0
11
6.000
21
36.900
31
0.0
0
LINE
8
CIRCULATION
62
8
10
6.000
20
36.900
30
0.0
11
6.000
21
36.900
31
0.0
0
LINE
8
CIRCULATION
62
8
10
6.000
20
31.600
30
0.0
11
6.000
21
36.900
31
0.0
0
LINE
8
CIRCULATION
62
8
10
6.000
20
36.900
30
0.0
11
6.000
21
36.900
31
0.0
0
LINE
8
CIRCULATION
62
8
10
6.000
20
31.600
30
0.0
11
6.000
21
31.600
31
0.0
0
LINE
8
CIRCULATION
62
8
10
6.000
20
31.600
30
0.0
11
6.000
21
31.600
31
0.0
0
LINE
8
CIRCULATION
62
8
10
6.000
20
31.600
30
0.0
11
6.000
21
36.900
31
0.0
0
LINE
8
CIRCULATION
62
8
10
6.000
20
36.900
30
0.0
11
6.000
21
36.900
31
0.0
0
ENDSEC
0
EOF
